<?xml version="1.0" encoding="utf-8"?>
<!-- Generator: Adobe Illustrator 23.1.1, SVG Export Plug-In . SVG Version: 6.00 Build 0)  -->
<svg version="1.1" id="Layer_1" xmlns="http://www.w3.org/2000/svg" xmlns:xlink="http://www.w3.org/1999/xlink" x="0px" y="0px"
	 viewBox="0 0 500 500" style="enable-background:new 0 0 500 500;" xml:space="preserve">
<style type="text/css">
	.st0{fill:#36A07D;}
	.st1{fill:#34A07D;}
</style>
<g>
	<g>
		<path class="st0" d="M250,450.2c-110.4,0-200.2-89.8-200.2-200.2S139.6,49.8,250,49.8c110.4,0,200.2,89.8,200.2,200.2
			S360.4,450.2,250,450.2z M250,79.5C156,79.5,79.5,156,79.5,250S156,420.5,250,420.5S420.5,344,420.5,250S344,79.5,250,79.5z"/>
	</g>
	<g>
		<g>
			<path class="st0" d="M246.7,358.7c-10.6,0-19.2-8.6-19.2-19.2v-99.8c0-10.6,8.6-19.2,19.2-19.2c10.6,0,19.2,8.6,19.2,19.2v99.8
				C265.9,350.1,257.3,358.7,246.7,358.7z"/>
		</g>
		<g>
			<circle class="st1" cx="250.3" cy="163.6" r="22.3"/>
		</g>
	</g>
</g>
</svg>
