<svg width="500" height="500" xmlns="http://www.w3.org/2000/svg">
 <style type="text/css">.st0{fill:#34A07D;}</style>

 <g>
  <title>background</title>
  <rect fill="none" id="canvas_background" height="502" width="502" y="-1" x="-1"/>
 </g>
 <g>
  <title>Layer 1</title>
  <g id="svg_1">
   <g id="svg_2">
    <circle id="svg_3" r="20.43707" cy="182.26452" cx="250.24998" class="st0"/>
    <path id="svg_4" d="m269.83663,249.1545l0,80.42115c0,11.23343 -8.76892,20.33932 -19.58665,20.33932c-10.81773,0 -19.58665,-9.10589 -19.58665,-20.33932l0,-80.42115c0,-11.23343 8.76892,-20.33932 19.58665,-20.33932c10.81773,0.0851 19.58665,9.10589 19.58665,20.33932z" class="st0"/>
    <path id="svg_5" d="m250.24998,78.09998c-93.42587,0 -169.15,78.63401 -169.15,175.65001s75.72413,175.65001 169.15,175.65001s169.15,-78.63401 169.15,-175.65001s-75.72413,-175.65001 -169.15,-175.65001zm98.34302,277.77211c-53.84281,56.84797 -141.94177,57.69899 -196.68605,1.70204s-55.56381,-147.39623 -1.63905,-204.2442c0.57367,-0.59572 1.14734,-1.19142 1.63905,-1.70204c53.84281,-56.84797 141.94177,-57.69899 196.68605,-1.70204s55.56381,147.39623 1.63905,204.2442c-0.49171,0.59572 -1.06538,1.10632 -1.63905,1.70204z" class="st0"/>
    <path id="svg_6" d="m250.24998,78.09998c-93.42587,0 -169.15,78.63401 -169.15,175.65001s75.72413,175.65001 169.15,175.65001s169.15,-78.63401 169.15,-175.65001s-75.72413,-175.65001 -169.15,-175.65001zm98.34302,277.77211c-53.84281,56.84797 -141.94177,57.69899 -196.68605,1.70204s-55.56381,-147.39623 -1.63905,-204.2442c0.57367,-0.59572 1.14734,-1.19142 1.63905,-1.70204c53.84281,-56.84797 141.94177,-57.69899 196.68605,-1.70204s55.56381,147.39623 1.63905,204.2442c-0.49171,0.59572 -1.06538,1.10632 -1.63905,1.70204z" class="st0"/>
   </g>
  </g>
 </g>
</svg>