<?xml version="1.0" encoding="utf-8"?>
<!-- Generator: Adobe Illustrator 23.1.1, SVG Export Plug-In . SVG Version: 6.00 Build 0)  -->
<svg version="1.1" id="Layer_1" xmlns="http://www.w3.org/2000/svg" xmlns:xlink="http://www.w3.org/1999/xlink" x="0px" y="0px"
	 viewBox="0 0 500 500" style="enable-background:new 0 0 500 500;" xml:space="preserve">
<style type="text/css">
	.st0{fill:#34A07D;}
</style>
<g>
	<g>
		<circle class="st0" cx="250" cy="166" r="28.7"/>
		<path class="st0" d="M273.9,244.6v94.5c0,13.2-10.7,23.9-23.9,23.9c-13.2,0-23.9-10.7-23.9-23.9v-94.5c0-13.2,10.7-23.9,23.9-23.9
			C263.2,220.8,273.9,231.4,273.9,244.6z"/>
		<path class="st0" d="M250,43.6C136,43.6,43.6,136,43.6,250S136,456.4,250,456.4S456.4,364,456.4,250S364,43.6,250,43.6z M370,370
			c-65.7,66.8-173.2,67.8-240,2s-67.8-173.2-2-240c0.7-0.7,1.4-1.4,2-2c65.7-66.8,173.2-67.8,240-2s67.8,173.2,2,240
			C371.4,368.7,370.7,369.3,370,370z"/>
		<path class="st0" d="M250,43.6C136,43.6,43.6,136,43.6,250S136,456.4,250,456.4S456.4,364,456.4,250S364,43.6,250,43.6z M370,370
			c-65.7,66.8-173.2,67.8-240,2s-67.8-173.2-2-240c0.7-0.7,1.4-1.4,2-2c65.7-66.8,173.2-67.8,240-2s67.8,173.2,2,240
			C371.4,368.7,370.7,369.3,370,370z"/>
	</g>
</g>
</svg>
