<?xml version="1.0" encoding="utf-8"?>
<!-- Generator: Adobe Illustrator 23.1.1, SVG Export Plug-In . SVG Version: 6.00 Build 0)  -->
<svg version="1.1" id="Layer_1" xmlns="http://www.w3.org/2000/svg" xmlns:xlink="http://www.w3.org/1999/xlink" x="0px" y="0px"
	 viewBox="0 0 500 500" style="enable-background:new 0 0 500 500;" xml:space="preserve">
<style type="text/css">
	.st0{fill-rule:evenodd;clip-rule:evenodd;fill:#FFFFFF;}
	.st1{fill:#37A17D;}
</style>
<g>
	<g>
		<line class="st0" x1="250" y1="91.14" x2="250" y2="408.87"/>
		<path class="st1" d="M250,422.61c-7.59,0-13.75-6.16-13.75-13.75V91.14c0-7.59,6.16-13.75,13.75-13.75s13.75,6.16,13.75,13.75
			v317.73C263.75,416.46,257.59,422.61,250,422.61z"/>
	</g>
	<g>
		<line class="st0" x1="408.86" y1="250" x2="91.13" y2="250"/>
		<path class="st1" d="M408.87,263.75H91.13c-7.59,0-13.75-6.16-13.75-13.75s6.16-13.75,13.75-13.75h317.73
			c7.59,0,13.75,6.16,13.75,13.75S416.46,263.75,408.87,263.75z"/>
	</g>
</g>
</svg>
