<?xml version="1.0" encoding="utf-8"?>
<!-- Generator: Adobe Illustrator 23.1.1, SVG Export Plug-In . SVG Version: 6.00 Build 0)  -->
<svg version="1.1" id="Layer_1" xmlns="http://www.w3.org/2000/svg" xmlns:xlink="http://www.w3.org/1999/xlink" x="0px" y="0px"
	 viewBox="0 0 500 500" style="enable-background:new 0 0 500 500;" xml:space="preserve">
<style type="text/css">
	.st0{fill:#34A17E;}
</style>
<g>
	<g>
		<g>
			<path class="st0" d="M463.9,145.3h-51.2v-44.4c0-24.5-17.1-44.4-38.3-44.4h-205c-21.2,0-38.3,19.9-38.3,44.4V191
				c4.1-0.5,8.5-0.7,12.8-0.7s8.6,0.2,12.7,0.7v-90.1c0-8.2,5.8-14.8,12.8-14.8h204.9c7,0,12.7,6.6,12.7,14.8v221.8
				c0.1,10.5,2.6,20.7,7.2,29.7H256.1c-4,10.7-9.5,20.6-16.3,29.6h198.4c28.3,0,51.2-26.5,51.2-59.2V174.9
				C489.5,158.5,478,145.3,463.9,145.3z M463.9,322.7c0,16.4-11.5,29.7-25.6,29.7s-25.6-13.3-25.6-29.7V174.9h51.2V322.7z
				 M143.9,353.1v-42.9h-12.8L143.9,353.1z"/>
		</g>
		<g>
			<path class="st0" d="M323,145.3H220.6c-7.1,0-12.8,6.6-12.8,14.8s5.7,14.8,12.8,14.8H323c7.1,0,12.8-6.6,12.8-14.8
				S330.1,145.3,323,145.3z"/>
		</g>
		<g>
			<path class="st0" d="M323,204.5H220.6c-7.1,0-12.8,6.6-12.8,14.8s5.7,14.8,12.8,14.8H323c7.1,0,12.8-6.6,12.8-14.8
				S330.1,204.5,323,204.5z"/>
		</g>
		<g>
			<path class="st0" d="M262.5,293.2H323c7,0,12.8-6.5,12.8-14.7s-5.8-14.8-12.8-14.8h-68.8L262.5,293.2z"/>
		</g>
	</g>
	<g>
		<g>
			<g>
				<path class="st0" d="M143.9,393.3c-7.4,0-13.5-6-13.5-13.5V240.7c0-7.4,6-13.5,13.5-13.5c7.4,0,13.5,6,13.5,13.5v139.1
					C157.4,387.2,151.3,393.3,143.9,393.3z"/>
			</g>
			<g>
				<path class="st0" d="M213.4,323.7H74.3c-7.4,0-13.5-6-13.5-13.5s6-13.5,13.5-13.5h139.1c7.4,0,13.5,6,13.5,13.5
					S220.9,323.7,213.4,323.7z"/>
			</g>
		</g>
		<g>
			<path class="st0" d="M143.9,443.5c-68.3,0-125.4-51.2-132.6-119.1c-0.5-4.2-0.8-9-0.8-14.3c0-5.2,0.3-9.9,0.8-14.3
				c2.3-21.4,9.8-42.1,21.8-59.8c7.3-10.9,16.1-20.6,26.1-28.8c10-8.3,21.1-15,33-19.9c9.7-4.1,19.9-7,30.4-8.6
				c0.2-0.1,0.4-0.1,0.6-0.2c0.6-0.2,1.2-0.3,1.8-0.4c21.8-3,44.9-0.6,65.8,7.2c7,2.6,10.5,10.4,7.9,17.4s-10.4,10.6-17.4,7.9
				c-16.4-6.1-34.5-8-51.5-5.9c-0.4,0.1-0.8,0.2-1.3,0.3c-0.4,0.1-0.7,0.2-1.1,0.2c-8.6,1.3-17,3.6-24.9,7
				c-9.5,3.9-18.3,9.2-26.2,15.8c-8,6.6-15,14.4-20.9,23.1c-9.6,14.3-15.5,30.3-17.3,47.7c-0.4,3.5-0.6,7.1-0.6,11.3
				c0,4.2,0.2,7.9,0.6,11.2c5.8,54.3,51.3,95.1,105.8,95.1c58.6,0,106.3-47.7,106.3-106.3c0-33.8-15.5-64.8-42.7-85.1
				c-6-4.5-7.2-12.9-2.7-18.9s12.9-7.2,18.9-2.7c33.5,25.1,53.5,65,53.5,106.7C277.2,383.7,217.4,443.5,143.9,443.5z"/>
		</g>
		<g>
			<path class="st0" d="M143.9,366.6c-7.4,0-13.5-6-13.5-13.5v-42.9c0-7.4,6-13.5,13.5-13.5h12.7c7.4,0,13.5,6,13.5,13.5
				c0,7.2-5.6,13.1-12.7,13.5v29.4C157.4,360.5,151.3,366.6,143.9,366.6z"/>
		</g>
	</g>
</g>
</svg>
