<?xml version="1.0" encoding="utf-8"?>
<!-- Generator: Adobe Illustrator 23.1.1, SVG Export Plug-In . SVG Version: 6.00 Build 0)  -->
<svg version="1.1" id="Layer_1" xmlns="http://www.w3.org/2000/svg" xmlns:xlink="http://www.w3.org/1999/xlink" x="0px" y="0px"
	 viewBox="0 0 500 500" style="enable-background:new 0 0 500 500;" xml:space="preserve">
<style type="text/css">
	.st0{fill:#007367;}
</style>
<g>
	<g>
		<g>
			<path class="st0" d="M221.2,354.3L219,338l-0.5-4h-8.4v-56.6c0-3.2-1.2-6.2-3.1-8.6c-2.2-2.9-5.6-4.8-9.6-5h-1.7
				c-3.5,0.2-6.5,1.7-8.8,4c-2.4,2.4-3.9,5.8-3.9,9.5v5.2h9.9l6.8,51.4l3.6,27.2l4.9,36.7l2,15.1v-51.8h12L221.2,354.3z
				 M423.9,208.2H312.4v-28.7c73.5,10.4,122.6-46.5,107.4-117.3c-0.8-3.6-3.5-6.4-7.2-7.2c-39.8-8.5-80.1,2.3-103,36.7
				c-11.4-48.4-57.4-78.4-115.9-66.4c-3.5,0.8-6.4,3.6-7.1,7.2c-15.1,71.1,33.7,127.8,107.3,117.3v58.4H182.5c-4.3,0-8,2.9-8.9,6.9
				c-0.3,0.8-0.4,1.6-0.4,2.4v25.3c1.6-0.4,3.2-0.7,4.9-0.9c0.7-0.2,1.4-0.3,2-0.4c0.4,0,0.8-0.1,1.2-0.2c0.4-0.1,0.9-0.2,1.3-0.3
				c1.5-0.2,2.9-0.4,4.4-0.4c1.7-0.2,3.2-0.3,4.9-0.4v-13.6h222.9v37.1H263.7c2,1.6,4,3.3,5.8,5c3,2.8,5.8,5.7,8.5,8.8
				c1.5,1.6,2.7,3.2,4,4.9h112.7l-16.2,120.6h-90.1c-1.1,1.7-2.1,3.4-3.3,5c-2,3.1-4.3,6-6.7,8.8c-1.5,1.7-2.9,3.3-4.4,4.9h112.7
				c4.7,0,8.6-3.4,9.2-8.1l17.5-131.2h10.4c5.2,0,9.2-4.1,9.2-9.2v-55.7C433.1,212.5,429,208.2,423.9,208.2z M234.2,75.3
				c-3.7,3.6-3.7,9.5-0.1,13.2l43.9,43.9c-51.1,0.6-82.4-38.8-74.4-90c53.9-8.4,93.3,26.5,90.3,79.4l-46.4-46.5
				C243.8,71.7,237.9,71.7,234.2,75.3z M402.8,72.1c8.3,53.8-26.6,92.9-79.2,90.2l48.6-48.7c3.7-3.7,3.6-9.6-0.2-13.3
				c-3.7-3.6-9.6-3.5-13.2,0.2l-46.5,46.5C312.4,95.5,351.5,64.2,402.8,72.1z"/>
			<path class="st0" d="M223.5,334h-9.9l0.1,0.8l3.2,24.2l0.4,2.2h9.8L223.5,334z M223.5,334h-9.9l0.1,0.8l3.2,24.2l0.4,2.2h9.8
				L223.5,334z M223.5,334h-9.9l0.1,0.8l3.2,24.2l0.4,2.2h9.8L223.5,334z M223.5,334h-9.9l0.1,0.8l3.2,24.2l0.4,2.2h9.8L223.5,334z
				 M223.5,334h-9.9l0.1,0.8l3.2,24.2l0.4,2.2h9.8L223.5,334z M186.8,221.9v18.9c1.7-0.2,3.2-0.3,4.9-0.4c1.7-0.1,3.3-0.1,4.9-0.1
				v-8.6h213.1v27.5H258.4c0.7,1,1.6,1.7,2.5,2.5c1,0.7,1.8,1.5,2.8,2.2c2,1.6,4,3.3,5.8,5h149.9v-46.9H186.8z M197.4,263.9
				c-0.3-0.1-0.6-0.1-0.9-0.1c-0.3,0-0.6,0-0.9,0.1c-3.5,0.2-6.5,1.7-8.8,4v1H207C204.8,266,201.4,264.1,197.4,263.9z M407.5,71.4
				l-0.6-3.5l-3.5-0.6c-26.8-4.2-51.5,1.9-69.4,17.2c-17.1,14.6-26.5,36.8-26.6,62.4v11.8l54.8-54.8c0.9-0.9,1.9-1.4,3.2-1.4
				c1.2,0,2.3,0.5,3.2,1.3c1.7,1.7,1.8,4.6,0.1,6.4l-56.4,56.4l10.9,0.6c1.8,0.1,3.6,0.1,5.3,0.1c24.5,0,45.8-8.7,60.5-25
				C405.2,124.4,411.8,99.2,407.5,71.4z M375.7,117c5.4-5.6,5.3-14.7-0.3-20.1c-2.7-2.7-6.3-4.1-9.9-4.1c-3.7,0-7.4,1.5-10.1,4.3
				l-37.2,37.2c2.5-17.3,10.2-32.1,22.3-42.4c14.9-12.7,35.4-18.2,58-15.5c2.8,23.4-3,44.3-16.5,59.3
				c-11.5,12.6-27.7,20.1-46.5,21.6L375.7,117z M274,56.1c-18-16.2-43.3-22.8-71.2-18.6l-3.5,0.6l-0.5,3.5
				c-4.3,27.2,1.9,52.1,17.4,69.9c14.5,16.7,36,25.8,60.7,25.8h1.2l11.5-0.1l-52-52.1c-1.7-1.7-1.7-4.7,0-6.3
				c1.7-1.7,4.7-1.7,6.4,0.1l54.1,54l0.6-10.8C300.2,95.4,291.4,72,274,56.1z M250.9,72c-5.4-5.5-14.4-5.6-20.1-0.2
				c-5.5,5.4-5.6,14.4-0.2,20.1l35,35c-17.1-2.3-31.7-9.8-42-21.7c-12.9-14.9-18.5-35.6-15.7-58.5c23.6-2.7,44.6,3,59.7,16.6
				c12.6,11.6,20.1,27.9,21.5,46.7L250.9,72z M274,56.1c-18-16.2-43.3-22.8-71.2-18.6l-3.5,0.6l-0.5,3.5
				c-4.3,27.2,1.9,52.1,17.4,69.9c14.5,16.7,36,25.8,60.7,25.8h1.2l11.5-0.1l-52-52.1c-1.7-1.7-1.7-4.7,0-6.3
				c1.7-1.7,4.7-1.7,6.4,0.1l54.1,54l0.6-10.8C300.2,95.4,291.4,72,274,56.1z M250.9,72c-5.4-5.5-14.4-5.6-20.1-0.2
				c-5.5,5.4-5.6,14.4-0.2,20.1l35,35c-17.1-2.3-31.7-9.8-42-21.7c-12.9-14.9-18.5-35.6-15.7-58.5c23.6-2.7,44.6,3,59.7,16.6
				c12.6,11.6,20.1,27.9,21.5,46.7L250.9,72z M407.5,71.4l-0.6-3.5l-3.5-0.6c-26.8-4.2-51.5,1.9-69.4,17.2
				c-17.1,14.6-26.5,36.8-26.6,62.4v11.8l54.8-54.8c0.9-0.9,1.9-1.4,3.2-1.4c1.2,0,2.3,0.5,3.2,1.3c1.7,1.7,1.8,4.6,0.1,6.4
				l-56.4,56.4l10.9,0.6c1.8,0.1,3.6,0.1,5.3,0.1c24.5,0,45.8-8.7,60.5-25C405.2,124.4,411.8,99.2,407.5,71.4z M375.7,117
				c5.4-5.6,5.3-14.7-0.3-20.1c-2.7-2.7-6.3-4.1-9.9-4.1c-3.7,0-7.4,1.5-10.1,4.3l-37.2,37.2c2.5-17.3,10.2-32.1,22.3-42.4
				c14.9-12.7,35.4-18.2,58-15.5c2.8,23.4-3,44.3-16.5,59.3c-11.5,12.6-27.7,20.1-46.5,21.6L375.7,117z M186.8,221.9v18.9
				c1.7-0.2,3.2-0.3,4.9-0.4c1.7-0.1,3.3-0.1,4.9-0.1v-8.6h213.1v27.5H258.4c0.7,1,1.6,1.7,2.5,2.5c1,0.7,1.8,1.5,2.8,2.2
				c2,1.6,4,3.3,5.8,5h149.9v-46.9H186.8z M197.4,263.9c-0.3-0.1-0.6-0.1-0.9-0.1c-0.3,0-0.6,0-0.9,0.1c-3.5,0.2-6.5,1.7-8.8,4v1
				H207C204.8,266,201.4,264.1,197.4,263.9z M186.8,221.9v18.9c1.7-0.2,3.2-0.3,4.9-0.4c1.7-0.1,3.3-0.1,4.9-0.1v-8.6h213.1v27.5
				H258.4c0.7,1,1.6,1.7,2.5,2.5c1,0.7,1.8,1.5,2.8,2.2c2,1.6,4,3.3,5.8,5h149.9v-46.9H186.8z M197.4,263.9
				c-0.3-0.1-0.6-0.1-0.9-0.1c-0.3,0-0.6,0-0.9,0.1c-3.5,0.2-6.5,1.7-8.8,4v1H207C204.8,266,201.4,264.1,197.4,263.9z M274,56.1
				c-18-16.2-43.3-22.8-71.2-18.6l-3.5,0.6l-0.5,3.5c-4.3,27.2,1.9,52.1,17.4,69.9c14.5,16.7,36,25.8,60.7,25.8h1.2l11.5-0.1
				l-52-52.1c-1.7-1.7-1.7-4.7,0-6.3c1.7-1.7,4.7-1.7,6.4,0.1l54.1,54l0.6-10.8C300.2,95.4,291.4,72,274,56.1z M250.9,72
				c-5.4-5.5-14.4-5.6-20.1-0.2c-5.5,5.4-5.6,14.4-0.2,20.1l35,35c-17.1-2.3-31.7-9.8-42-21.7c-12.9-14.9-18.5-35.6-15.7-58.5
				c23.6-2.7,44.6,3,59.7,16.6c12.6,11.6,20.1,27.9,21.5,46.7L250.9,72z M407.5,71.4l-0.6-3.5l-3.5-0.6
				c-26.8-4.2-51.5,1.9-69.4,17.2c-17.1,14.6-26.5,36.8-26.6,62.4v11.8l54.8-54.8c0.9-0.9,1.9-1.4,3.2-1.4c1.2,0,2.3,0.5,3.2,1.3
				c1.7,1.7,1.8,4.6,0.1,6.4l-56.4,56.4l10.9,0.6c1.8,0.1,3.6,0.1,5.3,0.1c24.5,0,45.8-8.7,60.5-25
				C405.2,124.4,411.8,99.2,407.5,71.4z M375.7,117c5.4-5.6,5.3-14.7-0.3-20.1c-2.7-2.7-6.3-4.1-9.9-4.1c-3.7,0-7.4,1.5-10.1,4.3
				l-37.2,37.2c2.5-17.3,10.2-32.1,22.3-42.4c14.9-12.7,35.4-18.2,58-15.5c2.8,23.4-3,44.3-16.5,59.3
				c-11.5,12.6-27.7,20.1-46.5,21.6L375.7,117z M186.8,221.9v18.9c1.7-0.2,3.2-0.3,4.9-0.4c1.7-0.1,3.3-0.1,4.9-0.1v-8.6h213.1v27.5
				H258.4c0.7,1,1.6,1.7,2.5,2.5c1,0.7,1.8,1.5,2.8,2.2c2,1.6,4,3.3,5.8,5h149.9v-46.9H186.8z M197.4,263.9
				c-0.3-0.1-0.6-0.1-0.9-0.1c-0.3,0-0.6,0-0.9,0.1c-3.5,0.2-6.5,1.7-8.8,4v1H207C204.8,266,201.4,264.1,197.4,263.9z M206.1,277.7
				l4.1,30.6v-30.6H206.1z M278,277.7c1.5,1.6,2.7,3.2,4,4.9c1.3,1.6,2.4,3.2,3.5,4.9h103.7l-14.9,111h-53.2c-0.6,1.7-1.3,3.2-2,4.8
				h-30.7c-1.1,1.7-2.1,3.4-3.3,5h97.7l17.5-130.4H278z M274,56.1c-18-16.2-43.3-22.8-71.2-18.6l-3.5,0.6l-0.5,3.5
				c-4.3,27.2,1.9,52.1,17.4,69.9c14.5,16.7,36,25.8,60.7,25.8h1.2l11.5-0.1l-52-52.1c-1.7-1.7-1.7-4.7,0-6.3
				c1.7-1.7,4.7-1.7,6.4,0.1l54.1,54l0.6-10.8C300.2,95.4,291.4,72,274,56.1z M250.9,72c-5.4-5.5-14.4-5.6-20.1-0.2
				c-5.5,5.4-5.6,14.4-0.2,20.1l35,35c-17.1-2.3-31.7-9.8-42-21.7c-12.9-14.9-18.5-35.6-15.7-58.5c23.6-2.7,44.6,3,59.7,16.6
				c12.6,11.6,20.1,27.9,21.5,46.7L250.9,72z M407.5,71.4l-0.6-3.5l-3.5-0.6c-26.8-4.2-51.5,1.9-69.4,17.2
				c-17.1,14.6-26.5,36.8-26.6,62.4v11.8l54.8-54.8c0.9-0.9,1.9-1.4,3.2-1.4c1.2,0,2.3,0.5,3.2,1.3c1.7,1.7,1.8,4.6,0.1,6.4
				l-56.4,56.4l10.9,0.6c1.8,0.1,3.6,0.1,5.3,0.1c24.5,0,45.8-8.7,60.5-25C405.2,124.4,411.8,99.2,407.5,71.4z M375.7,117
				c5.4-5.6,5.3-14.7-0.3-20.1c-2.7-2.7-6.3-4.1-9.9-4.1c-3.7,0-7.4,1.5-10.1,4.3l-37.2,37.2c2.5-17.3,10.2-32.1,22.3-42.4
				c14.9-12.7,35.4-18.2,58-15.5c2.8,23.4-3,44.3-16.5,59.3c-11.5,12.6-27.7,20.1-46.5,21.6L375.7,117z M186.8,221.9v18.9
				c1.7-0.2,3.2-0.3,4.9-0.4c1.7-0.1,3.3-0.1,4.9-0.1v-8.6h213.1v27.5H258.4c0.7,1,1.6,1.7,2.5,2.5c1,0.7,1.8,1.5,2.8,2.2
				c2,1.6,4,3.3,5.8,5h149.9v-46.9H186.8z M197.4,263.9c-0.3-0.1-0.6-0.1-0.9-0.1c-0.3,0-0.6,0-0.9,0.1c-3.5,0.2-6.5,1.7-8.8,4v1
				H207C204.8,266,201.4,264.1,197.4,263.9z M274,56.1c-18-16.2-43.3-22.8-71.2-18.6l-3.5,0.6l-0.5,3.5
				c-4.3,27.2,1.9,52.1,17.4,69.9c14.5,16.7,36,25.8,60.7,25.8h1.2l11.5-0.1l-52-52.1c-1.7-1.7-1.7-4.7,0-6.3
				c1.7-1.7,4.7-1.7,6.4,0.1l54.1,54l0.6-10.8C300.2,95.4,291.4,72,274,56.1z M250.9,72c-5.4-5.5-14.4-5.6-20.1-0.2
				c-5.5,5.4-5.6,14.4-0.2,20.1l35,35c-17.1-2.3-31.7-9.8-42-21.7c-12.9-14.9-18.5-35.6-15.7-58.5c23.6-2.7,44.6,3,59.7,16.6
				c12.6,11.6,20.1,27.9,21.5,46.7L250.9,72z M278,277.7c1.5,1.6,2.7,3.2,4,4.9h32.3c1,1.7,1.8,3.2,2.6,4.9h72.3l-14.9,111h-53.2
				c-0.6,1.7-1.3,3.2-2,4.8h-30.7c-1.1,1.7-2.1,3.4-3.3,5h97.7l17.5-130.4H278z M407.5,71.4l-0.6-3.5l-3.5-0.6
				c-26.8-4.2-51.5,1.9-69.4,17.2c-17.1,14.6-26.5,36.8-26.6,62.4v11.8l54.8-54.8c0.9-0.9,1.9-1.4,3.2-1.4c1.2,0,2.3,0.5,3.2,1.3
				c1.7,1.7,1.8,4.6,0.1,6.4l-56.4,56.4l10.9,0.6c1.8,0.1,3.6,0.1,5.3,0.1c24.5,0,45.8-8.7,60.5-25
				C405.2,124.4,411.8,99.2,407.5,71.4z M375.7,117c5.4-5.6,5.3-14.7-0.3-20.1c-2.7-2.7-6.3-4.1-9.9-4.1c-3.7,0-7.4,1.5-10.1,4.3
				l-37.2,37.2c2.5-17.3,10.2-32.1,22.3-42.4c14.9-12.7,35.4-18.2,58-15.5c2.8,23.4-3,44.3-16.5,59.3
				c-11.5,12.6-27.7,20.1-46.5,21.6L375.7,117z M186.8,221.9v18.9c1.7-0.2,3.2-0.3,4.9-0.4c1.7-0.1,3.3-0.1,4.9-0.1v-8.6h213.1v27.5
				H258.4c0.7,1,1.6,1.7,2.5,2.5c1,0.7,1.8,1.5,2.8,2.2c2,1.6,4,3.3,5.8,5h149.9v-46.9H186.8z M197.4,263.9
				c-0.3-0.1-0.6-0.1-0.9-0.1c-0.3,0-0.6,0-0.9,0.1c-3.5,0.2-6.5,1.7-8.8,4v1H207C204.8,266,201.4,264.1,197.4,263.9z M274,56.1
				c-18-16.2-43.3-22.8-71.2-18.6l-3.5,0.6l-0.5,3.5c-4.3,27.2,1.9,52.1,17.4,69.9c14.5,16.7,36,25.8,60.7,25.8h1.2l11.5-0.1
				l-52-52.1c-1.7-1.7-1.7-4.7,0-6.3c1.7-1.7,4.7-1.7,6.4,0.1l54.1,54l0.6-10.8C300.2,95.4,291.4,72,274,56.1z M250.9,72
				c-5.4-5.5-14.4-5.6-20.1-0.2c-5.5,5.4-5.6,14.4-0.2,20.1l35,35c-17.1-2.3-31.7-9.8-42-21.7c-12.9-14.9-18.5-35.6-15.7-58.5
				c23.6-2.7,44.6,3,59.7,16.6c12.6,11.6,20.1,27.9,21.5,46.7L250.9,72z M278,277.7c1.5,1.6,2.7,3.2,4,4.9h32.3
				c1,1.7,1.8,3.2,2.6,4.9h72.3l-14.9,111h-53.2c-0.6,1.7-1.3,3.2-2,4.8h-30.7c-1.1,1.7-2.1,3.4-3.3,5h97.7l17.5-130.4H278z
				 M407.5,71.4l-0.6-3.5l-3.5-0.6c-26.8-4.2-51.5,1.9-69.4,17.2c-17.1,14.6-26.5,36.8-26.6,62.4v11.8l54.8-54.8
				c0.9-0.9,1.9-1.4,3.2-1.4c1.2,0,2.3,0.5,3.2,1.3c1.7,1.7,1.8,4.6,0.1,6.4l-56.4,56.4l10.9,0.6c1.8,0.1,3.6,0.1,5.3,0.1
				c24.5,0,45.8-8.7,60.5-25C405.2,124.4,411.8,99.2,407.5,71.4z M375.7,117c5.4-5.6,5.3-14.7-0.3-20.1c-2.7-2.7-6.3-4.1-9.9-4.1
				c-3.7,0-7.4,1.5-10.1,4.3l-37.2,37.2c2.5-17.3,10.2-32.1,22.3-42.4c14.9-12.7,35.4-18.2,58-15.5c2.8,23.4-3,44.3-16.5,59.3
				c-11.5,12.6-27.7,20.1-46.5,21.6L375.7,117z M274,56.1c-18-16.2-43.3-22.8-71.2-18.6l-3.5,0.6l-0.5,3.5
				c-4.3,27.2,1.9,52.1,17.4,69.9c14.5,16.7,36,25.8,60.7,25.8h1.2l11.5-0.1l-52-52.1c-1.7-1.7-1.7-4.7,0-6.3
				c1.7-1.7,4.7-1.7,6.4,0.1l54.1,54l0.6-10.8C300.2,95.4,291.4,72,274,56.1z M250.9,72c-5.4-5.5-14.4-5.6-20.1-0.2
				c-5.5,5.4-5.6,14.4-0.2,20.1l35,35c-17.1-2.3-31.7-9.8-42-21.7c-12.9-14.9-18.5-35.6-15.7-58.5c23.6-2.7,44.6,3,59.7,16.6
				c12.6,11.6,20.1,27.9,21.5,46.7L250.9,72z M186.8,221.9v18.9c1.7-0.2,3.2-0.3,4.9-0.4c1.7-0.1,3.3-0.1,4.9-0.1v-8.6h213.1v27.5
				H258.4c0.7,1,1.6,1.7,2.5,2.5c1,0.7,1.8,1.5,2.8,2.2c2,1.6,4,3.3,5.8,5h149.9v-46.9H186.8z M197.4,263.9
				c-0.3-0.1-0.6-0.1-0.9-0.1c-0.3,0-0.6,0-0.9,0.1c-3.5,0.2-6.5,1.7-8.8,4v1H207C204.8,266,201.4,264.1,197.4,263.9z M278,277.7
				c1.5,1.6,2.7,3.2,4,4.9h32.3c1,1.7,1.8,3.2,2.6,4.9h72.3l-14.9,111h-53.2c-0.6,1.7-1.3,3.2-2,4.8h-30.7c-1.1,1.7-2.1,3.4-3.3,5
				h97.7l17.5-130.4H278z M407.5,71.4l-0.6-3.5l-3.5-0.6c-26.8-4.2-51.5,1.9-69.4,17.2c-17.1,14.6-26.5,36.8-26.6,62.4v11.8
				l54.8-54.8c0.9-0.9,1.9-1.4,3.2-1.4c1.2,0,2.3,0.5,3.2,1.3c1.7,1.7,1.8,4.6,0.1,6.4l-56.4,56.4l10.9,0.6c1.8,0.1,3.6,0.1,5.3,0.1
				c24.5,0,45.8-8.7,60.5-25C405.2,124.4,411.8,99.2,407.5,71.4z M375.7,117c5.4-5.6,5.3-14.7-0.3-20.1c-2.7-2.7-6.3-4.1-9.9-4.1
				c-3.7,0-7.4,1.5-10.1,4.3l-37.2,37.2c2.5-17.3,10.2-32.1,22.3-42.4c14.9-12.7,35.4-18.2,58-15.5c2.8,23.4-3,44.3-16.5,59.3
				c-11.5,12.6-27.7,20.1-46.5,21.6L375.7,117z M274,56.1c-18-16.2-43.3-22.8-71.2-18.6l-3.5,0.6l-0.5,3.5
				c-4.3,27.2,1.9,52.1,17.4,69.9c14.5,16.7,36,25.8,60.7,25.8h1.2l11.5-0.1l-52-52.1c-1.7-1.7-1.7-4.7,0-6.3
				c1.7-1.7,4.7-1.7,6.4,0.1l54.1,54l0.6-10.8C300.2,95.4,291.4,72,274,56.1z M250.9,72c-5.4-5.5-14.4-5.6-20.1-0.2
				c-5.5,5.4-5.6,14.4-0.2,20.1l35,35c-17.1-2.3-31.7-9.8-42-21.7c-12.9-14.9-18.5-35.6-15.7-58.5c23.6-2.7,44.6,3,59.7,16.6
				c12.6,11.6,20.1,27.9,21.5,46.7L250.9,72z M186.8,221.9v18.9c1.7-0.2,3.2-0.3,4.9-0.4c1.7-0.1,3.3-0.1,4.9-0.1v-8.6h213.1v27.5
				H258.4c0.7,1,1.6,1.7,2.5,2.5c1,0.7,1.8,1.5,2.8,2.2c2,1.6,4,3.3,5.8,5h149.9v-46.9H186.8z M197.4,263.9
				c-0.3-0.1-0.6-0.1-0.9-0.1c-0.3,0-0.6,0-0.9,0.1c-3.5,0.2-6.5,1.7-8.8,4v1H207C204.8,266,201.4,264.1,197.4,263.9z M278,277.7
				c1.5,1.6,2.7,3.2,4,4.9h32.3c1,1.7,1.8,3.2,2.6,4.9h72.3l-14.9,111h-53.2c-0.6,1.7-1.3,3.2-2,4.8h-30.7c-1.1,1.7-2.1,3.4-3.3,5
				h97.7l17.5-130.4H278z M407.5,71.4l-0.6-3.5l-3.5-0.6c-26.8-4.2-51.5,1.9-69.4,17.2c-17.1,14.6-26.5,36.8-26.6,62.4v11.8
				l54.8-54.8c0.9-0.9,1.9-1.4,3.2-1.4c1.2,0,2.3,0.5,3.2,1.3c1.7,1.7,1.8,4.6,0.1,6.4l-56.4,56.4l10.9,0.6c1.8,0.1,3.6,0.1,5.3,0.1
				c24.5,0,45.8-8.7,60.5-25C405.2,124.4,411.8,99.2,407.5,71.4z M375.7,117c5.4-5.6,5.3-14.7-0.3-20.1c-2.7-2.7-6.3-4.1-9.9-4.1
				c-3.7,0-7.4,1.5-10.1,4.3l-37.2,37.2c2.5-17.3,10.2-32.1,22.3-42.4c14.9-12.7,35.4-18.2,58-15.5c2.8,23.4-3,44.3-16.5,59.3
				c-11.5,12.6-27.7,20.1-46.5,21.6L375.7,117z M274,56.1c-18-16.2-43.3-22.8-71.2-18.6l-3.5,0.6l-0.5,3.5
				c-4.3,27.2,1.9,52.1,17.4,69.9c14.5,16.7,36,25.8,60.7,25.8h1.2l11.5-0.1l-52-52.1c-1.7-1.7-1.7-4.7,0-6.3
				c1.7-1.7,4.7-1.7,6.4,0.1l54.1,54l0.6-10.8C300.2,95.4,291.4,72,274,56.1z M250.9,72c-5.4-5.5-14.4-5.6-20.1-0.2
				c-5.5,5.4-5.6,14.4-0.2,20.1l35,35c-17.1-2.3-31.7-9.8-42-21.7c-12.9-14.9-18.5-35.6-15.7-58.5c23.6-2.7,44.6,3,59.7,16.6
				c12.6,11.6,20.1,27.9,21.5,46.7L250.9,72z M278,277.7c1.5,1.6,2.7,3.2,4,4.9h32.3c1,1.7,1.8,3.2,2.6,4.9h72.3l-14.9,111h-53.2
				c-0.6,1.7-1.3,3.2-2,4.8h-30.7c-1.1,1.7-2.1,3.4-3.3,5h97.7l17.5-130.4H278z M407.5,71.4l-0.6-3.5l-3.5-0.6
				c-26.8-4.2-51.5,1.9-69.4,17.2c-17.1,14.6-26.5,36.8-26.6,62.4v11.8l54.8-54.8c0.9-0.9,1.9-1.4,3.2-1.4c1.2,0,2.3,0.5,3.2,1.3
				c1.7,1.7,1.8,4.6,0.1,6.4l-56.4,56.4l10.9,0.6c1.8,0.1,3.6,0.1,5.3,0.1c24.5,0,45.8-8.7,60.5-25
				C405.2,124.4,411.8,99.2,407.5,71.4z M375.7,117c5.4-5.6,5.3-14.7-0.3-20.1c-2.7-2.7-6.3-4.1-9.9-4.1c-3.7,0-7.4,1.5-10.1,4.3
				l-37.2,37.2c2.5-17.3,10.2-32.1,22.3-42.4c14.9-12.7,35.4-18.2,58-15.5c2.8,23.4-3,44.3-16.5,59.3
				c-11.5,12.6-27.7,20.1-46.5,21.6L375.7,117z M186.8,221.9v18.9c1.7-0.2,3.2-0.3,4.9-0.4v-13.6h222.9v37.1H263.7
				c2,1.6,4,3.3,5.8,5h149.9v-46.9H186.8z M208.2,361.2l-3.7-27.2l-7.5-56.3h-14.1v9.7h5.6l6.2,46.6v0.2l3.6,27l5.4,41.1l1.7,12.1
				c0.4,3.1,1.7,5.8,3.9,7.9c0.5-1.4,0.8-2.9,0.8-4.5V376L208.2,361.2z M274,56.1c-18-16.2-43.3-22.8-71.2-18.6l-3.5,0.6l-0.5,3.5
				c-4.3,27.2,1.9,52.1,17.4,69.9c14.5,16.7,36,25.8,60.7,25.8h1.2l11.5-0.1l-52-52.1c-1.7-1.7-1.7-4.7,0-6.3
				c1.7-1.7,4.7-1.7,6.4,0.1l54.1,54l0.6-10.8C300.2,95.4,291.4,72,274,56.1z M250.9,72c-5.4-5.5-14.4-5.6-20.1-0.2
				c-5.5,5.4-5.6,14.4-0.2,20.1l35,35c-17.1-2.3-31.7-9.8-42-21.7c-12.9-14.9-18.5-35.6-15.7-58.5c23.6-2.7,44.6,3,59.7,16.6
				c12.6,11.6,20.1,27.9,21.5,46.7L250.9,72z M278,277.7c1.5,1.6,2.7,3.2,4,4.9h32.3c1,1.7,1.8,3.2,2.6,4.9h72.3l-14.9,111h-53.2
				c-0.6,1.7-1.3,3.2-2,4.8h-30.7c-1.1,1.7-2.1,3.4-3.3,5h97.7l17.5-130.4H278z M407.5,71.4l-0.6-3.5l-3.5-0.6
				c-26.8-4.2-51.5,1.9-69.4,17.2c-17.1,14.6-26.5,36.8-26.6,62.4v11.8l54.8-54.8c0.9-0.9,1.9-1.4,3.2-1.4c1.2,0,2.3,0.5,3.2,1.3
				c1.7,1.7,1.8,4.6,0.1,6.4l-56.4,56.4l10.9,0.6c1.8,0.1,3.6,0.1,5.3,0.1c24.5,0,45.8-8.7,60.5-25
				C405.2,124.4,411.8,99.2,407.5,71.4z M375.7,117c5.4-5.6,5.3-14.7-0.3-20.1c-2.7-2.7-6.3-4.1-9.9-4.1c-3.7,0-7.4,1.5-10.1,4.3
				l-37.2,37.2c2.5-17.3,10.2-32.1,22.3-42.4c14.9-12.7,35.4-18.2,58-15.5c2.8,23.4-3,44.3-16.5,59.3
				c-11.5,12.6-27.7,20.1-46.5,21.6L375.7,117z M186.8,221.9v18.9c1.7-0.2,3.2-0.3,4.9-0.4v-13.6h222.9v37.1H263.7
				c2,1.6,4,3.3,5.8,5h149.9v-46.9H186.8z M274,56.1c-18-16.2-43.3-22.8-71.2-18.6l-3.5,0.6l-0.5,3.5c-4.3,27.2,1.9,52.1,17.4,69.9
				c14.5,16.7,36,25.8,60.7,25.8h1.2l11.5-0.1l-52-52.1c-1.7-1.7-1.7-4.7,0-6.3c1.7-1.7,4.7-1.7,6.4,0.1l54.1,54l0.6-10.8
				C300.2,95.4,291.4,72,274,56.1z M250.9,72c-5.4-5.5-14.4-5.6-20.1-0.2c-5.5,5.4-5.6,14.4-0.2,20.1l35,35
				c-17.1-2.3-31.7-9.8-42-21.7c-12.9-14.9-18.5-35.6-15.7-58.5c23.6-2.7,44.6,3,59.7,16.6c12.6,11.6,20.1,27.9,21.5,46.7L250.9,72z
				 M278,277.7c1.5,1.6,2.7,3.2,4,4.9h32.3c1,1.7,1.8,3.2,2.6,4.9h72.3l-14.9,111h-53.2c-0.6,1.7-1.3,3.2-2,4.8h-30.7
				c-1.1,1.7-2.1,3.4-3.3,5h97.7l17.5-130.4H278z M407.5,71.4l-0.6-3.5l-3.5-0.6c-26.8-4.2-51.5,1.9-69.4,17.2
				c-17.1,14.6-26.5,36.8-26.6,62.4v11.8l54.8-54.8c0.9-0.9,1.9-1.4,3.2-1.4c1.2,0,2.3,0.5,3.2,1.3c1.7,1.7,1.8,4.6,0.1,6.4
				l-56.4,56.4l10.9,0.6c1.8,0.1,3.6,0.1,5.3,0.1c24.5,0,45.8-8.7,60.5-25C405.2,124.4,411.8,99.2,407.5,71.4z M375.7,117
				c5.4-5.6,5.3-14.7-0.3-20.1c-2.7-2.7-6.3-4.1-9.9-4.1c-3.7,0-7.4,1.5-10.1,4.3l-37.2,37.2c2.5-17.3,10.2-32.1,22.3-42.4
				c14.9-12.7,35.4-18.2,58-15.5c2.8,23.4-3,44.3-16.5,59.3c-11.5,12.6-27.7,20.1-46.5,21.6L375.7,117z M186.8,221.9v18.9
				c1.7-0.2,3.2-0.3,4.9-0.4v-13.6h222.9v37.1H263.7c2,1.6,4,3.3,5.8,5h149.9v-46.9H186.8z M274,56.1c-18-16.2-43.3-22.8-71.2-18.6
				l-3.5,0.6l-0.5,3.5c-4.3,27.2,1.9,52.1,17.4,69.9c14.5,16.7,36,25.8,60.7,25.8h1.2l11.5-0.1l-52-52.1c-1.7-1.7-1.7-4.7,0-6.3
				c1.7-1.7,4.7-1.7,6.4,0.1l54.1,54l0.6-10.8C300.2,95.4,291.4,72,274,56.1z M250.9,72c-5.4-5.5-14.4-5.6-20.1-0.2
				c-5.5,5.4-5.6,14.4-0.2,20.1l35,35c-17.1-2.3-31.7-9.8-42-21.7c-12.9-14.9-18.5-35.6-15.7-58.5c23.6-2.7,44.6,3,59.7,16.6
				c12.6,11.6,20.1,27.9,21.5,46.7L250.9,72z M278,277.7c1.5,1.6,2.7,3.2,4,4.9h32.3c1,1.7,1.8,3.2,2.6,4.9h72.3l-14.9,111h-53.2
				c-0.6,1.7-1.3,3.2-2,4.8h-30.7c-1.1,1.7-2.1,3.4-3.3,5h97.7l17.5-130.4H278z M407.5,71.4l-0.6-3.5l-3.5-0.6
				c-26.8-4.2-51.5,1.9-69.4,17.2c-17.1,14.6-26.5,36.8-26.6,62.4v11.8l54.8-54.8c0.9-0.9,1.9-1.4,3.2-1.4c1.2,0,2.3,0.5,3.2,1.3
				c1.7,1.7,1.8,4.6,0.1,6.4l-56.4,56.4l10.9,0.6c1.8,0.1,3.6,0.1,5.3,0.1c24.5,0,45.8-8.7,60.5-25
				C405.2,124.4,411.8,99.2,407.5,71.4z M375.7,117c5.4-5.6,5.3-14.7-0.3-20.1c-2.7-2.7-6.3-4.1-9.9-4.1c-3.7,0-7.4,1.5-10.1,4.3
				l-37.2,37.2c2.5-17.3,10.2-32.1,22.3-42.4c14.9-12.7,35.4-18.2,58-15.5c2.8,23.4-3,44.3-16.5,59.3
				c-11.5,12.6-27.7,20.1-46.5,21.6L375.7,117z M186.8,221.9v18.9c1.7-0.2,3.2-0.3,4.9-0.4v-13.6h222.9v37.1H263.7
				c2,1.6,4,3.3,5.8,5h149.9v-46.9H186.8z M423.9,203.4H317.3V185c33.4,3.3,64-7.2,84.6-29.2c22.2-23.8,30.5-58.3,22.7-94.7
				c-1.2-5.4-5.4-9.7-10.9-10.9C372.3,41.5,334.9,53,311.5,81c-15.9-47.1-63.4-71.7-118.9-60.4c-5.5,1.2-9.8,5.4-10.9,11
				c-7.8,36.5,0.6,71,22.8,94.9c20.7,22.2,50.5,32.3,84.4,29v48H182.5c-7.3,0-13.4,5.5-14,12.7c-0.2,0.5-0.2,1-0.2,1.5v26.4
				c1.7-0.4,3.2-0.8,4.9-1.2c1.6-0.4,3.2-0.7,4.9-0.9v-24.4c0-1.6,0.7-2.8,1.8-3.5c0,0,0.1-0.1,0.2-0.1c0.7-0.6,1.5-0.9,2.4-0.9
				h116.2v-68.8l-5.5,0.8c-32.8,4.7-61.8-4.3-81.4-25.3c-20-21.5-27.5-52.9-20.4-86.3c0.3-1.7,1.7-3,3.3-3.4
				c53.7-11.1,99,14.7,110.2,62.7l2.5,10.9l6.2-9.2c20.3-30.4,57-43.4,98.1-34.7c1.7,0.4,3,1.7,3.4,3.4c7.1,33.2-0.3,64.5-20.3,86
				c-19.7,21.1-48.7,30.1-81.6,25.5l-5.5-0.8v39.2h116.3c2.4,0,4.4,2,4.4,4.6v55.7c0,2.4-1.9,4.4-4.4,4.4h-14.7l-18,135.5
				c-0.3,2.1-2.2,3.8-4.5,3.8H278.4c-1.5,1.7-2.9,3.3-4.4,4.9c-1.6,1.7-3.2,3.3-5,4.9h117.7c7.1,0,13.2-5.2,14.1-12.2l16.9-127h6.1
				c7.8,0,14.1-6.3,14.1-14.1v-55.7C438,209.8,431.6,203.4,423.9,203.4z M263.7,263.9c2,1.6,4,3.3,5.8,5h149.9v-46.9H186.8v18.9
				c1.7-0.2,3.2-0.3,4.9-0.4v-13.6h222.9v37.1H263.7z M312.4,166.5l10.9,0.6c1.8,0.1,3.6,0.1,5.3,0.1c24.5,0,45.8-8.7,60.5-25
				c16.1-17.9,22.7-43.1,18.5-70.8l-0.6-3.5l-3.5-0.6c-26.8-4.2-51.5,1.9-69.4,17.2c-17.1,14.6-26.5,36.8-26.6,62.4v11.8l54.8-54.8
				c0.9-0.9,1.9-1.4,3.2-1.4c1.2,0,2.3,0.5,3.2,1.3c1.7,1.7,1.8,4.6,0.1,6.4L312.4,166.5z M318.1,134.3
				c2.5-17.3,10.2-32.1,22.3-42.4c14.9-12.7,35.4-18.2,58-15.5c2.8,23.4-3,44.3-16.5,59.3c-11.5,12.6-27.7,20.1-46.5,21.6l40.2-40.3
				c5.4-5.6,5.3-14.7-0.3-20.1c-2.7-2.7-6.3-4.1-9.9-4.1c-3.7,0-7.4,1.5-10.1,4.3L318.1,134.3z M321.1,398.4c-0.6,1.7-1.3,3.2-2,4.8
				h-30.7c-1.1,1.7-2.1,3.4-3.3,5h97.7l17.5-130.4H278c1.5,1.6,2.7,3.2,4,4.9h32.3c1,1.7,1.8,3.2,2.6,4.9h72.3l-14.9,111H321.1z
				 M244,78.9l54.1,54l0.6-10.8c1.6-26.7-7.3-50.1-24.7-66c-18-16.2-43.3-22.8-71.2-18.6l-3.5,0.6l-0.5,3.5
				c-4.3,27.2,1.9,52.1,17.4,69.9c14.5,16.7,36,25.8,60.7,25.8h1.2l11.5-0.1l-52-52.1c-1.7-1.7-1.7-4.7,0-6.3
				C239.3,77,242.2,77,244,78.9z M207.8,46.7c23.6-2.7,44.6,3,59.7,16.6c12.6,11.6,20.1,27.9,21.5,46.7L250.9,72
				c-5.4-5.5-14.4-5.6-20.1-0.2c-5.5,5.4-5.6,14.4-0.2,20.1l35,35c-17.1-2.3-31.7-9.8-42-21.7C210.6,90.3,205.1,69.6,207.8,46.7z
				 M186.8,221.9v18.9c1.7-0.2,3.2-0.3,4.9-0.4v-13.6h222.9v37.1H263.7c2,1.6,4,3.3,5.8,5h149.9v-46.9H186.8z M407.5,71.4l-0.6-3.5
				l-3.5-0.6c-26.8-4.2-51.5,1.9-69.4,17.2c-17.1,14.6-26.5,36.8-26.6,62.4v11.8l54.8-54.8c0.9-0.9,1.9-1.4,3.2-1.4
				c1.2,0,2.3,0.5,3.2,1.3c1.7,1.7,1.8,4.6,0.1,6.4l-56.4,56.4l10.9,0.6c1.8,0.1,3.6,0.1,5.3,0.1c24.5,0,45.8-8.7,60.5-25
				C405.2,124.4,411.8,99.2,407.5,71.4z M375.7,117c5.4-5.6,5.3-14.7-0.3-20.1c-2.7-2.7-6.3-4.1-9.9-4.1c-3.7,0-7.4,1.5-10.1,4.3
				l-37.2,37.2c2.5-17.3,10.2-32.1,22.3-42.4c14.9-12.7,35.4-18.2,58-15.5c2.8,23.4-3,44.3-16.5,59.3
				c-11.5,12.6-27.7,20.1-46.5,21.6L375.7,117z M278,277.7c1.5,1.6,2.7,3.2,4,4.9h32.3c1,1.7,1.8,3.2,2.6,4.9h72.3l-14.9,111h-53.2
				c-0.6,1.7-1.3,3.2-2,4.8h-30.7c-1.1,1.7-2.1,3.4-3.3,5h97.7l17.5-130.4H278z M274,56.1c-18-16.2-43.3-22.8-71.2-18.6l-3.5,0.6
				l-0.5,3.5c-4.3,27.2,1.9,52.1,17.4,69.9c14.5,16.7,36,25.8,60.7,25.8h1.2l11.5-0.1l-52-52.1c-1.7-1.7-1.7-4.7,0-6.3
				c1.7-1.7,4.7-1.7,6.4,0.1l54.1,54l0.6-10.8C300.2,95.4,291.4,72,274,56.1z M250.9,72c-5.4-5.5-14.4-5.6-20.1-0.2
				c-5.5,5.4-5.6,14.4-0.2,20.1l35,35c-17.1-2.3-31.7-9.8-42-21.7c-12.9-14.9-18.5-35.6-15.7-58.5c23.6-2.7,44.6,3,59.7,16.6
				c12.6,11.6,20.1,27.9,21.5,46.7L250.9,72z M186.8,221.9v18.9c1.7-0.2,3.2-0.3,4.9-0.4v-13.6h222.9v37.1H263.7c2,1.6,4,3.3,5.8,5
				h149.9v-46.9H186.8z M407.5,71.4l-0.6-3.5l-3.5-0.6c-26.8-4.2-51.5,1.9-69.4,17.2c-17.1,14.6-26.5,36.8-26.6,62.4v11.8l54.8-54.8
				c0.9-0.9,1.9-1.4,3.2-1.4c1.2,0,2.3,0.5,3.2,1.3c1.7,1.7,1.8,4.6,0.1,6.4l-56.4,56.4l10.9,0.6c1.8,0.1,3.6,0.1,5.3,0.1
				c24.5,0,45.8-8.7,60.5-25C405.2,124.4,411.8,99.2,407.5,71.4z M375.7,117c5.4-5.6,5.3-14.7-0.3-20.1c-2.7-2.7-6.3-4.1-9.9-4.1
				c-3.7,0-7.4,1.5-10.1,4.3l-37.2,37.2c2.5-17.3,10.2-32.1,22.3-42.4c14.9-12.7,35.4-18.2,58-15.5c2.8,23.4-3,44.3-16.5,59.3
				c-11.5,12.6-27.7,20.1-46.5,21.6L375.7,117z M278,277.7c1.5,1.6,2.7,3.2,4,4.9h32.3c1,1.7,1.8,3.2,2.6,4.9h72.3l-14.9,111h-53.2
				c-0.6,1.7-1.3,3.2-2,4.8h-30.7c-1.1,1.7-2.1,3.4-3.3,5h97.7l17.5-130.4H278z M274,56.1c-18-16.2-43.3-22.8-71.2-18.6l-3.5,0.6
				l-0.5,3.5c-4.3,27.2,1.9,52.1,17.4,69.9c14.5,16.7,36,25.8,60.7,25.8h1.2l11.5-0.1l-52-52.1c-1.7-1.7-1.7-4.7,0-6.3
				c1.7-1.7,4.7-1.7,6.4,0.1l54.1,54l0.6-10.8C300.2,95.4,291.4,72,274,56.1z M250.9,72c-5.4-5.5-14.4-5.6-20.1-0.2
				c-5.5,5.4-5.6,14.4-0.2,20.1l35,35c-17.1-2.3-31.7-9.8-42-21.7c-12.9-14.9-18.5-35.6-15.7-58.5c23.6-2.7,44.6,3,59.7,16.6
				c12.6,11.6,20.1,27.9,21.5,46.7L250.9,72z M186.8,221.9v18.9c1.7-0.2,3.2-0.3,4.9-0.4v-13.6h222.9v37.1H263.7c2,1.6,4,3.3,5.8,5
				h149.9v-46.9H186.8z M407.5,71.4l-0.6-3.5l-3.5-0.6c-26.8-4.2-51.5,1.9-69.4,17.2c-17.1,14.6-26.5,36.8-26.6,62.4v11.8l54.8-54.8
				c0.9-0.9,1.9-1.4,3.2-1.4c1.2,0,2.3,0.5,3.2,1.3c1.7,1.7,1.8,4.6,0.1,6.4l-56.4,56.4l10.9,0.6c1.8,0.1,3.6,0.1,5.3,0.1
				c24.5,0,45.8-8.7,60.5-25C405.2,124.4,411.8,99.2,407.5,71.4z M375.7,117c5.4-5.6,5.3-14.7-0.3-20.1c-2.7-2.7-6.3-4.1-9.9-4.1
				c-3.7,0-7.4,1.5-10.1,4.3l-37.2,37.2c2.5-17.3,10.2-32.1,22.3-42.4c14.9-12.7,35.4-18.2,58-15.5c2.8,23.4-3,44.3-16.5,59.3
				c-11.5,12.6-27.7,20.1-46.5,21.6L375.7,117z M278,277.7c1.5,1.6,2.7,3.2,4,4.9h32.3c1,1.7,1.8,3.2,2.6,4.9h72.3l-14.9,111h-53.2
				c-0.6,1.7-1.3,3.2-2,4.8h-30.7c-1.1,1.7-2.1,3.4-3.3,5h97.7l17.5-130.4H278z M274,56.1c-18-16.2-43.3-22.8-71.2-18.6l-3.5,0.6
				l-0.5,3.5c-4.3,27.2,1.9,52.1,17.4,69.9c14.5,16.7,36,25.8,60.7,25.8h1.2l11.5-0.1l-52-52.1c-1.7-1.7-1.7-4.7,0-6.3
				c1.7-1.7,4.7-1.7,6.4,0.1l54.1,54l0.6-10.8C300.2,95.4,291.4,72,274,56.1z M250.9,72c-5.4-5.5-14.4-5.6-20.1-0.2
				c-5.5,5.4-5.6,14.4-0.2,20.1l35,35c-17.1-2.3-31.7-9.8-42-21.7c-12.9-14.9-18.5-35.6-15.7-58.5c23.6-2.7,44.6,3,59.7,16.6
				c12.6,11.6,20.1,27.9,21.5,46.7L250.9,72z M407.5,71.4l-0.6-3.5l-3.5-0.6c-26.8-4.2-51.5,1.9-69.4,17.2
				c-17.1,14.6-26.5,36.8-26.6,62.4v11.8l54.8-54.8c0.9-0.9,1.9-1.4,3.2-1.4c1.2,0,2.3,0.5,3.2,1.3c1.7,1.7,1.8,4.6,0.1,6.4
				l-56.4,56.4l10.9,0.6c1.8,0.1,3.6,0.1,5.3,0.1c24.5,0,45.8-8.7,60.5-25C405.2,124.4,411.8,99.2,407.5,71.4z M375.7,117
				c5.4-5.6,5.3-14.7-0.3-20.1c-2.7-2.7-6.3-4.1-9.9-4.1c-3.7,0-7.4,1.5-10.1,4.3l-37.2,37.2c2.5-17.3,10.2-32.1,22.3-42.4
				c14.9-12.7,35.4-18.2,58-15.5c2.8,23.4-3,44.3-16.5,59.3c-11.5,12.6-27.7,20.1-46.5,21.6L375.7,117z M278,277.7
				c1.5,1.6,2.7,3.2,4,4.9h32.3c1,1.7,1.8,3.2,2.6,4.9h72.3l-14.9,111h-53.2c-0.6,1.7-1.3,3.2-2,4.8h-30.7c-1.1,1.7-2.1,3.4-3.3,5
				h97.7l17.5-130.4H278z M186.8,221.9v18.9c1.7-0.2,3.2-0.3,4.9-0.4c1.7-0.1,3.3-0.1,4.9-0.1v-8.6h213.1v27.5H258.4
				c0.7,1,1.6,1.7,2.5,2.5c1,0.7,1.8,1.5,2.8,2.2c2,1.6,4,3.3,5.8,5h149.9v-46.9H186.8z M197.4,263.9c-0.3-0.1-0.6-0.1-0.9-0.1
				c-0.3,0-0.6,0-0.9,0.1c-3.5,0.2-6.5,1.7-8.8,4v1H207C204.8,266,201.4,264.1,197.4,263.9z M274,56.1c-18-16.2-43.3-22.8-71.2-18.6
				l-3.5,0.6l-0.5,3.5c-4.3,27.2,1.9,52.1,17.4,69.9c14.5,16.7,36,25.8,60.7,25.8h1.2l11.5-0.1l-52-52.1c-1.7-1.7-1.7-4.7,0-6.3
				c1.7-1.7,4.7-1.7,6.4,0.1l54.1,54l0.6-10.8C300.2,95.4,291.4,72,274,56.1z M250.9,72c-5.4-5.5-14.4-5.6-20.1-0.2
				c-5.5,5.4-5.6,14.4-0.2,20.1l35,35c-17.1-2.3-31.7-9.8-42-21.7c-12.9-14.9-18.5-35.6-15.7-58.5c23.6-2.7,44.6,3,59.7,16.6
				c12.6,11.6,20.1,27.9,21.5,46.7L250.9,72z M206.1,277.7l4.1,30.6v-30.6H206.1z M407.5,71.4l-0.6-3.5l-3.5-0.6
				c-26.8-4.2-51.5,1.9-69.4,17.2c-17.1,14.6-26.5,36.8-26.6,62.4v11.8l54.8-54.8c0.9-0.9,1.9-1.4,3.2-1.4c1.2,0,2.3,0.5,3.2,1.3
				c1.7,1.7,1.8,4.6,0.1,6.4l-56.4,56.4l10.9,0.6c1.8,0.1,3.6,0.1,5.3,0.1c24.5,0,45.8-8.7,60.5-25
				C405.2,124.4,411.8,99.2,407.5,71.4z M375.7,117c5.4-5.6,5.3-14.7-0.3-20.1c-2.7-2.7-6.3-4.1-9.9-4.1c-3.7,0-7.4,1.5-10.1,4.3
				l-37.2,37.2c2.5-17.3,10.2-32.1,22.3-42.4c14.9-12.7,35.4-18.2,58-15.5c2.8,23.4-3,44.3-16.5,59.3
				c-11.5,12.6-27.7,20.1-46.5,21.6L375.7,117z M278,277.7c1.5,1.6,2.7,3.2,4,4.9h32.3c1,1.7,1.8,3.2,2.6,4.9h72.3l-14.9,111h-53.2
				c-0.6,1.7-1.3,3.2-2,4.8h-30.7c-1.1,1.7-2.1,3.4-3.3,5h97.7l17.5-130.4H278z M186.8,221.9v18.9c1.7-0.2,3.2-0.3,4.9-0.4
				c1.7-0.1,3.3-0.1,4.9-0.1v-8.6h213.1v27.5H258.4c0.7,1,1.6,1.7,2.5,2.5c1,0.7,1.8,1.5,2.8,2.2c2,1.6,4,3.3,5.8,5h149.9v-46.9
				H186.8z M197.4,263.9c-0.3-0.1-0.6-0.1-0.9-0.1c-0.3,0-0.6,0-0.9,0.1c-3.5,0.2-6.5,1.7-8.8,4v1H207
				C204.8,266,201.4,264.1,197.4,263.9z M274,56.1c-18-16.2-43.3-22.8-71.2-18.6l-3.5,0.6l-0.5,3.5c-4.3,27.2,1.9,52.1,17.4,69.9
				c14.5,16.7,36,25.8,60.7,25.8h1.2l11.5-0.1l-52-52.1c-1.7-1.7-1.7-4.7,0-6.3c1.7-1.7,4.7-1.7,6.4,0.1l54.1,54l0.6-10.8
				C300.2,95.4,291.4,72,274,56.1z M250.9,72c-5.4-5.5-14.4-5.6-20.1-0.2c-5.5,5.4-5.6,14.4-0.2,20.1l35,35
				c-17.1-2.3-31.7-9.8-42-21.7c-12.9-14.9-18.5-35.6-15.7-58.5c23.6-2.7,44.6,3,59.7,16.6c12.6,11.6,20.1,27.9,21.5,46.7L250.9,72z
				 M407.5,71.4l-0.6-3.5l-3.5-0.6c-26.8-4.2-51.5,1.9-69.4,17.2c-17.1,14.6-26.5,36.8-26.6,62.4v11.8l54.8-54.8
				c0.9-0.9,1.9-1.4,3.2-1.4c1.2,0,2.3,0.5,3.2,1.3c1.7,1.7,1.8,4.6,0.1,6.4l-56.4,56.4l10.9,0.6c1.8,0.1,3.6,0.1,5.3,0.1
				c24.5,0,45.8-8.7,60.5-25C405.2,124.4,411.8,99.2,407.5,71.4z M375.7,117c5.4-5.6,5.3-14.7-0.3-20.1c-2.7-2.7-6.3-4.1-9.9-4.1
				c-3.7,0-7.4,1.5-10.1,4.3l-37.2,37.2c2.5-17.3,10.2-32.1,22.3-42.4c14.9-12.7,35.4-18.2,58-15.5c2.8,23.4-3,44.3-16.5,59.3
				c-11.5,12.6-27.7,20.1-46.5,21.6L375.7,117z M278,277.7c1.5,1.6,2.7,3.2,4,4.9h32.3c1,1.7,1.8,3.2,2.6,4.9h72.3l-14.9,111h-53.2
				c-0.6,1.7-1.3,3.2-2,4.8h-30.7c-1.1,1.7-2.1,3.4-3.3,5h97.7l17.5-130.4H278z M274,56.1c-18-16.2-43.3-22.8-71.2-18.6l-3.5,0.6
				l-0.5,3.5c-4.3,27.2,1.9,52.1,17.4,69.9c14.5,16.7,36,25.8,60.7,25.8h1.2l11.5-0.1l-52-52.1c-1.7-1.7-1.7-4.7,0-6.3
				c1.7-1.7,4.7-1.7,6.4,0.1l54.1,54l0.6-10.8C300.2,95.4,291.4,72,274,56.1z M250.9,72c-5.4-5.5-14.4-5.6-20.1-0.2
				c-5.5,5.4-5.6,14.4-0.2,20.1l35,35c-17.1-2.3-31.7-9.8-42-21.7c-12.9-14.9-18.5-35.6-15.7-58.5c23.6-2.7,44.6,3,59.7,16.6
				c12.6,11.6,20.1,27.9,21.5,46.7L250.9,72z M186.8,221.9v18.9c1.7-0.2,3.2-0.3,4.9-0.4c1.7-0.1,3.3-0.1,4.9-0.1v-8.6h213.1v27.5
				H258.4c0.7,1,1.6,1.7,2.5,2.5c1,0.7,1.8,1.5,2.8,2.2c2,1.6,4,3.3,5.8,5h149.9v-46.9H186.8z M197.4,263.9
				c-0.3-0.1-0.6-0.1-0.9-0.1c-0.3,0-0.6,0-0.9,0.1c-3.5,0.2-6.5,1.7-8.8,4v1H207C204.8,266,201.4,264.1,197.4,263.9z M407.5,71.4
				l-0.6-3.5l-3.5-0.6c-26.8-4.2-51.5,1.9-69.4,17.2c-17.1,14.6-26.5,36.8-26.6,62.4v11.8l54.8-54.8c0.9-0.9,1.9-1.4,3.2-1.4
				c1.2,0,2.3,0.5,3.2,1.3c1.7,1.7,1.8,4.6,0.1,6.4l-56.4,56.4l10.9,0.6c1.8,0.1,3.6,0.1,5.3,0.1c24.5,0,45.8-8.7,60.5-25
				C405.2,124.4,411.8,99.2,407.5,71.4z M375.7,117c5.4-5.6,5.3-14.7-0.3-20.1c-2.7-2.7-6.3-4.1-9.9-4.1c-3.7,0-7.4,1.5-10.1,4.3
				l-37.2,37.2c2.5-17.3,10.2-32.1,22.3-42.4c14.9-12.7,35.4-18.2,58-15.5c2.8,23.4-3,44.3-16.5,59.3
				c-11.5,12.6-27.7,20.1-46.5,21.6L375.7,117z M278,277.7c1.5,1.6,2.7,3.2,4,4.9h32.3c1,1.7,1.8,3.2,2.6,4.9h72.3l-14.9,111h-53.2
				c-0.6,1.7-1.3,3.2-2,4.8h-30.7c-1.1,1.7-2.1,3.4-3.3,5h97.7l17.5-130.4H278z M274,56.1c-18-16.2-43.3-22.8-71.2-18.6l-3.5,0.6
				l-0.5,3.5c-4.3,27.2,1.9,52.1,17.4,69.9c14.5,16.7,36,25.8,60.7,25.8h1.2l11.5-0.1l-52-52.1c-1.7-1.7-1.7-4.7,0-6.3
				c1.7-1.7,4.7-1.7,6.4,0.1l54.1,54l0.6-10.8C300.2,95.4,291.4,72,274,56.1z M250.9,72c-5.4-5.5-14.4-5.6-20.1-0.2
				c-5.5,5.4-5.6,14.4-0.2,20.1l35,35c-17.1-2.3-31.7-9.8-42-21.7c-12.9-14.9-18.5-35.6-15.7-58.5c23.6-2.7,44.6,3,59.7,16.6
				c12.6,11.6,20.1,27.9,21.5,46.7L250.9,72z M186.8,221.9v18.9c1.7-0.2,3.2-0.3,4.9-0.4c1.7-0.1,3.3-0.1,4.9-0.1v-8.6h213.1v27.5
				H258.4c0.7,1,1.6,1.7,2.5,2.5c1,0.7,1.8,1.5,2.8,2.2c2,1.6,4,3.3,5.8,5h149.9v-46.9H186.8z M197.4,263.9
				c-0.3-0.1-0.6-0.1-0.9-0.1c-0.3,0-0.6,0-0.9,0.1c-3.5,0.2-6.5,1.7-8.8,4v1H207C204.8,266,201.4,264.1,197.4,263.9z M407.5,71.4
				l-0.6-3.5l-3.5-0.6c-26.8-4.2-51.5,1.9-69.4,17.2c-17.1,14.6-26.5,36.8-26.6,62.4v11.8l54.8-54.8c0.9-0.9,1.9-1.4,3.2-1.4
				c1.2,0,2.3,0.5,3.2,1.3c1.7,1.7,1.8,4.6,0.1,6.4l-56.4,56.4l10.9,0.6c1.8,0.1,3.6,0.1,5.3,0.1c24.5,0,45.8-8.7,60.5-25
				C405.2,124.4,411.8,99.2,407.5,71.4z M375.7,117c5.4-5.6,5.3-14.7-0.3-20.1c-2.7-2.7-6.3-4.1-9.9-4.1c-3.7,0-7.4,1.5-10.1,4.3
				l-37.2,37.2c2.5-17.3,10.2-32.1,22.3-42.4c14.9-12.7,35.4-18.2,58-15.5c2.8,23.4-3,44.3-16.5,59.3
				c-11.5,12.6-27.7,20.1-46.5,21.6L375.7,117z M274,56.1c-18-16.2-43.3-22.8-71.2-18.6l-3.5,0.6l-0.5,3.5
				c-4.3,27.2,1.9,52.1,17.4,69.9c14.5,16.7,36,25.8,60.7,25.8h1.2l11.5-0.1l-52-52.1c-1.7-1.7-1.7-4.7,0-6.3
				c1.7-1.7,4.7-1.7,6.4,0.1l54.1,54l0.6-10.8C300.2,95.4,291.4,72,274,56.1z M250.9,72c-5.4-5.5-14.4-5.6-20.1-0.2
				c-5.5,5.4-5.6,14.4-0.2,20.1l35,35c-17.1-2.3-31.7-9.8-42-21.7c-12.9-14.9-18.5-35.6-15.7-58.5c23.6-2.7,44.6,3,59.7,16.6
				c12.6,11.6,20.1,27.9,21.5,46.7L250.9,72z M206.1,277.7l4.1,30.6v-30.6H206.1z M278,277.7c1.5,1.6,2.7,3.2,4,4.9
				c1.3,1.6,2.4,3.2,3.5,4.9h103.7l-14.9,111h-53.2c-0.6,1.7-1.3,3.2-2,4.8h-30.7c-1.1,1.7-2.1,3.4-3.3,5h97.7l17.5-130.4H278z
				 M186.8,221.9v18.9c1.7-0.2,3.2-0.3,4.9-0.4c1.7-0.1,3.3-0.1,4.9-0.1v-8.6h213.1v27.5H258.4c0.7,1,1.6,1.7,2.5,2.5
				c1,0.7,1.8,1.5,2.8,2.2c2,1.6,4,3.3,5.8,5h149.9v-46.9H186.8z M197.4,263.9c-0.3-0.1-0.6-0.1-0.9-0.1c-0.3,0-0.6,0-0.9,0.1
				c-3.5,0.2-6.5,1.7-8.8,4v1H207C204.8,266,201.4,264.1,197.4,263.9z M407.5,71.4l-0.6-3.5l-3.5-0.6c-26.8-4.2-51.5,1.9-69.4,17.2
				c-17.1,14.6-26.5,36.8-26.6,62.4v11.8l54.8-54.8c0.9-0.9,1.9-1.4,3.2-1.4c1.2,0,2.3,0.5,3.2,1.3c1.7,1.7,1.8,4.6,0.1,6.4
				l-56.4,56.4l10.9,0.6c1.8,0.1,3.6,0.1,5.3,0.1c24.5,0,45.8-8.7,60.5-25C405.2,124.4,411.8,99.2,407.5,71.4z M375.7,117
				c5.4-5.6,5.3-14.7-0.3-20.1c-2.7-2.7-6.3-4.1-9.9-4.1c-3.7,0-7.4,1.5-10.1,4.3l-37.2,37.2c2.5-17.3,10.2-32.1,22.3-42.4
				c14.9-12.7,35.4-18.2,58-15.5c2.8,23.4-3,44.3-16.5,59.3c-11.5,12.6-27.7,20.1-46.5,21.6L375.7,117z M274,56.1
				c-18-16.2-43.3-22.8-71.2-18.6l-3.5,0.6l-0.5,3.5c-4.3,27.2,1.9,52.1,17.4,69.9c14.5,16.7,36,25.8,60.7,25.8h1.2l11.5-0.1
				l-52-52.1c-1.7-1.7-1.7-4.7,0-6.3c1.7-1.7,4.7-1.7,6.4,0.1l54.1,54l0.6-10.8C300.2,95.4,291.4,72,274,56.1z M250.9,72
				c-5.4-5.5-14.4-5.6-20.1-0.2c-5.5,5.4-5.6,14.4-0.2,20.1l35,35c-17.1-2.3-31.7-9.8-42-21.7c-12.9-14.9-18.5-35.6-15.7-58.5
				c23.6-2.7,44.6,3,59.7,16.6c12.6,11.6,20.1,27.9,21.5,46.7L250.9,72z M206.1,277.7l4.1,30.6v-30.6H206.1z M218.5,334h-5l0.1,0.8
				c2,0.6,3.9,1.7,5.3,3.2L218.5,334z M278,277.7c1.5,1.6,2.7,3.2,4,4.9c1.3,1.6,2.4,3.2,3.5,4.9h103.7l-14.9,111H291
				c-0.8,1.7-1.7,3.2-2.6,4.8c-1.1,1.7-2.1,3.4-3.3,5h97.7l17.5-130.4H278z M186.8,221.9v18.9c1.7-0.2,3.2-0.3,4.9-0.4
				c1.7-0.1,3.3-0.1,4.9-0.1v-8.6h213.1v27.5H258.4c0.7,1,1.6,1.7,2.5,2.5c1,0.7,1.8,1.5,2.8,2.2c2,1.6,4,3.3,5.8,5h149.9v-46.9
				H186.8z M197.4,263.9c-0.3-0.1-0.6-0.1-0.9-0.1c-0.3,0-0.6,0-0.9,0.1c-3.5,0.2-6.5,1.7-8.8,4v1H207
				C204.8,266,201.4,264.1,197.4,263.9z M274,56.1c-18-16.2-43.3-22.8-71.2-18.6l-3.5,0.6l-0.5,3.5c-4.3,27.2,1.9,52.1,17.4,69.9
				c14.5,16.7,36,25.8,60.7,25.8h1.2l11.5-0.1l-52-52.1c-1.7-1.7-1.7-4.7,0-6.3c1.7-1.7,4.7-1.7,6.4,0.1l54.1,54l0.6-10.8
				C300.2,95.4,291.4,72,274,56.1z M250.9,72c-5.4-5.5-14.4-5.6-20.1-0.2c-5.5,5.4-5.6,14.4-0.2,20.1l35,35
				c-17.1-2.3-31.7-9.8-42-21.7c-12.9-14.9-18.5-35.6-15.7-58.5c23.6-2.7,44.6,3,59.7,16.6c12.6,11.6,20.1,27.9,21.5,46.7L250.9,72z
				 M407.5,71.4l-0.6-3.5l-3.5-0.6c-26.8-4.2-51.5,1.9-69.4,17.2c-17.1,14.6-26.5,36.8-26.6,62.4v11.8l54.8-54.8
				c0.9-0.9,1.9-1.4,3.2-1.4c1.2,0,2.3,0.5,3.2,1.3c1.7,1.7,1.8,4.6,0.1,6.4l-56.4,56.4l10.9,0.6c1.8,0.1,3.6,0.1,5.3,0.1
				c24.5,0,45.8-8.7,60.5-25C405.2,124.4,411.8,99.2,407.5,71.4z M375.7,117c5.4-5.6,5.3-14.7-0.3-20.1c-2.7-2.7-6.3-4.1-9.9-4.1
				c-3.7,0-7.4,1.5-10.1,4.3l-37.2,37.2c2.5-17.3,10.2-32.1,22.3-42.4c14.9-12.7,35.4-18.2,58-15.5c2.8,23.4-3,44.3-16.5,59.3
				c-11.5,12.6-27.7,20.1-46.5,21.6L375.7,117z M186.8,221.9v18.9c1.7-0.2,3.2-0.3,4.9-0.4c1.7-0.1,3.3-0.1,4.9-0.1v-8.6h213.1v27.5
				H258.4c0.7,1,1.6,1.7,2.5,2.5c1,0.7,1.8,1.5,2.8,2.2c2,1.6,4,3.3,5.8,5h149.9v-46.9H186.8z M197.4,263.9
				c-0.3-0.1-0.6-0.1-0.9-0.1c-0.3,0-0.6,0-0.9,0.1c-3.5,0.2-6.5,1.7-8.8,4v1H207C204.8,266,201.4,264.1,197.4,263.9z M407.5,71.4
				l-0.6-3.5l-3.5-0.6c-26.8-4.2-51.5,1.9-69.4,17.2c-17.1,14.6-26.5,36.8-26.6,62.4v11.8l54.8-54.8c0.9-0.9,1.9-1.4,3.2-1.4
				c1.2,0,2.3,0.5,3.2,1.3c1.7,1.7,1.8,4.6,0.1,6.4l-56.4,56.4l10.9,0.6c1.8,0.1,3.6,0.1,5.3,0.1c24.5,0,45.8-8.7,60.5-25
				C405.2,124.4,411.8,99.2,407.5,71.4z M375.7,117c5.4-5.6,5.3-14.7-0.3-20.1c-2.7-2.7-6.3-4.1-9.9-4.1c-3.7,0-7.4,1.5-10.1,4.3
				l-37.2,37.2c2.5-17.3,10.2-32.1,22.3-42.4c14.9-12.7,35.4-18.2,58-15.5c2.8,23.4-3,44.3-16.5,59.3
				c-11.5,12.6-27.7,20.1-46.5,21.6L375.7,117z M274,56.1c-18-16.2-43.3-22.8-71.2-18.6l-3.5,0.6l-0.5,3.5
				c-4.3,27.2,1.9,52.1,17.4,69.9c14.5,16.7,36,25.8,60.7,25.8h1.2l11.5-0.1l-52-52.1c-1.7-1.7-1.7-4.7,0-6.3
				c1.7-1.7,4.7-1.7,6.4,0.1l54.1,54l0.6-10.8C300.2,95.4,291.4,72,274,56.1z M250.9,72c-5.4-5.5-14.4-5.6-20.1-0.2
				c-5.5,5.4-5.6,14.4-0.2,20.1l35,35c-17.1-2.3-31.7-9.8-42-21.7c-12.9-14.9-18.5-35.6-15.7-58.5c23.6-2.7,44.6,3,59.7,16.6
				c12.6,11.6,20.1,27.9,21.5,46.7L250.9,72z M186.8,221.9v18.9c1.7-0.2,3.2-0.3,4.9-0.4c1.7-0.1,3.3-0.1,4.9-0.1v-8.6h213.1v27.5
				H258.4c0.7,1,1.6,1.7,2.5,2.5c1,0.7,1.8,1.5,2.8,2.2c2,1.6,4,3.3,5.8,5h149.9v-46.9H186.8z M197.4,263.9
				c-0.3-0.1-0.6-0.1-0.9-0.1c-0.3,0-0.6,0-0.9,0.1c-3.5,0.2-6.5,1.7-8.8,4v1H207C204.8,266,201.4,264.1,197.4,263.9z M206.1,277.7
				l4.1,30.6v-30.6H206.1z M278,277.7c1.5,1.6,2.7,3.2,4,4.9c1.3,1.6,2.4,3.2,3.5,4.9h103.7l-14.9,111H291c-0.8,1.7-1.7,3.2-2.6,4.8
				c-1.1,1.7-2.1,3.4-3.3,5h97.7l17.5-130.4H278z M206.1,277.7l4.1,30.6v-30.6H206.1z M278,277.7c1.5,1.6,2.7,3.2,4,4.9
				c1.3,1.6,2.4,3.2,3.5,4.9h103.7l-14.9,111H291c-0.8,1.7-1.7,3.2-2.6,4.8c-1.1,1.7-2.1,3.4-3.3,5h97.7l17.5-130.4H278z
				 M206.1,277.7l4.1,30.6v-30.6H206.1z M278,277.7c1.5,1.6,2.7,3.2,4,4.9c1.3,1.6,2.4,3.2,3.5,4.9h103.7l-14.9,111H291
				c-0.8,1.7-1.7,3.2-2.6,4.8c-1.1,1.7-2.1,3.4-3.3,5h97.7l17.5-130.4H278z M206.1,277.7l4.1,30.6v-30.6H206.1z M278,277.7
				c1.5,1.6,2.7,3.2,4,4.9c1.3,1.6,2.4,3.2,3.5,4.9h103.7l-14.9,111H291c-0.8,1.7-1.7,3.2-2.6,4.8c-1.1,1.7-2.1,3.4-3.3,5h97.7
				l17.5-130.4H278z M206.1,277.7l4.1,30.6v-30.6H206.1z M278,277.7c1.5,1.6,2.7,3.2,4,4.9c1.3,1.6,2.4,3.2,3.5,4.9h103.7l-14.9,111
				H291c-0.8,1.7-1.7,3.2-2.6,4.8c-1.1,1.7-2.1,3.4-3.3,5h97.7l17.5-130.4H278z"/>
		</g>
	</g>
	<g>
		<g>
			<g>
				<path class="st0" d="M210.2,277.4v140.3c0,1.6-0.3,3.1-0.8,4.5c-1.8,5.3-6.8,9.1-12.8,9.1c-7.5,0-13.6-6-13.6-13.6V277.4
					c0-3.7,1.5-7.1,3.9-9.5c2.3-2.3,5.3-3.8,8.8-4c0.3-0.1,0.6-0.1,0.9-0.1c0.3,0,0.6,0,0.9,0.1c4,0.2,7.4,2,9.6,5
					C209,271.2,210.2,274.2,210.2,277.4z"/>
			</g>
			<g>
				<path class="st0" d="M280.3,347.6c0,7.6-6,13.6-13.6,13.6H126.4c-7.5,0-13.6-6-13.6-13.6c0-7.5,6.1-13.6,13.6-13.6h140.3
					C274.3,334,280.3,340.1,280.3,347.6z"/>
			</g>
		</g>
		<g>
			<path class="st0" d="M331.2,347.6c0,18-3.5,35.2-10,50.8c-0.6,1.7-1.3,3.2-2,4.8c-0.8,1.7-1.6,3.3-2.4,5c-1.5,3-3.1,6-4.9,8.8
				c-1,1.7-1.9,3.3-3.1,4.9c-1.1,1.7-2.1,3.3-3.3,4.9c-24.5,33.5-64.1,55.4-108.8,55.4c-69,0-126.5-51.7-133.8-120.1
				c-0.5-4.3-0.8-9-0.8-14.4c0-5.3,0.3-10,0.8-14.5c2.3-21.5,9.9-42.4,22-60.3c7.4-11,16.2-20.8,26.3-29.2
				c10.1-8.4,21.3-15.1,33.2-20.1c7.8-3.2,15.8-5.7,24.1-7.4c1.7-0.4,3.3-0.7,5.1-1c0.5-0.1,1.1-0.2,1.6-0.3
				c0.3-0.1,0.5-0.1,0.7-0.2c0.6-0.2,1.2-0.3,1.8-0.4c0.8-0.1,1.5-0.2,2.2-0.2c0,0,0.1-0.1,0.2-0.1c4.3-0.6,8.7-0.9,13.1-0.9h9.1
				c14.2,0.7,28.4,3.4,41.7,8.5c0.2,0.1,0.5,0.2,0.7,0.3c2.4,1.1,4.5,2.8,5.9,4.9c0.9,1.5,1.6,3.1,1.9,4.9c0.5,2.4,0.4,5.1-0.6,7.5
				c-2.6,7-10.5,10.7-17.5,8c-12.1-4.6-25.1-6.8-37.9-6.8c-1.6,0-3.2,0-4.9,0.1c-1.7,0.1-3.2,0.2-4.9,0.4c-1.5,0-2.9,0.2-4.4,0.4
				c-0.4,0.1-0.9,0.2-1.3,0.3c-0.4,0.1-0.8,0.2-1.2,0.2c-0.7,0.1-1.4,0.2-2,0.4c-1.7,0.2-3.3,0.5-4.9,0.9c-1.7,0.4-3.2,0.8-4.9,1.2
				c-4.6,1.3-9,2.8-13.3,4.7c-9.6,4-18.5,9.3-26.5,15.9s-15.2,14.5-21.1,23.3c-9.7,14.4-15.6,30.6-17.5,48.2
				c-0.4,3.5-0.6,7.2-0.6,11.4c0,4.2,0.2,8,0.6,11.3c5.8,54.8,51.8,96,106.8,96c27.8,0,53.3-10.7,72.4-28.2c1.7-1.6,3.4-3.1,5-4.9
				c1.5-1.6,2.9-3.2,4.4-4.9c2.4-2.8,4.7-5.7,6.7-8.8c1.2-1.6,2.2-3.3,3.3-5c0.9-1.6,1.8-3.1,2.6-4.8c8.3-15.1,12.9-32.5,12.9-50.8
				c0-22-6.5-42.7-18.5-60.2c-1.1-1.7-2.2-3.3-3.5-4.9c-1.3-1.7-2.5-3.3-4-4.9c-2.6-3.1-5.4-6-8.5-8.8c-1.8-1.7-3.8-3.4-5.8-5
				c-1-0.8-1.8-1.6-2.8-2.2c-1-0.8-1.8-1.6-2.5-2.5c-3.8-4.7-4-11.5-0.2-16.5c4.5-6,13-7.3,19-2.7c7.6,5.7,14.5,12.1,20.6,19.2
				c1.4,1.6,2.7,3.1,3.9,4.8c1.5,1.7,2.6,3.2,3.8,5c2.1,2.8,4.2,5.8,5.9,8.8c1.1,1.7,1.9,3.2,2.8,4.9c1,1.7,1.8,3.2,2.6,4.9
				C326.1,305.9,331.2,326.5,331.2,347.6z"/>
		</g>
		<g>
			<path class="st0" d="M223,347.6c0,2.4-0.7,4.8-1.7,6.7c-1.1,1.9-2.5,3.5-4.4,4.7c-1.9,1.3-4.2,2.1-6.7,2.2v29.6
				c0,2.6-0.7,5.1-2,7.1c-1,1.7-2.5,3.3-4.3,4.4c-2.1,1.4-4.6,2.1-7.3,2.1c-7.5,0-13.6-6-13.6-13.6v-43.2c0-6.9,5.2-12.6,11.9-13.4
				c0.6-0.2,1.2-0.2,1.7-0.2h12.8c0.3,0,0.6,0,0.8,0.1c1.3,0,2.4,0.2,3.5,0.7c2,0.6,3.9,1.7,5.3,3.2
				C221.5,340.4,223,343.9,223,347.6z"/>
		</g>
	</g>
</g>
</svg>
