<?xml version="1.0" encoding="utf-8"?>
<!-- Generator: Adobe Illustrator 23.1.1, SVG Export Plug-In . SVG Version: 6.00 Build 0)  -->
<svg version="1.1" id="Layer_1" xmlns="http://www.w3.org/2000/svg" xmlns:xlink="http://www.w3.org/1999/xlink" x="0px" y="0px"
	 viewBox="0 0 500 500" style="enable-background:new 0 0 500 500;" xml:space="preserve">
<style type="text/css">
	.st0{fill:#34A17E;}
</style>
<g>
	<g>
		<g>
			<path class="st0" d="M439.2,68.3c-0.9-4.2-4.2-7.7-8.5-8.5c-47.1-10.1-94.7,2.7-121.8,43.3C295.6,46,241.1,10.5,172.1,24.8
				c-4.2,0.9-7.7,4.2-8.6,8.5c-17.7,84.1,40,151.1,127,138.7v24l21.9,11c33.3,4.7,62.3-2.3,84.5-17.4
				C432.4,165.2,450.2,120,439.2,68.3z M235.6,83.8c-4.3-4.5-11.3-4.5-15.7-0.2c-4.5,4.3-4.5,11.3-0.2,15.7l52,52
				c-60.5,0.7-97.4-45.9-88-106.4c63.7-9.9,110.2,31.4,106.7,93.8L235.6,83.8z M325.5,186.5l57.5-57.6c4.2-4.3,4.1-11.3-0.2-15.7
				c-4.3-4.2-11.4-4.1-15.7,0.2l-54.9,54.9c0.1-60.7,46.3-97.7,106.9-88.3C428.8,143.6,387.7,189.7,325.5,186.5z M444,189.6H312.4
				l-21.9,0.1H158.7c-6.1,0-11,4.9-11,11v12.6c7.3,0,14.6,0.7,21.9,1.8v-3.5H433v43.9H252.9c1,2.3,2.6,4.2,4.8,5.8
				c6.5,4.9,12.5,10.3,17.7,16.1h134.3L390.5,420H282.8c-4,7.9-8.9,15.3-14.5,22.1h131.9c5.6,0,10.3-4.1,11-9.6l20.6-155H444
				c6.1,0,11-4.9,11-11v-65.8C455,194.6,450.1,189.6,444,189.6z"/>
			<path class="st0" d="M400.2,443.5h-135l2-2.4c5.6-6.8,10.4-14.1,14.3-21.8l0.4-0.8h107.3L408,278.8H274.7l-0.4-0.5
				c-5.1-5.6-11-11-17.5-15.9c-2.4-1.8-4.1-3.9-5.2-6.4l-0.9-2.1h181V213H171.1v3.8l-1.7-0.3c-7.8-1.2-14.9-1.8-21.7-1.8h-1.5v-14.1
				c0-6.9,5.6-12.4,12.4-12.4H289v-14.6c-40.6,5.3-76.4-6.1-100.9-32.4c-25.3-27.1-34.8-66.6-26-108.4c1-4.8,4.8-8.5,9.7-9.6
				C238,9.6,294.2,40.9,309.6,99.6c26-36.6,71.2-52,121.5-41.2c4.7,0.9,8.5,4.7,9.6,9.6l0,0c10.3,48.5-4.7,94.1-39.3,120.1H444
				c6.9,0,12.4,5.6,12.4,12.6v65.8c0,6.9-5.6,12.5-12.4,12.5h-11l-20.4,153.7C411.8,438.8,406.5,443.5,400.2,443.5z M271.4,440.5
				h128.8c4.8,0,8.9-3.6,9.5-8.3L430.4,276H444c5.2,0,9.5-4.3,9.5-9.5v-65.8c0-5.3-4.3-9.6-9.5-9.6h-46.7
				c-23.6,15.9-53,21.9-85.1,17.3l-0.5-0.1L289,196.9v-5.7H158.7c-5.2,0-9.5,4.3-9.5,9.5v11.1c6,0.1,12.3,0.6,19,1.6V210h266.4v46.8
				H255.4c0.8,1.2,1.9,2.2,3.1,3.2c6.5,4.9,12.4,10.2,17.5,15.8h135.3l-0.2,1.7l-19.4,143.9h-108
				C280.2,428.1,276.1,434.5,271.4,440.5z M312.8,205.5c29.6,4.2,56.8-0.9,79-14.5l-99.9,0.1v3.9L312.8,205.5z M291.9,170.3v17.9
				l37.8-0.1c-1.4,0-2.8-0.1-4.3-0.1l-3.3-0.2l2.3-2.3l57.5-57.6c3.6-3.7,3.5-9.8-0.2-13.6c-1.8-1.7-4.1-2.7-6.7-2.7h-0.1
				c-2.6,0-5,1.1-6.8,2.9l-57.4,57.4v-3.6c0.1-29,10.7-54,30-70.5c20.1-17.2,48-24.1,78.6-19.3l1.1,0.2l0.2,1.1
				c4.8,31.6-2.6,60.1-20.8,80.2c-16.2,17.8-39.5,27.7-66.4,28.1h63c35.9-24.9,51.8-70.6,41.4-119.5c-0.8-3.7-3.7-6.6-7.3-7.3
				c-50.4-10.8-95.3,5.2-120.3,42.7l-1.9,2.8l-0.8-3.3c-13.8-59.1-69.4-90.9-135.2-77.3c-3.7,0.8-6.6,3.7-7.4,7.3
				c-8.6,40.8,0.6,79.4,25.3,105.7c24.2,25.9,59.7,37,100.1,31.2L291.9,170.3z M329,185.1c28,0.5,52.2-8.9,68.6-27.1
				c17.4-19.3,24.6-46.5,20.3-76.8c-29.3-4.3-56,2.4-75.1,18.8c-17.8,15.2-28,38.1-28.9,64.6l52.3-52.3c2.3-2.4,5.5-3.7,8.8-3.8
				c3.5-0.1,6.5,1.2,8.9,3.5c4.9,4.9,5,12.8,0.3,17.7L329,185.1z M270.4,152.7c-28,0-52.3-10.3-68.5-29
				c-17.5-20.1-24.4-48.2-19.7-79.1l0.2-1.1l1.1-0.2c31.6-4.9,60.2,2.5,80.5,20.8c19.7,17.8,29.6,44.3,28,74.6l-0.2,3.3l-57.2-57.2
				c-3.7-3.8-9.8-3.9-13.6-0.2c-1.9,1.8-2.9,4.2-2.9,6.8c0,2.5,0.9,5,2.7,6.8l54.5,54.5h-3.5C271.3,152.7,270.8,152.7,270.4,152.7z
				 M185,46.2c-4.3,29.6,2.5,56.4,19.1,75.7c15.2,17.6,37.9,27.4,64,28l-49.5-49.5c-2.4-2.4-3.6-5.6-3.6-8.9s1.4-6.5,3.8-8.8
				c4.9-4.8,12.9-4.7,17.7,0.2l52.5,52.5c0.7-28-8.8-52.3-27.1-68.9C242.6,48.9,215.3,41.7,185,46.2z"/>
		</g>
	</g>
	<g>
		<g>
			<g>
				<g>
					<path class="st0" d="M193.1,273.3V415c0,7.7-6.2,13.8-13.8,13.8s-13.7-6.2-13.7-13.8V273.3c0-7.6,6.2-13.7,13.7-13.7
						c7,0,12.8,5.1,13.6,11.8C193,271.9,193.1,272.6,193.1,273.3z"/>
				</g>
			</g>
			<g>
				<g>
					<path class="st0" d="M263.9,344.2c0,7.6-6.2,13.7-13.8,13.7H108.5c-7.6,0-13.7-6.2-13.7-13.7c0-7.7,6.2-13.8,13.7-13.8h141.7
						C257.8,330.4,263.9,336.5,263.9,344.2z"/>
				</g>
			</g>
		</g>
		<g>
			<g>
				<path class="st0" d="M315.1,344.1c0,17.5-3.3,34.1-9.4,49.5c-2.6,6.6-5.6,12.9-9.2,18.9c-23.5,40.2-67.2,67.3-117.1,67.3
					c-69.7,0-127.7-52.1-135.1-121.3c-0.5-4.3-0.8-9.1-0.8-14.5c0-5.3,0.3-10.1,0.8-14.5c2.4-21.8,10-42.9,22.2-60.9
					c7.5-11.1,16.4-21,26.6-29.4s21.5-15.2,33.5-20.2c9.9-4.2,20.3-7.2,31-8.8c0.3-0.1,0.5-0.1,0.7-0.2c0.6-0.1,1.2-0.3,1.9-0.4
					c6.3-0.9,12.7-1.3,19.1-1.3c13.9,0,28.1,2.2,41.4,6.4c2.2,0.7,4.3,1.5,6.5,2.3c7.1,2.6,10.7,10.6,8,17.7
					c-2.6,7.2-10.5,10.8-17.7,8c-6.3-2.4-12.9-4.1-19.4-5.3c-6.3-1-12.6-1.6-18.8-1.6c-4.7,0-9.5,0.3-14.2,0.9
					c-0.4,0.1-0.9,0.2-1.3,0.3c-0.4,0.1-0.8,0.2-1.2,0.2c-8.7,1.4-17.3,3.7-25.3,7.2c-9.7,4-18.6,9.4-26.8,16.1
					c-8.1,6.8-15.3,14.7-21.3,23.5c-9.8,14.6-15.8,30.9-17.7,48.7c-0.4,3.5-0.6,7.3-0.6,11.5s0.2,8,0.6,11.5
					c5.9,55.2,52.3,96.8,107.8,96.8c33.7,0,64-15.5,83.8-39.8c4.8-5.8,9-12.2,12.5-18.9c7.7-14.8,12.1-31.7,12.1-49.5
					c0-27.5-10.1-53.1-28.3-72.9c-4.5-5-9.6-9.6-15.2-13.8c-1.9-1.4-3.2-3-4.1-5c-2.2-4.5-1.8-10,1.4-14.2
					c4.5-6.1,13.1-7.3,19.2-2.7c6.8,5.1,12.9,10.8,18.6,17c5.3,5.8,10.2,12.2,14.4,18.8C307.5,292.8,315.1,318.1,315.1,344.1z"/>
			</g>
		</g>
		<g>
			<g>
				<path class="st0" d="M206,344.2c0,7.3-5.7,13.2-12.9,13.6v29.9c0,7.7-6.2,13.7-13.8,13.7s-13.7-6.1-13.7-13.7v-43.6
					c0-7.7,6.2-13.8,13.7-13.8h12.9c0.3,0,0.6,0,0.9,0.1C200.4,330.9,206,336.8,206,344.2z"/>
			</g>
		</g>
	</g>
</g>
</svg>
