<?xml version="1.0" encoding="utf-8"?>
<!-- Generator: Adobe Illustrator 23.1.1, SVG Export Plug-In . SVG Version: 6.00 Build 0)  -->
<svg version="1.1" id="Layer_1" xmlns="http://www.w3.org/2000/svg" xmlns:xlink="http://www.w3.org/1999/xlink" x="0px" y="0px"
	 viewBox="0 0 500 500" style="enable-background:new 0 0 500 500;" xml:space="preserve">
<style type="text/css">
	.st0{fill:#007367;}
</style>
<g>
	<g transform="translate(0,-952.36218)">
		<g>
			<g>
				<path class="st0" d="M432.7,1225.2l1-8.6c0.5-4.6,1.1-8.9,1.1-13.5c0-4.6-0.5-8.9-1.1-13.5l-1-8.6l43.5-44.9
					c4-4.2,4.7-10.5,1.8-15.5l-43.1-75.2c-2.8-5-8.6-7.3-14-6l-32.9,8.3l-23.5,5.9l-5,1.3l-3.4-2.4c-9.4-6.7-19.5-12.6-29.8-17.5
					l-3.7-1.7l-3.9-13.7l-7.7-26.9L305,972c-1.6-5.4-6.5-9.1-12.1-9.2h-87.3c-5,0.6-9.2,4.2-10.6,9.2l-5.9,20.8l-7.8,26.9l-3.9,13.7
					l-3.6,1.7c-10.4,4.9-20.4,10.8-29.9,17.5l-3.3,2.4l-5.1-1.3l-23.5-5.9l-32.8-8.3c-5.5-1.4-11.2,1.1-14.1,6l-43,75.1
					c-3,5-2.2,11.4,1.8,15.6l43.5,44.9l-1,8.6c-0.6,4.6-1.1,8.9-1.1,13.5c0,4.6,0.5,8.9,1.1,13.5l1,8.6l-43.6,45
					c-3.9,4.1-4.7,10.4-1.8,15.4l43.1,75.3c2.8,4.9,8.7,7.3,14.1,6l61.5-15.7l3.3,2.5c9.4,6.7,19.5,12.6,29.9,17.4l3.6,1.7
					l17.6,61.5c1.6,5.4,6.4,9.1,12,9.1h86c5.6,0,10.4-3.7,12-9.2l17.5-61.4l3.7-1.7c10.4-4.9,20.4-10.7,29.8-17.4l3.4-2.5l61.5,15.7
					c5.4,1.3,11.1-1.1,14-6l43-75.2c3-5,2.3-11.4-1.7-15.6L432.7,1225.2z M418,1339.5l-56.5-14.2c-3.9-1-8-0.1-11.1,2.4
					c-12.8,10.4-27.7,19.1-43,25c-3.6,1.4-6.5,4.6-7.5,8.4l-16.3,56.5h-67l-16.4-56.4c-1.1-3.9-3.9-7.1-7.5-8.5
					c-15.3-5.9-30.2-14.6-43-25c-3-2.5-7.2-3.4-11-2.4L82,1339.5l-33.2-57.9l40.5-42.3c0.2-0.2,0.4-0.4,0.5-0.7
					c2.5-2.8,3.4-6.6,2.9-10.3c-1.5-9.3-2.2-17.4-2.2-25.2c0-7.7,0.7-15.9,2.1-25c0.7-4.1-0.5-8.2-3.4-11.1l-17.2-18l-23.3-24.4
					l33.2-57.9l14.3,3.5l22,5.6l20.3,5c3.9,1.1,8,0.2,11.1-2.4c12.8-10.3,27.7-19,43.1-25c3.6-1.4,6.4-4.5,7.4-8.4l10.4-36.2l4.7-16
					l1.2-4.3h67l1.2,4.3l4.6,16l10.4,36.2c1.1,3.8,3.9,7,7.5,8.4c15.3,5.9,30.2,14.7,43,25.1c3.1,2.5,7.2,3.3,11.1,2.3l20.3-5
					l21.9-5.6l14.3-3.5l33.2,57.9l-23.3,24.4l-17.2,18c-2.8,2.9-4.1,7.1-3.4,11.1c1.4,9.2,2.1,17.3,2.1,25.1c0,7.8-0.7,16-2.1,25.1
					c-0.6,3.8,0.4,7.6,2.8,10.4c0.1,0.3,0.4,0.5,0.5,0.7l40.5,42.3L418,1339.5z"/>
			</g>
			<g>
				<path class="st0" d="M432.7,1225.2l1-8.6c0.5-4.6,1.1-8.9,1.1-13.5c0-4.6-0.5-8.9-1.1-13.5l-1-8.6l43.5-44.9
					c4-4.2,4.7-10.5,1.8-15.5l-43.1-75.2c-2.8-5-8.6-7.3-14-6l-32.9,8.3l-23.5,5.9l-5,1.3l-3.4-2.4c-9.4-6.7-19.5-12.6-29.8-17.5
					l-3.7-1.7l-3.9-13.7l-7.7-26.9L305,972c-1.6-5.4-6.5-9.1-12.1-9.2h-87.3c-5,0.6-9.2,4.2-10.6,9.2l-5.9,20.8l-7.8,26.9l-3.9,13.7
					l-3.6,1.7c-10.4,4.9-20.4,10.8-29.9,17.5l-3.3,2.4l-5.1-1.3l-23.5-5.9l-32.8-8.3c-5.5-1.4-11.2,1.1-14.1,6l-43,75.1
					c-3,5-2.2,11.4,1.8,15.6l43.5,44.9l-1,8.6c-0.6,4.6-1.1,8.9-1.1,13.5c0,4.6,0.5,8.9,1.1,13.5l1,8.6l-43.6,45
					c-3.9,4.1-4.7,10.4-1.8,15.4l43.1,75.3c2.8,4.9,8.7,7.3,14.1,6l61.5-15.7l3.3,2.5c9.4,6.7,19.5,12.6,29.9,17.4l3.6,1.7
					l17.6,61.5c1.6,5.4,6.4,9.1,12,9.1h86c5.6,0,10.4-3.7,12-9.2l17.5-61.4l3.7-1.7c10.4-4.9,20.4-10.7,29.8-17.4l3.4-2.5l61.5,15.7
					c5.4,1.3,11.1-1.1,14-6l43-75.2c3-5,2.3-11.4-1.7-15.6L432.7,1225.2z M418,1339.5l-56.5-14.2c-3.9-1-8-0.1-11.1,2.4
					c-12.8,10.4-27.7,19.1-43,25c-3.6,1.4-6.5,4.6-7.5,8.4l-16.3,56.5h-67l-16.4-56.4c-1.1-3.9-3.9-7.1-7.5-8.5
					c-15.3-5.9-30.2-14.6-43-25c-3-2.5-7.2-3.4-11-2.4L82,1339.5l-33.2-57.9l40.5-42.3c0.2-0.2,0.4-0.4,0.5-0.7
					c2.5-2.8,3.4-6.6,2.9-10.3c-1.5-9.3-2.2-17.4-2.2-25.2c0-7.7,0.7-15.9,2.1-25c0.7-4.1-0.5-8.2-3.4-11.1l-17.2-18l-23.3-24.4
					l33.2-57.9l14.3,3.5l22,5.6l20.3,5c3.9,1.1,8,0.2,11.1-2.4c12.8-10.3,27.7-19,43.1-25c3.6-1.4,6.4-4.5,7.4-8.4l10.4-36.2l4.7-16
					l1.2-4.3h67l1.2,4.3l4.6,16l10.4,36.2c1.1,3.8,3.9,7,7.5,8.4c15.3,5.9,30.2,14.7,43,25.1c3.1,2.5,7.2,3.3,11.1,2.3l20.3-5
					l21.9-5.6l14.3-3.5l33.2,57.9l-23.3,24.4l-17.2,18c-2.8,2.9-4.1,7.1-3.4,11.1c1.4,9.2,2.1,17.3,2.1,25.1c0,7.8-0.7,16-2.1,25.1
					c-0.6,3.8,0.4,7.6,2.8,10.4c0.1,0.3,0.4,0.5,0.5,0.7l40.5,42.3L418,1339.5z"/>
			</g>
		</g>
	</g>
	<g>
		<path class="st0" d="M250,266.9c-38.8,0-70.4-31.6-70.4-70.4s31.6-70.4,70.4-70.4c38.8,0,70.4,31.6,70.4,70.4
			S288.8,266.9,250,266.9z M250,152.6c-24.2,0-43.9,19.7-43.9,43.9s19.7,43.9,43.9,43.9c24.2,0,43.9-19.7,43.9-43.9
			S274.2,152.6,250,152.6z"/>
	</g>
	<g>
		<path class="st0" d="M366.4,354.7c-4.1,0-8.1-1.8-10.7-5.4c-33-44.4-68-66.4-103.9-66.3c-60.6,0.7-107,65.3-107.5,66
			c-4.2,6-12.5,7.4-18.5,3.2c-6-4.2-7.4-12.5-3.2-18.5c2.2-3.1,54.4-76.3,128.7-77.3c45.2-0.6,87.3,25.3,125.7,77
			c4.4,5.9,3.1,14.2-2.7,18.6C372,353.8,369.2,354.7,366.4,354.7z"/>
	</g>
</g>
</svg>
