<?xml version="1.0" encoding="utf-8"?>
<!-- Generator: Adobe Illustrator 23.1.1, SVG Export Plug-In . SVG Version: 6.00 Build 0)  -->
<svg version="1.1" id="Layer_1" xmlns="http://www.w3.org/2000/svg" xmlns:xlink="http://www.w3.org/1999/xlink" x="0px" y="0px"
	 viewBox="0 0 500 500" style="enable-background:new 0 0 500 500;" xml:space="preserve">
<style type="text/css">
	.st0{fill-rule:evenodd;clip-rule:evenodd;fill:#FFFFFF;}
	.st1{fill:#36A07D;}
</style>
<g>
	<g>
		<line class="st0" x1="438.9" y1="250.4" x2="98.5" y2="250.4"/>
		<path class="st1" d="M438.9,265.3H98.5c-8.2,0-14.8-6.6-14.8-14.8c0-8.2,6.6-14.8,14.8-14.8h340.4c8.2,0,14.8,6.6,14.8,14.8
			C453.7,258.6,447.1,265.3,438.9,265.3z"/>
	</g>
	<g>
		<path class="st1" d="M194.8,374.3c-3.2,0-6.5-1-9.2-3.2L51.9,265.2c-3.5-2.8-5.6-7.1-5.6-11.6c0-4.5,2-8.8,5.6-11.6l141-113
			c6.4-5.1,15.7-4.1,20.9,2.3c5.1,6.4,4.1,15.7-2.3,20.9L84.9,253.5L204,347.8c6.4,5.1,7.5,14.4,2.4,20.9
			C203.5,372.4,199.2,374.3,194.8,374.3z"/>
	</g>
</g>
</svg>
