<?xml version="1.0" encoding="utf-8"?>
<!-- Generator: Adobe Illustrator 23.1.1, SVG Export Plug-In . SVG Version: 6.00 Build 0)  -->
<svg version="1.1" id="Layer_1" xmlns="http://www.w3.org/2000/svg" xmlns:xlink="http://www.w3.org/1999/xlink" x="0px" y="0px"
	 viewBox="0 0 500 500" style="enable-background:new 0 0 500 500;" xml:space="preserve">
<style type="text/css">
	.st0{fill:#36A07D;}
</style>
<g>
	<g>
		<path class="st0" d="M376.9,439.7H129.7c-5.7,0-10.8-3.7-12.6-9.1L50.3,228.5c-1.3-4.1-0.6-8.5,1.9-12c2.5-3.5,6.5-5.5,10.8-5.5
			h372.1c4.2,0,8.1,2,10.6,5.3c2.5,3.3,3.3,7.7,2.2,11.7l-58.1,202.1C388.1,435.8,382.9,439.7,376.9,439.7z M139.3,413.1h227.6
			l50.5-175.5h-336L139.3,413.1z"/>
	</g>
	<g>
		<path class="st0" d="M172,224.7h-0.7c-4.2,0-8.1-2-10.6-5.3L57.4,81.6c-3-4-3.5-9.4-1.2-13.9c2.3-4.5,6.9-7.3,11.9-7.3h168.6
			c4.2,0,8.2,2,10.7,5.4l62.9,84.7c4.4,5.9,3.2,14.2-2.7,18.6c-5.9,4.4-14.2,3.2-18.6-2.7l-59-79.3H94.6L180.9,202
			c2.5,2.4,4.1,5.7,4.1,9.4C184.9,218.8,179.3,224.7,172,224.7z"/>
	</g>
	<g>
		<path class="st0" d="M45,237.6c-3.3,0-16.7-0.7-26.9-10.8C12.7,221.5,6.4,211.7,7,195c0.9-24.3,19.5-34.5,29.2-36.5
			c0.9-0.2,1.8-0.3,2.7-0.3h423.3c0.5,0,1,0,1.6,0.1c9.3,1.1,27.5,9.7,29.2,34.4c1.9,30-16.8,42.2-26.9,44.6c-1,0.2-2,0.3-2.9,0.3
			h-28c-7.3,0-13.3-6-13.3-13.3s6-13.3,13.3-13.3h25.8c1.9-1,6.3-4.8,5.6-16.5c-0.5-6.9-3.5-9-5.6-9.7H40.7
			c-2.5,0.9-6.9,3.6-7.2,11.1c-0.2,5.6,0.9,9.6,3.2,11.9c3.1,3,8.2,3.1,8.3,3.1l0,0l17.8,0c7.3,0,13.3,6,13.3,13.3
			s-6,13.3-13.3,13.3H45.7C45.6,237.6,45.3,237.6,45,237.6z"/>
	</g>
</g>
</svg>
