<?xml version="1.0" encoding="utf-8"?>
<!-- Generator: Adobe Illustrator 23.1.1, SVG Export Plug-In . SVG Version: 6.00 Build 0)  -->
<svg version="1.1" id="Layer_1" xmlns="http://www.w3.org/2000/svg" xmlns:xlink="http://www.w3.org/1999/xlink" x="0px" y="0px"
	 viewBox="0 0 500 500" style="enable-background:new 0 0 500 500;" xml:space="preserve">
<style type="text/css">
	.st0{fill:#37A17D;}
	.st1{fill-rule:evenodd;clip-rule:evenodd;fill:#FFFFFF;}
</style>
<g>
	<g>
		<path class="st0" d="M379.76,443.87H126.99c-5.86,0-11.08-3.76-12.92-9.34L39.31,207.79c-1.36-4.14-0.66-8.69,1.9-12.23
			c2.56-3.54,6.65-5.63,11.02-5.63h392.63c4.27,0,8.3,2.01,10.86,5.42c2.57,3.41,3.39,7.83,2.21,11.93l-65.11,226.74
			C391.16,439.85,385.82,443.87,379.76,443.87z M136.83,416.68h232.69l57.3-199.55H71.03L136.83,416.68z"/>
	</g>
	<g>
		<path class="st0" d="M170.27,224.16h-0.71c-4.28,0-8.32-2.02-10.88-5.44L53.16,77.88c-3.09-4.12-3.59-9.63-1.29-14.23
			c2.31-4.6,7.01-7.52,12.16-7.52h172.26c4.3,0,8.35,2.03,10.91,5.49l64.33,86.54c4.48,6.02,3.23,14.54-2.79,19.03
			c-6.04,4.49-14.54,3.22-19.03-2.8l-60.25-81.06H91.21l88.12,117.61c2.56,2.46,4.19,5.87,4.19,9.63
			C183.52,218.08,177.78,224.16,170.27,224.16z"/>
	</g>
	<g>
		<path class="st1" d="M34.25,169.81h432.64c0,0,16.4,1.94,17.78,22.64c1.8,27.03-16.99,31.26-16.99,31.26H41.24
			c0,0-27.05,1.16-26-29.42C15.96,173.54,34.25,169.81,34.25,169.81z"/>
		<path class="st0" d="M40.51,237.31c-3.41,0-17.12-0.73-27.59-11.1c-5.46-5.42-11.85-15.43-11.27-32.39
			c0.85-24.89,19.91-35.31,29.87-37.34c0.89-0.19,1.81-0.28,2.72-0.28h432.64c0.53,0,1.07,0.03,1.6,0.1
			c9.55,1.13,28.05,9.95,29.74,35.24c2.03,30.57-17.14,43.09-27.58,45.43c-0.98,0.22-1.98,0.33-2.98,0.33H41.24
			C41.12,237.31,40.88,237.31,40.51,237.31z M36.16,183.4c-2.72,1-7.06,3.78-7.33,11.36c-0.19,5.65,0.86,9.7,3.14,12.04
			c3.19,3.26,8.77,3.32,8.88,3.32c0.01,0,0.01,0,0.01,0l424.54-0.01c1.9-1.05,6.48-4.85,5.69-16.76c-0.48-7.07-3.51-9.27-5.65-9.94
			H36.16z"/>
	</g>
</g>
</svg>
