<?xml version="1.0" encoding="utf-8"?>
<!-- Generator: Adobe Illustrator 23.1.1, SVG Export Plug-In . SVG Version: 6.00 Build 0)  -->
<svg version="1.1" id="Layer_1" xmlns="http://www.w3.org/2000/svg" xmlns:xlink="http://www.w3.org/1999/xlink" x="0px" y="0px"
	 viewBox="0 0 500 500" style="enable-background:new 0 0 500 500;" xml:space="preserve">
<style type="text/css">
	.st0{fill:#37A17D;}
</style>
<g>
	<g>
		<path class="st0" d="M425.43,378.88H74.57c-7.59,0-13.75-6.16-13.75-13.75V134.87c0-7.59,6.16-13.75,13.75-13.75h350.86
			c7.59,0,13.75,6.16,13.75,13.75v230.26C439.18,372.72,433.03,378.88,425.43,378.88z M88.32,351.38h323.36V148.62H88.32V351.38z"/>
	</g>
	<g>
		<path class="st0" d="M250,263.74c-2.5,0-5.02-0.69-7.23-2.05L76.05,158.55c-6.47-4-8.45-12.47-4.47-18.93
			c4.01-6.46,12.5-8.45,18.93-4.46l159.32,98.55l155.75-100.86c6.36-4.11,14.89-2.31,19.01,4.07c4.14,6.38,2.31,14.89-4.06,19.02
			L257.48,261.53C255.2,263,252.6,263.74,250,263.74z"/>
	</g>
</g>
</svg>
