<?xml version="1.0" encoding="utf-8"?>
<!-- Generator: Adobe Illustrator 23.1.1, SVG Export Plug-In . SVG Version: 6.00 Build 0)  -->
<svg version="1.1" id="Layer_1" xmlns="http://www.w3.org/2000/svg" xmlns:xlink="http://www.w3.org/1999/xlink" x="0px" y="0px"
	 viewBox="0 0 500 500" style="enable-background:new 0 0 500 500;" xml:space="preserve">
<style type="text/css">
	.st0{fill:#36A07D;}
</style>
<g>
	<path class="st0" d="M374.8,60.4H123.2c-34.7,0-62.9,28.2-62.9,62.9v251.5c0,34.7,28.2,62.9,62.9,62.9h251.5
		c34.7,0,62.9-28.2,62.9-62.9V123.2C437.6,88.5,409.5,60.4,374.8,60.4z M406.2,374.8c0,17.4-14.1,31.4-31.4,31.4H123.2
		c-17.4,0-31.4-14.1-31.4-31.4V123.2c0-17.4,14.1-31.4,31.4-31.4h251.5c17.4,0,31.4,14.1,31.4,31.4V374.8z"/>
	<path class="st0" d="M249,154.7c-52.1,0-94.3,42.2-94.3,94.3s42.2,94.3,94.3,94.3s94.3-42.2,94.3-94.3S301.1,154.7,249,154.7z
		 M249,311.9c-34.7,0-62.9-28.2-62.9-62.9s28.2-62.9,62.9-62.9s62.9,28.2,62.9,62.9S283.7,311.9,249,311.9z"/>
	<circle class="st0" cx="351.2" cy="146.8" r="23.6"/>
</g>
</svg>
