<?xml version="1.0" encoding="utf-8"?>
<!-- Generator: Adobe Illustrator 23.1.1, SVG Export Plug-In . SVG Version: 6.00 Build 0)  -->
<svg version="1.1" id="Layer_1" xmlns="http://www.w3.org/2000/svg" xmlns:xlink="http://www.w3.org/1999/xlink" x="0px" y="0px"
	 viewBox="0 0 500 500" style="enable-background:new 0 0 500 500;" xml:space="preserve">
<style type="text/css">
	.st0{fill-rule:evenodd;clip-rule:evenodd;fill:#37A17D;}
</style>
<g>
	<path class="st0" d="M250.26,428.07c-36.69-24.33-198.73-138-198.73-250.03c0-52.05,42.33-94.38,94.35-94.38
		c40.89,0,77.67,27.09,89.98,65.96c1.06,6.01,5.84,10.81,12.08,11.76c7.3,0.83,13.8-3.31,15.84-10.12
		c11.88-39.6,49-67.23,90.32-67.23c52.05,0,94.38,42.33,94.38,94.35C448.47,289.9,287.93,403.08,250.26,428.07 M354.09,55.28
		c-42.59,0-81.75,22.49-103.98,57.4c-22.17-35.08-61.51-57.77-104.24-57.77c-67.86,0-123.1,55.24-123.1,123.13
		c0,135.44,183.84,256.04,208.72,271.83c0.89,0.81,10.46,7.48,11.52,8.05c2.16,1.21,4.57,1.84,6.99,1.84c2.65,0,5.26-0.75,7.56-2.19
		c8.97-5.52,219.66-137.51,219.66-279.19C477.23,110.52,421.99,55.28,354.09,55.28"/>
</g>
</svg>
