<?xml version="1.0" encoding="utf-8"?>
<!-- Generator: Adobe Illustrator 23.1.1, SVG Export Plug-In . SVG Version: 6.00 Build 0)  -->
<svg version="1.1" id="Layer_1" xmlns="http://www.w3.org/2000/svg" xmlns:xlink="http://www.w3.org/1999/xlink" x="0px" y="0px"
	 viewBox="0 0 500 500" style="enable-background:new 0 0 500 500;" xml:space="preserve">
<style type="text/css">
	.st0{fill:#36A07D;}
	.st1{fill-rule:evenodd;clip-rule:evenodd;fill:#FFFFFF;}
</style>
<g>
	<g>
		<path class="st0" d="M430.4,432.4H69.6c-8.2,0-14.9-6.6-14.9-14.8s6.6-14.8,14.9-14.8h345.9V97.3H264.1c-8.2,0-14.9-6.6-14.9-14.8
			s6.6-14.8,14.9-14.8h166.3c8.2,0,14.9,6.6,14.9,14.8v335.1C445.2,425.7,438.6,432.4,430.4,432.4z"/>
	</g>
	<g>
		<line class="st1" x1="69.6" y1="250.3" x2="312.6" y2="250.3"/>
		<path class="st0" d="M312.6,265.1H69.6c-8.2,0-14.9-6.6-14.9-14.8s6.6-14.8,14.9-14.8h242.9c8.2,0,14.9,6.6,14.9,14.8
			S320.8,265.1,312.6,265.1z"/>
	</g>
	<g>
		<path class="st0" d="M238.6,343.6c-4.4,0-8.7-1.9-11.6-5.6c-5.1-6.4-4.1-15.7,2.3-20.9l86.1-69l-80.8-64
			c-6.4-5.1-7.5-14.4-2.4-20.9c5.1-6.4,14.4-7.5,20.9-2.4l95.4,75.6c3.5,2.8,5.6,7.1,5.6,11.6c0,4.5-2,8.8-5.6,11.6l-100.7,80.7
			C245.2,342.5,241.9,343.6,238.6,343.6z"/>
	</g>
</g>
</svg>
