<?xml version="1.0" encoding="utf-8"?>
<!-- Generator: Adobe Illustrator 23.1.1, SVG Export Plug-In . SVG Version: 6.00 Build 0)  -->
<svg version="1.1" id="Layer_1" xmlns="http://www.w3.org/2000/svg" xmlns:xlink="http://www.w3.org/1999/xlink" x="0px" y="0px"
	 viewBox="0 0 500 500" style="enable-background:new 0 0 500 500;" xml:space="preserve">
<style type="text/css">
	.st0{fill-rule:evenodd;clip-rule:evenodd;fill:#FFFFFF;}
	.st1{fill:#37A17D;}
</style>
<g>
	<g>
		<polyline class="st0" points="264.09,82.47 430.35,82.47 430.35,417.53 69.65,417.53 		"/>
		<path class="st1" d="M430.36,431.28H69.64c-7.59,0-13.75-6.16-13.75-13.75s6.16-13.75,13.75-13.75h346.96V96.22H264.09
			c-7.59,0-13.75-6.16-13.75-13.75s6.16-13.75,13.75-13.75h166.27c7.59,0,13.75,6.16,13.75,13.75v335.06
			C444.11,425.13,437.95,431.28,430.36,431.28z"/>
	</g>
	<g>
		<line class="st0" x1="69.65" y1="250.3" x2="312.59" y2="250.3"/>
		<path class="st1" d="M312.59,264.05H69.64c-7.59,0-13.75-6.16-13.75-13.75s6.16-13.75,13.75-13.75h242.95
			c7.59,0,13.75,6.16,13.75,13.75S320.18,264.05,312.59,264.05z"/>
	</g>
	<g>
		<path class="st1" d="M238.63,342.49c-4.03,0-8.02-1.76-10.74-5.16c-4.75-5.92-3.79-14.58,2.14-19.33l87.19-69.87l-81.89-64.86
			c-5.95-4.71-6.95-13.36-2.23-19.31c4.69-5.95,13.35-6.97,19.31-2.25l95.41,75.58c3.28,2.6,5.2,6.55,5.21,10.73
			c0.01,4.19-1.88,8.15-5.16,10.77l-100.67,80.66C244.68,341.5,241.65,342.49,238.63,342.49z"/>
	</g>
</g>
</svg>
