<?xml version="1.0" encoding="utf-8"?>
<!-- Generator: Adobe Illustrator 23.1.1, SVG Export Plug-In . SVG Version: 6.00 Build 0)  -->
<svg version="1.1" id="Layer_1" xmlns="http://www.w3.org/2000/svg" xmlns:xlink="http://www.w3.org/1999/xlink" x="0px" y="0px"
	 viewBox="0 0 500 500" style="enable-background:new 0 0 500 500;" xml:space="preserve">
<style type="text/css">
	.st0{fill-rule:evenodd;clip-rule:evenodd;fill:#FFFFFF;}
	.st1{fill:#37A17D;}
</style>
<g>
	<g>
		<polyline class="st0" points="281.47,82.47 447.74,82.47 447.74,417.53 87.03,417.53 		"/>
		<path class="st1" d="M447.74,431.28H87.03c-7.59,0-13.75-6.16-13.75-13.75s6.16-13.75,13.75-13.75h346.95V96.22H281.48
			c-7.59,0-13.75-6.16-13.75-13.75s6.16-13.75,13.75-13.75h166.26c7.59,0,13.75,6.16,13.75,13.75v335.06
			C461.49,425.13,455.33,431.28,447.74,431.28z"/>
	</g>
	<g>
		<line class="st0" x1="87.03" y1="250.3" x2="329.97" y2="250.3"/>
		<path class="st1" d="M329.97,264.05H87.03c-7.59,0-13.75-6.16-13.75-13.75s6.16-13.75,13.75-13.75h242.93
			c7.59,0,13.75,6.16,13.75,13.75S337.56,264.05,329.97,264.05z"/>
	</g>
	<g>
		<path class="st1" d="M147.66,340.38c-2.99,0-6-0.97-8.53-2.98l-95.41-75.57c-3.16-2.5-5.07-6.27-5.2-10.31
			c-0.14-4.03,1.5-7.93,4.49-10.63l92.19-83.78c5.61-5.1,14.31-4.71,19.42,0.93c5.11,5.62,4.69,14.32-0.92,19.43l-80.2,72.88
			l82.71,65.52c5.95,4.72,6.95,13.36,2.23,19.31C155.74,338.6,151.72,340.38,147.66,340.38z"/>
	</g>
</g>
</svg>
