<?xml version="1.0" encoding="utf-8"?>
<!-- Generator: Adobe Illustrator 23.1.1, SVG Export Plug-In . SVG Version: 6.00 Build 0)  -->
<svg version="1.1" id="Layer_1" xmlns="http://www.w3.org/2000/svg" xmlns:xlink="http://www.w3.org/1999/xlink" x="0px" y="0px"
	 viewBox="0 0 500 500" style="enable-background:new 0 0 500 500;" xml:space="preserve">
<style type="text/css">
	.st0{fill:#37A17D;}
</style>
<g>
	<path class="st0" d="M425.43,165.54h-58.47v-50.68c0-27.99-19.63-50.68-43.86-50.68H89.2c-24.22,0-43.86,22.69-43.86,50.68v236.49
		c-0.65,45.84,30.94,83.63,70.61,84.46h280.24c32.29,0,58.47-30.25,58.47-67.57V199.32C454.66,180.67,441.57,165.54,425.43,165.54z
		 M74.58,351.35V114.86c0-9.33,6.54-16.89,14.62-16.89h233.9c8.07,0,14.62,7.56,14.62,16.89v253.38c0.11,11.9,2.93,23.55,8.19,33.78
		H115.95C92.43,401.2,73.93,378.53,74.58,351.35z M425.43,368.24c0,18.66-13.09,33.78-29.24,33.78c-16.15,0-29.24-15.13-29.24-33.78
		V199.32h58.47V368.24z"/>
	<path class="st0" d="M264.62,165.54H147.68c-8.07,0-14.62,7.56-14.62,16.89c0,9.33,6.54,16.89,14.62,16.89h116.95
		c8.07,0,14.62-7.56,14.62-16.89C279.24,173.1,272.7,165.54,264.62,165.54z"/>
	<path class="st0" d="M264.62,233.11H147.68c-8.07,0-14.62,7.56-14.62,16.89s6.54,16.89,14.62,16.89h116.95
		c8.07,0,14.62-7.56,14.62-16.89S272.7,233.11,264.62,233.11z"/>
	<path class="st0" d="M264.62,300.68H147.68c-8.07,0-14.62,7.56-14.62,16.89c0,9.33,6.54,16.89,14.62,16.89h116.95
		c8.07,0,14.62-7.56,14.62-16.89C279.24,308.24,272.7,300.68,264.62,300.68z"/>
</g>
</svg>
