<?xml version="1.0" encoding="utf-8"?>
<!-- Generator: Adobe Illustrator 23.1.1, SVG Export Plug-In . SVG Version: 6.00 Build 0)  -->
<svg version="1.1" id="Layer_1" xmlns="http://www.w3.org/2000/svg" xmlns:xlink="http://www.w3.org/1999/xlink" x="0px" y="0px"
	 viewBox="0 0 500 500" style="enable-background:new 0 0 500 500;" xml:space="preserve">
<style type="text/css">
	.st0{fill:#37A17D;}
</style>
<g>
	<g>
		<path class="st0" d="M285.88,288.36c-7.18,0-13.51-5.2-14.7-12.52c-1.33-8.14,4.19-15.81,12.32-17.13l28.94-4.72v-50.61
			c0-4.17,1.75-8.16,4.82-10.98c3.07-2.82,7.24-4.24,11.35-3.89l52.7,4.39c0.64-43.29,10.62-50.45,14.16-52.98
			c4.58-3.3,10.16-4.33,15.51-2.97c5.87-0.81,23.48-7.79,40.09-15.88c5.31-8.64,12.88-28.81,17.18-42.23
			c3.04-15.77,1.74-27.18-3.7-32.19c-5.97-5.47-19.45-6.08-35.24-1.53c-16.7,4.79-112.01,80.57-194.51,151.05
			c-6.26,5.36-15.69,4.62-21.04-1.65c-5.36-6.27-4.62-15.69,1.65-21.04C244.25,148.82,389.75,25.4,421.07,16.41
			c15.58-4.47,44.57-9.33,63.69,8.27c13.86,12.78,18.11,33.23,12.59,60.79c-0.1,0.53-0.24,1.06-0.41,1.57
			c-2.16,6.84-13.5,41.66-24.2,55.03c-1.35,1.69-3.06,3.07-4.99,4.03c-29.52,14.76-45.3,19.47-54.2,20.49
			c-1.78,8.65-2.78,25.93-2.24,42.02c0.15,4.26-1.54,8.38-4.62,11.32c-3.08,2.94-7.31,4.43-11.53,4.06l-52.88-4.41v47.08
			c0,7.31-5.31,13.55-12.52,14.73l-41.46,6.76C287.49,288.3,286.69,288.36,285.88,288.36z"/>
	</g>
	<g>
		<path class="st0" d="M153.64,464.86c-2.99,0-5.99-0.09-9-0.27c-40.81-2.34-78.25-20.45-105.44-50.98
			c-27.19-30.52-40.87-69.8-38.51-110.6c2.36-40.81,20.46-78.25,50.98-105.44c2.91-2.52,68.32-57.57,169.35-21.07
			c7.75,2.8,11.77,11.36,8.97,19.11c-2.8,7.76-11.36,11.78-19.11,8.97c-84.79-30.63-138.99,14.97-139.54,15.44
			c-24.39,21.73-38.96,51.87-40.86,84.71c-1.89,32.85,9.12,64.47,31,89.04c21.89,24.56,52.03,39.13,84.88,41.03
			c32.85,1.9,64.46-9.12,89.03-31l0,0c-0.07,0.01,51.81-55,32.37-123.62c-2.24-7.93,2.37-16.18,10.3-18.43
			c7.91-2.26,16.17,2.37,18.43,10.3c24.24,85.62-37.84,150.6-40.48,153.32C227.03,451.22,191.19,464.86,153.64,464.86z"/>
	</g>
	<g>
		<path class="st0" d="M141.41,357.92c-14.87,0-26.96-12.09-26.96-26.96S126.54,304,141.41,304c14.87,0,26.97,12.1,26.97,26.97
			S156.28,357.92,141.41,357.92z M141.41,328.07c-1.59,0-2.88,1.29-2.88,2.89c0.01,3.18,5.77,3.16,5.77,0
			C144.3,329.37,143,328.07,141.41,328.07z"/>
	</g>
</g>
</svg>
