<?xml version="1.0" encoding="utf-8"?>
<!-- Generator: Adobe Illustrator 23.1.1, SVG Export Plug-In . SVG Version: 6.00 Build 0)  -->
<svg version="1.1" id="Layer_1" xmlns="http://www.w3.org/2000/svg" xmlns:xlink="http://www.w3.org/1999/xlink" x="0px" y="0px"
	 viewBox="0 0 500 500" style="enable-background:new 0 0 500 500;" xml:space="preserve">
<style type="text/css">
	.st0{fill:#36A07D;}
</style>
<g>
	<g>
		<g>
			<g>
				<path class="st0" d="M412,408H88c-5.4,0-9.9-4.3-9.9-9.5V46.9c0-19.4,16.3-35.2,36.3-35.2h271.1c20.1,0,36.4,15.8,36.4,35.2
					v351.5C421.9,403.7,417.5,408,412,408z M97.8,388.9h304.4v-342c0-8.9-7.5-16.1-16.7-16.1H114.4c-9.1,0-16.6,7.2-16.6,16.1V388.9
					z"/>
				<path class="st0" d="M412,411.9H88c-7.6,0-13.8-6-13.8-13.5V46.9c0-21.5,18-39.1,40.2-39.1h271.1c22.2,0,40.3,17.5,40.3,39.1
					v351.5C425.8,405.9,419.6,411.9,412,411.9z M114.4,15.7c-17.8,0-32.4,14-32.4,31.2v351.5c0,3.1,2.7,5.6,5.9,5.6H412
					c3.3,0,5.9-2.5,5.9-5.6V46.9c0-17.2-14.6-31.2-32.5-31.2H114.4z M406.1,392.9H93.9V46.9c0-11,9.2-20,20.5-20h271.1
					c11.4,0,20.6,9,20.6,20V392.9z M101.7,385h296.5V46.9c0-6.7-5.7-12.2-12.7-12.2H114.4c-7,0-12.6,5.5-12.6,12.2V385z"/>
			</g>
		</g>
	</g>
	<g>
		<g>
			<g>
				<path class="st0" d="M385.5,488.2H114.4c-20,0-36.3-15.8-36.3-35.2v-54.6c0-5.3,4.4-9.5,9.9-9.5H412c5.4,0,9.9,4.3,9.9,9.5v54.6
					C421.9,472.4,405.6,488.2,385.5,488.2z M97.8,408v45.1c0,8.9,7.4,16.1,16.6,16.1h271.1c9.2,0,16.7-7.2,16.7-16.1V408H97.8z"/>
				<path class="st0" d="M385.5,492.2H114.4c-22.2,0-40.2-17.5-40.2-39.1v-54.6c0-7.4,6.2-13.5,13.8-13.5H412
					c7.6,0,13.8,6,13.8,13.5v54.6C425.8,474.6,407.7,492.2,385.5,492.2z M88,392.9c-3.3,0-5.9,2.5-5.9,5.6v54.6
					c0,17.2,14.5,31.2,32.4,31.2h271.1c17.9,0,32.5-14,32.5-31.2v-54.6c0-3.1-2.7-5.6-5.9-5.6H88z M385.5,473.1H114.4
					c-11.3,0-20.5-9-20.5-20v-49h312.2v49C406.1,464.1,396.9,473.1,385.5,473.1z M101.7,411.9v41.1c0,6.7,5.7,12.2,12.6,12.2h271.1
					c7,0,12.7-5.5,12.7-12.2v-41.1H101.7z"/>
			</g>
		</g>
	</g>
	<g>
		<g>
			<g>
				<path class="st0" d="M278.9,449.4h-57.9c-5.4,0-9.9-4.3-9.9-9.5s4.4-9.5,9.9-9.5h57.9c5.4,0,9.9,4.3,9.9,9.5
					S284.4,449.4,278.9,449.4z"/>
				<path class="st0" d="M278.9,453.3h-57.9c-7.6,0-13.8-6-13.8-13.5c0-7.4,6.2-13.5,13.8-13.5h57.9c7.6,0,13.8,6,13.8,13.5
					C292.7,447.3,286.5,453.3,278.9,453.3z M221.1,434.3c-3.3,0-5.9,2.5-5.9,5.6c0,3.1,2.7,5.6,5.9,5.6h57.9c3.3,0,5.9-2.5,5.9-5.6
					c0-3.1-2.7-5.6-5.9-5.6H221.1z"/>
			</g>
		</g>
	</g>
	<g>
		<g>
			<g>
				<path class="st0" d="M250,304.3c-28.4,0-51.4-22.3-51.4-49.7c0-5.3,4.4-9.5,9.9-9.5s9.9,4.3,9.9,9.5c0,16.9,14.2,30.7,31.7,30.7
					c17.5,0,31.7-13.8,31.7-30.7s-14.2-30.7-31.7-30.7c-28.4,0-51.4-22.3-51.4-49.7s23.1-49.7,51.4-49.7s51.4,22.3,51.4,49.7
					c0,5.3-4.4,9.5-9.9,9.5s-9.9-4.3-9.9-9.5c0-16.9-14.2-30.7-31.7-30.7c-17.5,0-31.7,13.8-31.7,30.7c0,16.9,14.2,30.7,31.7,30.7
					c28.4,0,51.4,22.3,51.4,49.7C301.4,281.9,278.4,304.3,250,304.3z"/>
				<path class="st0" d="M250,308.2c-30.5,0-55.4-24.1-55.4-53.6c0-7.4,6.2-13.5,13.8-13.5c7.6,0,13.8,6,13.8,13.5
					c0,14.7,12.5,26.7,27.8,26.7c15.3,0,27.8-12,27.8-26.7c0-14.7-12.5-26.7-27.8-26.7c-30.5,0-55.4-24.1-55.4-53.7
					c0-29.6,24.8-53.6,55.4-53.6c30.5,0,55.4,24.1,55.4,53.6c0,7.4-6.2,13.5-13.8,13.5c-7.6,0-13.8-6-13.8-13.5
					c0-14.7-12.5-26.7-27.8-26.7c-15.3,0-27.8,12-27.8,26.7s12.5,26.7,27.8,26.7c30.5,0,55.4,24.1,55.4,53.6S280.5,308.2,250,308.2z
					 M208.4,248.9c-3.3,0-5.9,2.5-5.9,5.6c0,25.3,21.3,45.8,47.5,45.8s47.5-20.5,47.5-45.8s-21.3-45.8-47.5-45.8
					c-19.7,0-35.7-15.5-35.7-34.6c0-19.1,16-34.6,35.7-34.6s35.6,15.5,35.6,34.6c0,3.1,2.7,5.6,5.9,5.6s5.9-2.5,5.9-5.6
					c0-25.3-21.3-45.8-47.5-45.8s-47.5,20.5-47.5,45.8S223.8,220,250,220c19.7,0,35.6,15.5,35.6,34.6s-16,34.6-35.6,34.6
					s-35.7-15.5-35.7-34.6C214.3,251.5,211.7,248.9,208.4,248.9z"/>
			</g>
		</g>
	</g>
	<g>
		<g>
			<g>
				<path class="st0" d="M250,324c-5.4,0-9.9-4.3-9.9-9.5v-19.7c0-5.3,4.4-9.5,9.9-9.5s9.9,4.3,9.9,9.5v19.7
					C259.9,319.7,255.4,324,250,324z"/>
				<path class="st0" d="M250,327.9c-7.6,0-13.8-6-13.8-13.5v-19.7c0-7.4,6.2-13.5,13.8-13.5c7.6,0,13.8,6,13.8,13.5v19.7
					C263.8,321.9,257.6,327.9,250,327.9z M250,289.1c-3.3,0-5.9,2.5-5.9,5.6v19.7c0,3.1,2.7,5.6,5.9,5.6s5.9-2.5,5.9-5.6v-19.7
					C255.9,291.6,253.3,289.1,250,289.1z"/>
			</g>
		</g>
	</g>
	<g>
		<g>
			<g>
				<path class="st0" d="M250,143.5c-5.4,0-9.9-4.3-9.9-9.5v-19.7c0-5.3,4.4-9.5,9.9-9.5s9.9,4.3,9.9,9.5V134
					C259.9,139.2,255.4,143.5,250,143.5z"/>
				<path class="st0" d="M250,147.4c-7.6,0-13.8-6-13.8-13.5v-19.7c0-7.4,6.2-13.5,13.8-13.5c7.6,0,13.8,6,13.8,13.5V134
					C263.8,141.4,257.6,147.4,250,147.4z M250,108.7c-3.3,0-5.9,2.5-5.9,5.6V134c0,3.1,2.7,5.6,5.9,5.6s5.9-2.5,5.9-5.6v-19.7
					C255.9,111.2,253.3,108.7,250,108.7z"/>
			</g>
		</g>
	</g>
</g>
</svg>
