<?xml version="1.0" encoding="utf-8"?>
<!-- Generator: Adobe Illustrator 23.1.1, SVG Export Plug-In . SVG Version: 6.00 Build 0)  -->
<svg version="1.1" id="Layer_1" xmlns="http://www.w3.org/2000/svg" xmlns:xlink="http://www.w3.org/1999/xlink" x="0px" y="0px"
	 viewBox="0 0 500 500" style="enable-background:new 0 0 500 500;" xml:space="preserve">
<style type="text/css">
	.st0{fill:#37A17D;stroke:#37A17D;stroke-width:1.3;stroke-miterlimit:10;}
	.st1{fill:#37A17D;stroke:#37A17D;stroke-width:0.5;stroke-miterlimit:10;}
</style>
<g>
	<g>
		<g>
			<path class="st0" d="M385.59,382.2H114.41c-4.56,0-8.25-3.57-8.25-7.97V80.08c0-16.22,13.62-29.42,30.36-29.42H363.4
				c16.79,0,30.45,13.2,30.45,29.42v294.15C393.84,378.63,390.15,382.2,385.59,382.2z M122.66,366.25h254.69V80.08
				c0-7.43-6.26-13.48-13.95-13.48H136.51c-7.64,0-13.86,6.05-13.86,13.48V366.25z"/>
		</g>
	</g>
	<g>
		<g>
			<path class="st0" d="M363.4,449.34H136.51c-16.74,0-30.36-13.2-30.36-29.42v-45.69c0-4.4,3.69-7.97,8.25-7.97h271.19
				c4.56,0,8.25,3.57,8.25,7.97v45.69C393.84,436.14,380.18,449.34,363.4,449.34z M122.66,382.2v37.72
				c0,7.43,6.22,13.48,13.86,13.48H363.4c7.69,0,13.95-6.05,13.95-13.48V382.2H122.66z"/>
		</g>
	</g>
	<g>
		<g>
			<path class="st1" d="M274.22,416.84h-48.44c-4.56,0-8.25-3.57-8.25-7.97s3.69-7.97,8.25-7.97h48.44c4.56,0,8.25,3.57,8.25,7.97
				S278.78,416.84,274.22,416.84z"/>
		</g>
	</g>
	<g>
		<g>
			<path class="st0" d="M250,295.4c-23.74,0-43.05-18.66-43.05-41.6c0-4.4,3.69-7.97,8.25-7.97c4.56,0,8.25,3.57,8.25,7.97
				c0,14.14,11.91,25.65,26.55,25.65c14.64,0,26.54-11.51,26.54-25.65s-11.91-25.65-26.54-25.65c-23.74,0-43.05-18.66-43.05-41.6
				s19.31-41.6,43.05-41.6s43.04,18.66,43.04,41.6c0,4.4-3.69,7.97-8.25,7.97s-8.25-3.57-8.25-7.97c0-14.14-11.91-25.65-26.54-25.65
				c-14.64,0-26.55,11.51-26.55,25.65c0,14.15,11.91,25.66,26.55,25.66c23.74,0,43.04,18.66,43.04,41.6S273.74,295.4,250,295.4z"/>
		</g>
	</g>
	<g>
		<g>
			<path class="st0" d="M250,311.89c-4.56,0-8.25-3.57-8.25-7.97v-16.5c0-4.4,3.69-7.97,8.25-7.97s8.25,3.57,8.25,7.97v16.5
				C258.25,308.32,254.56,311.89,250,311.89z"/>
		</g>
	</g>
	<g>
		<g>
			<path class="st0" d="M250,160.88c-4.56,0-8.25-3.57-8.25-7.97v-16.5c0-4.4,3.69-7.97,8.25-7.97s8.25,3.57,8.25,7.97v16.5
				C258.25,157.31,254.56,160.88,250,160.88z"/>
		</g>
	</g>
</g>
</svg>
