<?xml version="1.0" encoding="utf-8"?>
<!-- Generator: Adobe Illustrator 23.1.1, SVG Export Plug-In . SVG Version: 6.00 Build 0)  -->
<svg version="1.1" id="Layer_1" xmlns="http://www.w3.org/2000/svg" xmlns:xlink="http://www.w3.org/1999/xlink" x="0px" y="0px"
	 viewBox="0 0 500 500" style="enable-background:new 0 0 500 500;" xml:space="preserve">
<style type="text/css">
	.st0{fill:#36A07D;}
</style>
<g>
	<g>
		<g>
			<g>
				<g>
					<path class="st0" d="M392.4,388.8H105.6c-4.8,0-8.7-3.8-8.7-8.4v-311c0-17.2,14.4-31.1,32.1-31.1h239.9
						c17.7,0,32.2,14,32.2,31.1v311C401.1,385,397.2,388.8,392.4,388.8z M114.4,371.9h269.3V69.4c0-7.9-6.6-14.2-14.7-14.2H129
						c-8.1,0-14.7,6.4-14.7,14.2V371.9z"/>
					<path class="st0" d="M392.4,393.2H105.6c-7.2,0-13.1-5.8-13.1-12.8v-311c0-19.6,16.4-35.5,36.5-35.5h239.9
						c20.2,0,36.6,15.9,36.6,35.5v311C405.5,387.4,399.6,393.2,392.4,393.2z M129,42.6c-15.3,0-27.7,12-27.7,26.7v311
						c0,2.2,1.9,4,4.3,4h286.7c2.4,0,4.3-1.8,4.3-4v-311c0-14.7-12.5-26.7-27.8-26.7H129z M388,376.3H110v-307
						c0-10.3,8.5-18.6,19.1-18.6h239.9c10.5,0,19.1,8.4,19.1,18.6V376.3z M118.8,367.5h260.5V69.4c0-5.4-4.6-9.9-10.3-9.9H129
						c-5.7,0-10.3,4.4-10.3,9.9V367.5z"/>
				</g>
			</g>
		</g>
		<g>
			<g>
				<g>
					<path class="st0" d="M368.9,459.8H129c-17.7,0-32.1-14-32.1-31.1v-48.3c0-4.7,3.9-8.4,8.7-8.4h286.7c4.8,0,8.7,3.8,8.7,8.4
						v48.3C401.1,445.8,386.6,459.8,368.9,459.8z M114.4,388.8v39.9c0,7.9,6.6,14.2,14.7,14.2h239.9c8.1,0,14.7-6.4,14.7-14.2v-39.9
						H114.4z"/>
					<path class="st0" d="M368.9,464.2H129c-20.1,0-36.5-15.9-36.5-35.5v-48.3c0-7.1,5.9-12.8,13.1-12.8h286.7
						c7.2,0,13.1,5.8,13.1,12.8v48.3C405.5,448.2,389.1,464.2,368.9,464.2z M105.6,376.3c-2.4,0-4.3,1.8-4.3,4v48.3
						c0,14.7,12.4,26.7,27.7,26.7h239.9c15.3,0,27.8-12,27.8-26.7v-48.3c0-2.2-1.9-4-4.3-4H105.6z M368.9,447.3H129
						c-10.5,0-19.1-8.4-19.1-18.6v-44.3H388v44.3C388,438.9,379.4,447.3,368.9,447.3z M118.8,393.2v35.5c0,5.4,4.6,9.8,10.3,9.8
						h239.9c5.7,0,10.3-4.4,10.3-9.8v-35.5H118.8z"/>
				</g>
			</g>
		</g>
		<g>
			<g>
				<g>
					<path class="st0" d="M274.6,425.4h-51.2c-4.8,0-8.7-3.8-8.7-8.4s3.9-8.4,8.7-8.4h51.2c4.8,0,8.7,3.8,8.7,8.4
						S279.4,425.4,274.6,425.4z"/>
					<path class="st0" d="M274.6,429.8h-51.2c-7.2,0-13.1-5.8-13.1-12.8c0-7.1,5.9-12.8,13.1-12.8h51.2c7.2,0,13.1,5.8,13.1,12.8
						C287.7,424,281.8,429.8,274.6,429.8z M223.4,412.9c-2.4,0-4.3,1.8-4.3,4c0,2.2,1.9,4,4.3,4h51.2c2.4,0,4.3-1.8,4.3-4
						c0-2.2-1.9-4-4.3-4H223.4z"/>
				</g>
			</g>
		</g>
	</g>
	<g transform="translate(0,-952.36218)">
		<g>
			<path class="st0" d="M267.5,1083c-34.2,0-63.7,21-76.4,50.6h-11.2c-7.6,0-13.8,6.2-13.8,13.8c0,7.6,6.2,13.8,13.8,13.8h4.9
				c-0.1,1.6-0.3,3-0.3,4.6c0,3.1,0.2,6.2,0.6,9.2h-5.2c-7.6,0-13.8,6.2-13.8,13.8c0,7.6,6.2,13.8,13.8,13.8h13.4
				c13.6,27.2,41.8,46,74.2,46c26.3,0,45.3-12.2,60.3-27.2c5.6-5,4.4-16.4,0.6-20.1c-6.2-6.1-15.2-5-20.1,0.7
				c-12.6,12.6-21.9,19-40.7,19c-16.5,0-31.2-7.1-41.3-18.4H272c7.6,0,13.8-6.2,13.8-13.8c0-7.6-6.2-13.8-13.8-13.8h-59
				c-0.5-3-0.9-6.1-0.9-9.2c0-1.6,0.2-3.1,0.3-4.6H272c7.6,0,13.8-6.2,13.8-13.8c0-7.6-6.2-13.8-13.8-13.8h-49.3
				c10-13.9,26.3-23,44.9-23c18.8,0,28.1,6.2,40.7,18.8c4.9,5.7,14.8,6,20.1,0.7c5.3-5.3,4.1-15.9-0.6-20.1
				C312.8,1095.1,293.9,1083,267.5,1083z"/>
		</g>
	</g>
</g>
</svg>
