<?xml version="1.0" encoding="utf-8"?>
<!-- Generator: Adobe Illustrator 23.1.1, SVG Export Plug-In . SVG Version: 6.00 Build 0)  -->
<svg version="1.1" id="Layer_1" xmlns="http://www.w3.org/2000/svg" xmlns:xlink="http://www.w3.org/1999/xlink" x="0px" y="0px"
	 viewBox="0 0 500 500" style="enable-background:new 0 0 500 500;" xml:space="preserve">
<style type="text/css">
	.st0{fill:#37A17D;}
</style>
<g>
	<g>
		<g>
			<path class="st0" d="M134.33,438.75c-13.48,0-24.4-0.09-31.57-0.31c-46.95-1.42-71.35-18.68-72.51-51.3
				c-0.74-20.46,0.62-183.49,2.12-222.29c1.82-47.47,44.44-46.21,62.62-45.69c2.19,0.06,4.28,0.12,6.19,0.12
				c18.96,0,292.99-0.77,292.99-0.77c0.02,0,0.03,0,0.04,0c35.78,0,68.33,3.34,73.54,43.7c2.14,16.63,2.91,199.65,1.5,230
				c-1.34,28.81-26.82,43.41-75.74,43.41c-5.06,0-24.69,0.31-51.65,0.73C281.1,437.3,187.65,438.75,134.33,438.75z M87.29,146.53
				c-20.18,0-26.84,3.6-27.45,19.37c-1.44,37.51-2.8,201.01-2.12,220.24c0.29,8.2,0.84,23.44,45.87,24.81
				c34.9,1.04,166.92-1,237.83-2.11c27.19-0.42,46.99-0.73,52.08-0.73c21.66,0,47.61-2.99,48.26-17.19
				c1.51-32.5,0.47-211.41-1.3-225.21c-1.54-11.88-2.55-19.72-46.27-19.72c-3.7,0.01-274.21,0.77-293.04,0.77
				c-2.16,0-4.5-0.06-6.98-0.14C91.73,146.57,89.44,146.53,87.29,146.53z"/>
		</g>
		<g>
			<path class="st0" d="M353.52,142.81c-5.13,0.01-10.05-2.88-12.42-7.81c-8.37-17.49-19.93-38.43-25.13-44.42
				c-17.4-2.52-106.87-2.42-121.2,0.28c-5.13,3.36-15.67,21.2-22.56,38.37c-2.83,7.06-10.85,10.45-17.88,7.65
				c-7.05-2.83-10.47-10.82-7.65-17.87c5.4-13.53,19.89-45.84,37.45-53.59c13.12-5.79,127.69-5.08,141.63-0.82
				c4.61,1.4,14.22,4.33,40.15,58.52c3.28,6.85,0.38,15.06-6.47,18.34C357.53,142.38,355.51,142.81,353.52,142.81z M314.94,89.51
				L314.94,89.51L314.94,89.51z"/>
		</g>
		<g>
			<path class="st0" d="M252.17,386.22c-57.34,0-103.98-46.64-103.98-103.98c0-57.33,46.64-103.97,103.98-103.97
				c57.33,0,103.97,46.64,103.97,103.97C356.14,339.58,309.5,386.22,252.17,386.22z M252.17,205.77
				c-42.17,0-76.48,34.31-76.48,76.47c0,42.17,34.31,76.48,76.48,76.48c42.16,0,76.47-34.31,76.47-76.48
				C328.64,240.08,294.33,205.77,252.17,205.77z"/>
		</g>
	</g>
	<g>
		<path class="st0" d="M103.77,212.34c-13.7,0-24.85-11.14-24.85-24.84c0-13.7,11.15-24.85,24.85-24.85s24.85,11.15,24.85,24.85
			C128.61,201.2,117.46,212.34,103.77,212.34z M103.77,184.84c-1.46,0-2.65,1.19-2.65,2.66c0,2.92,5.31,2.92,5.31,0
			C106.42,186.03,105.23,184.84,103.77,184.84z"/>
	</g>
</g>
</svg>
