<svg width="500" height="500" xmlns="http://www.w3.org/2000/svg">
 <style type="text/css">.st0{fill:#34A07D;}</style>

 <g>
  <title>background</title>
  <rect fill="none" id="canvas_background" height="502" width="502" y="-1" x="-1"/>
 </g>
 <g>
  <title>Layer 1</title>
  <g id="svg_1">
   <path id="svg_2" d="m418.49998,224.33235l-150,0l0,-29.03872c98.86363,10.50518 164.88636,-46.9744 144.54545,-118.71712c-1.02273,-3.58714 -4.77273,-6.49101 -9.65909,-7.25968c-53.63636,-8.5408 -107.84091,2.39143 -138.75,37.15248c-15.22727,-48.93878 -77.27273,-79.34403 -156.02272,-67.13069c-4.77273,0.76867 -8.63636,3.58714 -9.65909,7.25968c-20.22727,71.99894 45.45454,129.30771 144.54545,118.71712l0,59.10234l-150,0c-6.93182,0 -12.5,4.18499 -12.5,9.39488l0,56.36928c0,5.20988 5.56818,9.39488 12.5,9.39488l13.97727,0l23.52273,132.72403c0.79545,4.69744 6.13636,8.19917 12.5,8.19917l225,0c6.36364,0 11.70455,-3.50173 12.5,-8.19917l23.52273,-132.72403l13.97727,0c6.93182,0 12.5,-4.18499 12.5,-9.39488l0,-56.36928c0,-5.20988 -5.56818,-9.48028 -12.5,-9.48028l0,-0.00001zm-28.40909,-137.7631c11.13636,54.4903 -35.79545,93.9488 -106.59091,91.21575l65.45454,-49.28042c4.88636,-3.75795 4.77273,-9.73652 -0.22727,-13.40906c-5,-3.67254 -12.95455,-3.58714 -17.84091,0.17082l0,0l-62.5,46.9744c0.11364,-52.01347 52.72727,-83.69984 121.70454,-75.67149zm-268.18181,-30.06362c72.61363,-8.45539 125.56818,26.90352 121.59091,80.36893l-62.5,-46.9744c-4.88636,-3.75795 -12.84091,-3.75795 -17.84091,-0.17082c-5,3.67254 -5,9.6511 -0.22727,13.40906l59.20454,44.49757c-68.86363,0.59786 -110.90909,-39.28768 -100.22727,-91.13033l0,-0.00001zm235.56818,365.1192l-202.95454,0l-21.70454,-122.13344l246.47727,0l-21.81818,122.13344zm48.52273,-140.9232l-299.99999,0l0,-37.57952l299.99999,0l0,37.57952z" class="st0"/>
  </g>
 </g>
</svg>