<?xml version="1.0" encoding="utf-8"?>
<!-- Generator: Adobe Illustrator 23.1.1, SVG Export Plug-In . SVG Version: 6.00 Build 0)  -->
<svg version="1.1" id="Layer_1" xmlns="http://www.w3.org/2000/svg" xmlns:xlink="http://www.w3.org/1999/xlink" x="0px" y="0px"
	 viewBox="0 0 500 500" style="enable-background:new 0 0 500 500;" xml:space="preserve">
<style type="text/css">
	.st0{fill:#339F7E;}
</style>
<g>
	<g>
		<path class="st0" d="M239.4,209.4H112.7c-5.9,0-10.6,4.7-10.6,10.6v63.4c0,5.9,4.7,10.6,10.6,10.6h11.8l19.9,149.2
			c0.7,5.3,5.2,9.2,10.6,9.2h190.1c5.4,0,9.9-3.9,10.6-9.2l19.9-149.2h11.8c5.9,0,10.6-4.7,10.6-10.6V220c0-5.9-4.7-10.7-10.6-10.7
			H260.6 M260.6,226c83.5,11.8,139.3-52.8,122.1-133.5c-0.9-4-4-7.3-8.2-8.2c-45.3-9.6-91.1,2.7-117.2,41.8
			C244.4,71.2,192,37,125.5,50.7c-4,0.9-7.3,4-8.2,8.2c-17.1,80.9,38.4,145.4,122.1,133.5v23.2 M363.3,103.8
			c9.4,61.3-30.2,105.6-90.1,102.5l55.3-55.4c4.1-4.2,4-10.9-0.2-15.1c-4.2-4.1-10.9-4-15.1,0.2l0,0l-52.8,52.8
			C260.6,130.4,305,94.8,363.3,103.8z M136.7,70c61.4-9.5,106.1,30.2,102.7,90.4l-52.8-52.8c-4.1-4.2-10.8-4.2-15.1-0.2
			c-4.2,4.1-4.2,10.8-0.2,15.1l50,50C163.2,173.1,127.7,128.3,136.7,70z M335.7,431.1H164.3l-18.3-137.3h208.3L335.7,431.1z
			 M376.7,272.7H123.3v-42.2h253.5V272.7z"/>
		<path class="st0" d="M345.1,453.4H155c-5.9,0-10.9-4.4-11.7-10.2L123.6,295h-10.8c-6.4,0-11.7-5.2-11.7-11.7V220
			c0-6.4,5.2-11.7,11.7-11.7h125.6v-14.7c-39.1,5.2-73.6-5.7-97.2-31c-24.3-26-33.3-63.9-24.9-104c0.9-4.5,4.5-8,9-9
			c63.9-13.2,118,17.1,132.5,73.9c24.9-35.5,68.5-50.5,117-40.2c4.5,0.9,8,4.5,9,9c8.5,39.9-0.5,77.7-24.8,103.7
			c-4.2,4.5-8.7,8.5-13.6,12.1h41.9c6.4,0,11.7,5.3,11.7,11.8v63.4c0,6.4-5.2,11.7-11.7,11.7h-10.8l-19.7,148.3
			C356,449.1,351,453.4,345.1,453.4z M112.7,210.5c-5.2,0-9.5,4.2-9.5,9.5v63.4c0,5.2,4.2,9.5,9.5,9.5h12.8l0.1,1L145.5,443
			c0.6,4.7,4.7,8.3,9.5,8.3h190.1c4.8,0,8.9-3.6,9.5-8.3l20-150.2h12.8c5.2,0,9.5-4.2,9.5-9.5V220c0-5.3-4.2-9.6-9.5-9.6h-45
			c-22.3,15.2-50.6,21.1-81.9,16.7l0.3-2.2c29.4,4.1,56.1-1,77.6-14.5h-77.7v-2.2h81c5.7-3.9,10.9-8.5,15.8-13.6
			c23.8-25.5,32.6-62.6,24.3-101.8c-0.8-3.7-3.7-6.5-7.3-7.3c-48.6-10.3-91.9,5.2-116.1,41.3l-1.4,2.1l-0.6-2.5
			c-13.3-57.1-67-87.8-130.5-74.6c-3.7,0.8-6.5,3.7-7.3,7.3c-8.3,39.4,0.5,76.6,24.3,102c23.3,25,57.6,35.7,96.6,30.1l1.3-0.2v24.4
			h-2.2v-5H112.7z M336.7,432.2H163.3l-0.1-1l-18.5-138.5h210.8l-0.2,1.2L336.7,432.2z M165.2,430h169.5l18.2-135.1H147.2L165.2,430
			z M377.8,273.8H122.2v-44.4h255.7V273.8z M124.4,271.6h251.3v-40H124.4V271.6z M279,207.6c-1.9,0-3.9-0.1-5.8-0.2l-2.5-0.1
			l57.1-57.2c1.8-1.8,2.7-4.2,2.7-6.8s-1.1-4.9-2.9-6.7c-1.8-1.8-4.2-2.7-6.7-2.7c0,0-0.1,0-0.1,0c-2.5,0-4.9,1.1-6.7,2.9
			l-54.7,54.7l0-2.7c0-27.8,10.3-51.8,28.7-67.6c19.3-16.5,46-23.1,75.4-18.5l0.8,0.1l0.1,0.8c4.7,30.3-2.4,57.6-19.9,77
			C328.6,198.1,305.6,207.6,279,207.6z M275.8,205.4c27.2,0.8,51-8.5,67-26.2c16.9-18.7,23.8-45.1,19.5-74.3
			c-28.4-4.2-54.2,2.2-72.8,18.1c-17.4,14.9-27.3,37.3-27.9,63.3l50.9-50.9c2.2-2.2,5.1-3.5,8.3-3.5c0.1,0,0.1,0,0.2,0
			c3.1,0,6,1.2,8.2,3.4c2.2,2.2,3.5,5.1,3.6,8.3s-1.1,6.1-3.4,8.4L275.8,205.4z M220.1,173.6c-26.8,0-50.1-9.8-65.7-27.8
			c-16.8-19.3-23.5-46.3-18.9-76l0.1-0.8l0.8-0.1c30.4-4.7,57.9,2.4,77.3,20c18.8,17.1,28.3,42.4,26.7,71.5l-0.1,2.5l-54.5-54.5
			c-3.7-3.7-9.7-3.8-13.5-0.2c-3.7,3.6-3.8,9.7-0.2,13.5l51.9,51.8l-2.6,0C221,173.6,220.5,173.6,220.1,173.6z M137.7,71
			c-4.3,28.7,2.3,54.7,18.5,73.4c14.9,17.1,37,26.7,62.6,27l-48.1-48.1c-4.5-4.7-4.4-12.2,0.2-16.6c4.7-4.5,12.1-4.4,16.6,0.2l51,51
			c0.9-27.3-8.3-51.1-26.1-67.2C193.6,73.6,167.1,66.6,137.7,71z"/>
	</g>
</g>
</svg>
