<?xml version="1.0" encoding="utf-8"?>
<!-- Generator: Adobe Illustrator 23.1.1, SVG Export Plug-In . SVG Version: 6.00 Build 0)  -->
<svg version="1.1" id="Layer_1" xmlns="http://www.w3.org/2000/svg" xmlns:xlink="http://www.w3.org/1999/xlink" x="0px" y="0px"
	 viewBox="0 0 500 500" style="enable-background:new 0 0 500 500;" xml:space="preserve">
<style type="text/css">
	.st0{fill:#34A07D;}
</style>
<g>
	<path class="st0" d="M393,233.4H261v-34c87,12.3,145.1-55,127.2-139c-0.9-4.2-4.2-7.6-8.5-8.5c-47.2-10-94.9,2.8-122.1,43.5
		c-13.4-57.3-68-92.9-137.3-78.6c-4.2,0.9-7.6,4.2-8.5,8.5c-17.8,84.3,40,151.4,127.2,139v69.2H107c-6.1,0-11,4.9-11,11v66
		c0,6.1,4.9,11,11,11h12.3L140,476.9c0.7,5.5,5.4,9.6,11,9.6h198c5.6,0,10.3-4.1,11-9.6l20.7-155.4H393c6.1,0,11-4.9,11-11v-66
		C404,238.4,399.1,233.4,393,233.4z M368,72.1c9.8,63.8-31.5,110-93.8,106.8l57.6-57.7c4.3-4.4,4.2-11.4-0.2-15.7
		c-4.4-4.3-11.4-4.2-15.7,0.2l0,0l-55,55C261,99.8,307.3,62.7,368,72.1z M132,36.9C195.9,27,242.5,68.4,239,131l-55-55
		c-4.3-4.4-11.3-4.4-15.7-0.2c-4.4,4.3-4.4,11.3-0.2,15.7l52.1,52.1C159.6,144.3,122.6,97.6,132,36.9z M339.3,464.4H160.7l-19.1-143
		h216.9L339.3,464.4z M382,299.4H118v-44h264V299.4z"/>
</g>
</svg>
