<?xml version="1.0" encoding="utf-8"?>
<!-- Generator: Adobe Illustrator 23.1.1, SVG Export Plug-In . SVG Version: 6.00 Build 0)  -->
<svg version="1.1" id="Layer_1" xmlns="http://www.w3.org/2000/svg" xmlns:xlink="http://www.w3.org/1999/xlink" x="0px" y="0px"
	 viewBox="0 0 500 500" style="enable-background:new 0 0 500 500;" xml:space="preserve">
<style type="text/css">
	.st0{fill-rule:evenodd;clip-rule:evenodd;fill:#37A17D;}
</style>
<g>
	<path class="st0" d="M398.28,375.93c-22.3-35.49-56.42-61.38-95.55-73.82c20.44-15.86,33.83-40.37,33.83-68.16
		c0-47.72-38.81-86.56-86.56-86.56c-47.72,0-86.56,38.83-86.56,86.56c0,27.79,13.38,52.33,33.83,68.16
		c-39.13,12.44-73.25,38.32-95.55,73.82c-28.9-33.99-46.46-77.91-46.46-125.9c0-107.4,87.36-194.76,194.74-194.76
		s194.74,87.36,194.74,194.76C444.74,298.02,427.18,341.94,398.28,375.93 M190.38,233.95c0-32.88,26.74-59.62,59.62-59.62
		s59.62,26.74,59.62,59.62c0,32.88-26.74,59.62-59.62,59.62S190.38,266.83,190.38,233.95 M250,444.74
		c-49.66,0-94.88-18.82-129.29-49.53c0.32-0.43,0.86-0.65,1.16-1.16C148.42,348.7,197.48,320.5,250,320.5
		c52.49,0,101.58,28.2,128.11,73.52c0.3,0.51,0.75,0.81,1.1,1.27C344.8,425.94,299.61,444.74,250,444.74 M250,28.33
		c-122.21,0-221.67,99.46-221.67,221.69c0,122.21,99.46,221.64,221.67,221.64s221.67-99.43,221.67-221.64
		C471.67,127.79,372.21,28.33,250,28.33"/>
</g>
</svg>
