<?xml version="1.0" encoding="utf-8"?>
<!-- Generator: Adobe Illustrator 23.1.1, SVG Export Plug-In . SVG Version: 6.00 Build 0)  -->
<svg version="1.1" id="Layer_1" xmlns="http://www.w3.org/2000/svg" xmlns:xlink="http://www.w3.org/1999/xlink" x="0px" y="0px"
	 viewBox="0 0 500 500" style="enable-background:new 0 0 500 500;" xml:space="preserve">
<style type="text/css">
	.st0{fill:#36A07D;}
</style>
<g>
	<g>
		<g>
			<path class="st0" d="M87.9,60.9h277l0,0c7.2,0,14,2.8,19.1,7.9l47.2,47.2l0,0c5.1,5.1,7.9,11.9,7.9,19.1v277
				c0,14.9-12.1,27-27,27H87.9c-14.9,0-27-12.1-27-27V87.9l0,0C60.9,73,73,60.9,87.9,60.9L87.9,60.9z M141.9,87.9h-45l0,0
				c-5,0-9,4-9,9v306.2c0,5,4,9,9,9h306.2c5,0,9-4,9-9V138.9l0,0c0-2.4-0.9-4.7-2.6-6.4l-41.9-41.9l0,0c-1.7-1.7-4-2.6-6.4-2.6H357
				c-4.4,0-7.9,3.5-7.9,7.9V160c0,14.9-12.1,27-27,27H178c-14.9,0-27-12.1-27-27v-63C150.9,92,146.9,87.9,141.9,87.9L141.9,87.9z
				 M187,160H313c5,0,9-4,9-9v-54c0-5-4-9-9-9H187c-5,0-9,4-9,9v54C178,155.9,182,160,187,160z M160.5,243.8h178.9
				c12.4,0,22.4,10,22.4,22.4v74.6c0,12.4-10,22.4-22.4,22.4H160.5c-12.4,0-22.4-10-22.4-22.4v-74.6
				C138.2,253.8,148.2,243.8,160.5,243.8z M160.5,273.6v59.6c0,4.1,3.3,7.5,7.5,7.5h164c4.1,0,7.5-3.3,7.5-7.5v-59.6
				c0-4.1-3.3-7.5-7.5-7.5H168C163.9,266.1,160.5,269.5,160.5,273.6z"/>
			<path class="st0" d="M412.1,440.7H87.9c-15.8,0-28.7-12.9-28.7-28.7V87.9c0-15.8,12.9-28.7,28.7-28.7h277c7.7,0,14.9,3,20.3,8.4
				l47.2,47.2c5.4,5.4,8.4,12.6,8.4,20.3v277C440.7,427.9,427.9,440.7,412.1,440.7z M87.9,62.6c-14,0-25.4,11.4-25.4,25.4v324.2
				c0,14,11.4,25.4,25.4,25.4h324.2c14,0,25.4-11.4,25.4-25.4v-277c0-6.8-2.6-13.1-7.4-17.9L382.8,70c-4.8-4.8-11.2-7.4-17.9-7.4
				H87.9z M403.1,413.7H96.9c-5.9,0-10.7-4.8-10.7-10.7V96.9c0-5.9,4.8-10.7,10.7-10.7h45c5.9,0,10.7,4.8,10.7,10.7v63
				c0,14,11.4,25.4,25.4,25.4H322c14,0,25.4-11.4,25.4-25.4V95.8c0-5.3,4.3-9.6,9.6-9.6h4.2c2.8,0,5.6,1.1,7.5,3.1l41.9,41.9
				c2,2,3.1,4.7,3.1,7.5v264.2C413.7,409,409,413.7,403.1,413.7z M96.9,89.6c-4.1,0-7.4,3.3-7.4,7.3v306.2c0,4.1,3.3,7.4,7.4,7.4
				h306.2c4,0,7.3-3.3,7.3-7.4V138.9c0-2-0.8-3.8-2.1-5.2l-41.9-41.9c-1.4-1.4-3.3-2.1-5.2-2.1H357c-3.5,0-6.3,2.8-6.3,6.3V160
				c0,15.8-12.9,28.7-28.7,28.7H178c-15.8,0-28.7-12.9-28.7-28.7v-63c0-4-3.3-7.3-7.3-7.3H96.9z M339.5,364.7H160.5
				c-13.2,0-24-10.8-24-24v-74.6c0-13.2,10.8-24,24-24h178.9c13.2,0,24,10.8,24,24v74.6C363.5,354,352.7,364.7,339.5,364.7z
				 M160.5,245.4c-11.4,0-20.7,9.3-20.7,20.7v74.6c0,11.4,9.3,20.7,20.7,20.7h178.9c11.4,0,20.7-9.3,20.7-20.7v-74.6
				c0-11.4-9.3-20.7-20.7-20.7H160.5z M332,342.4H168c-5,0-9.1-4.1-9.1-9.1v-59.7c0-5,4.1-9.1,9.1-9.1h164c5,0,9.1,4.1,9.1,9.1v59.7
				C341.1,338.3,337,342.4,332,342.4z M168,267.8c-3.2,0-5.8,2.6-5.8,5.8v59.7c0,3.2,2.6,5.8,5.8,5.8h164c3.2,0,5.8-2.6,5.8-5.8
				v-59.7c0-3.2-2.6-5.8-5.8-5.8H168z M313,161.6H187c-5.9,0-10.7-4.8-10.7-10.7v-54c0-5.9,4.8-10.7,10.7-10.7H313
				c5.9,0,10.7,4.8,10.7,10.7v54C323.7,156.8,318.9,161.6,313,161.6z M187,89.6c-4,0-7.3,3.3-7.3,7.3v54c0,4,3.3,7.3,7.3,7.3H313
				c4.1,0,7.4-3.3,7.4-7.3v-54c0-4-3.3-7.3-7.4-7.3H187z"/>
		</g>
	</g>
</g>
</svg>
