<?xml version="1.0" encoding="utf-8"?>
<!-- Generator: Adobe Illustrator 23.1.1, SVG Export Plug-In . SVG Version: 6.00 Build 0)  -->
<svg version="1.1" id="Layer_1" xmlns="http://www.w3.org/2000/svg" xmlns:xlink="http://www.w3.org/1999/xlink" x="0px" y="0px"
	 viewBox="0 0 500 500" style="enable-background:new 0 0 500 500;" xml:space="preserve">
<style type="text/css">
	.st0{fill-rule:evenodd;clip-rule:evenodd;fill:#FFFFFF;}
	.st1{fill:#37A17D;}
</style>
<g>
	<g>
		<path class="st0" d="M363.17,221.41c0,44.66-18.1,85.08-47.36,114.35c-29.26,29.26-69.69,47.36-114.35,47.36
			c-89.31,0-161.71-72.4-161.71-161.71s72.4-161.71,161.71-161.71S363.17,132.1,363.17,221.41z"/>
		<path class="st1" d="M201.46,396.86C104.71,396.86,26,318.16,26,221.4c0-96.75,78.71-175.46,175.46-175.46
			s175.46,78.71,175.46,175.46c0,46.87-18.25,90.93-51.39,124.07S248.33,396.86,201.46,396.86z M201.46,73.44
			c-81.59,0-147.96,66.38-147.96,147.96c0,81.59,66.38,147.96,147.96,147.96c39.52,0,76.68-15.39,104.63-43.33
			c27.94-27.95,43.33-65.11,43.33-104.63C349.42,139.82,283.05,73.44,201.46,73.44z"/>
	</g>
	<g>
		<line class="st0" x1="460.25" y1="440.31" x2="338.17" y2="331.79"/>
		<path class="st1" d="M460.25,454.06c-3.25,0-6.52-1.15-9.13-3.47L329.04,342.07c-5.68-5.05-6.19-13.74-1.15-19.41
			c5.06-5.7,13.77-6.17,19.41-1.15l122.08,108.52c5.68,5.05,6.19,13.74,1.15,19.41C467.81,452.5,464.03,454.06,460.25,454.06z"/>
	</g>
	<g>
		<path class="st0" d="M135.23,134.02c58-34.51,150.99-0.54,160.98,60.37"/>
		<path class="st1" d="M296.2,208.15c-6.61,0-12.44-4.78-13.55-11.53c-3.47-21.12-19.98-40-45.31-51.8
			c-31.82-14.81-69.15-14.42-95.07,1.02c-6.54,3.87-14.97,1.74-18.85-4.79s-1.74-14.96,4.78-18.85
			c34.05-20.25,80.3-21.15,120.75-2.31c33.7,15.69,55.87,42.03,60.83,72.28c1.24,7.49-3.85,14.57-11.34,15.79
			C297.69,208.09,296.94,208.15,296.2,208.15z"/>
	</g>
</g>
</svg>
