<?xml version="1.0" encoding="utf-8"?>
<!-- Generator: Adobe Illustrator 23.1.1, SVG Export Plug-In . SVG Version: 6.00 Build 0)  -->
<svg version="1.1" id="Layer_1" xmlns="http://www.w3.org/2000/svg" xmlns:xlink="http://www.w3.org/1999/xlink" x="0px" y="0px"
	 viewBox="0 0 500 500" style="enable-background:new 0 0 500 500;" xml:space="preserve">
<style type="text/css">
	.st0{fill:#36A07D;}
	.st1{fill-rule:evenodd;clip-rule:evenodd;fill:#FFFFFF;}
</style>
<g>
	<g>
		<path class="st0" d="M201.5,396.9C104.7,396.9,26,318.2,26,221.4S104.7,45.9,201.5,45.9s175.5,78.7,175.5,175.5
			c0,46.9-18.3,90.9-51.4,124.1C292.4,378.6,248.3,396.9,201.5,396.9z M201.5,73.4c-81.6,0-148,66.4-148,148s66.4,148,148,148
			c39.5,0,76.7-15.4,104.6-43.3c27.9-28,43.3-65.1,43.3-104.6C349.4,139.8,283,73.4,201.5,73.4z"/>
	</g>
	<g>
		<line class="st1" x1="460.2" y1="440.3" x2="338.2" y2="331.8"/>
		<path class="st0" d="M460.2,454.1c-3.2,0-6.5-1.1-9.1-3.5L329,342.1c-5.7-5-6.2-13.7-1.1-19.4c5-5.7,13.7-6.2,19.4-1.1L469.4,430
			c5.7,5,6.2,13.7,1.1,19.4C467.8,452.5,464,454.1,460.2,454.1z"/>
	</g>
	<g>
		<path class="st0" d="M296.2,208.1c-6.6,0-12.4-4.8-13.6-11.5c-3.5-21.1-20-40-45.3-51.8c-31.8-14.8-69.1-14.4-95.1,1
			c-6.5,3.9-15,1.7-18.8-4.8c-3.9-6.5-1.7-15,4.8-18.8c34.1-20.2,80.3-21.1,120.8-2.3c33.7,15.7,55.9,42,60.8,72.3
			c1.2,7.5-3.8,14.6-11.3,15.8C297.7,208.1,296.9,208.1,296.2,208.1z"/>
	</g>
</g>
</svg>
