<?xml version="1.0" encoding="utf-8"?>
<!-- Generator: Adobe Illustrator 23.1.1, SVG Export Plug-In . SVG Version: 6.00 Build 0)  -->
<svg version="1.1" id="Layer_1" xmlns="http://www.w3.org/2000/svg" xmlns:xlink="http://www.w3.org/1999/xlink" x="0px" y="0px"
	 viewBox="0 0 573.8 500" style="enable-background:new 0 0 573.8 500;" xml:space="preserve">
<style type="text/css">
	.st0{fill:#36A07D;}
	.st1{fill-rule:evenodd;clip-rule:evenodd;fill:#FFFFFF;}
</style>
<g>
	<g>
		<g>
			<path class="st0" d="M383.2,378.9H32.3c-7.6,0-13.7-6.2-13.7-13.8V134.9c0-7.6,6.2-13.8,13.7-13.8h350.9
				c7.6,0,13.8,6.2,13.8,13.8v230.3C396.9,372.7,390.8,378.9,383.2,378.9z M46,351.4h323.4V148.6H46V351.4z"/>
		</g>
		<g>
			<path class="st0" d="M207.7,263.8c-2.5,0-5-0.7-7.2-2.1L33.8,158.6c-6.5-4-8.5-12.5-4.5-18.9c4-6.5,12.5-8.4,18.9-4.5l159.3,98.6
				l155.8-100.9c6.4-4.1,14.9-2.3,19,4.1s2.3,14.9-4.1,19L215.2,261.5C212.9,263,210.3,263.8,207.7,263.8z"/>
		</g>
	</g>
	<g>
		<line class="st1" x1="273.7" y1="282.7" x2="516.6" y2="282.7"/>
		<path class="st0" d="M516.6,297.5H273.7c-8.2,0-14.8-6.6-14.8-14.9s6.6-14.9,14.8-14.9h242.9c8.2,0,14.8,6.6,14.8,14.9
			S524.8,297.5,516.6,297.5z"/>
	</g>
	<g>
		<path class="st0" d="M442.7,376c-4.4,0-8.7-1.9-11.6-5.6c-5.1-6.4-4.1-15.7,2.3-20.9l86.1-69l-80.8-64c-6.4-5.1-7.5-14.4-2.4-20.9
			c5.1-6.4,14.4-7.5,20.9-2.4l95.4,75.6c3.5,2.8,5.6,7.1,5.6,11.6c0,4.5-2,8.8-5.6,11.6l-100.7,80.7
			C449.2,374.9,445.9,376,442.7,376z"/>
	</g>
</g>
</svg>
