<?xml version="1.0" encoding="utf-8"?>
<!-- Generator: Adobe Illustrator 23.1.1, SVG Export Plug-In . SVG Version: 6.00 Build 0)  -->
<svg version="1.1" id="Layer_1" xmlns="http://www.w3.org/2000/svg" xmlns:xlink="http://www.w3.org/1999/xlink" x="0px" y="0px"
	 viewBox="0 0 500 500" style="enable-background:new 0 0 500 500;" xml:space="preserve">
<style type="text/css">
	.st0{fill-rule:evenodd;clip-rule:evenodd;fill:#339F7E;}
	.st1{fill:#36A07D;}
</style>
<g>
	<g>
		<path class="st0" d="M227.1,73.2c-84.2,0-152.5,68.2-152.5,152.5c0,84.3,68.3,152.5,152.5,152.5c14.7,0,29-2.1,42.6-6
			c-0.3-2.8-0.4-5.6-0.4-8.5c0-2.6,0.1-5.3,0.4-7.8c0.1-1.8,0.4-3.6,0.8-5.4c0.1-1,0.3-2,0.5-2.9c0-0.1,0-0.1,0-0.2
			c0.2-1.5,0.7-3.1,1.1-4.5c-0.7,0.2-1.2,0.4-1.9,0.7c-13.4,4.8-27.9,7.6-43.1,7.6c-69.2,0-125.3-56.1-125.3-125.4
			c0-69.2,56.1-125.4,125.3-125.4c69.3,0,125.4,56.2,125.4,125.4c0,8.4-0.9,16.6-2.5,24.5c6,0,11.9,0.7,17.6,2
			c3.2,0.7,6.3,1.7,9.2,2.8c1.9-9.5,2.9-19.2,2.9-29.3C379.6,141.4,311.3,73.2,227.1,73.2z M214.8,150.9v64h-81.6
			c-7.5,0-13.5,6.2-13.5,13.6s6,13.5,13.5,13.5h95c0.1,0,0.1,0,0.2,0c7.5,0,13.5-6,13.5-13.5v-77.7c0-7.5-6.1-13.6-13.5-13.6
			S214.8,143.4,214.8,150.9z"/>
	</g>
</g>
<g>
	<g>
		<path class="st1" d="M349.6,424.8c-40.9,0-76.8-26-89.4-64.7c-1-2.9-1.9-6.2-2.6-9.3l-0.4-1.8c-0.2-1-0.4-2-0.6-3.1
			c-0.3-2-0.6-3.9-0.7-5.7c-0.3-2.7-0.5-6.1-0.5-9.5c0-5.6,0.5-10.7,1.4-15.4c0.4-3.2,1.1-6.4,2.1-9.5c9.4-35.9,39.7-62.8,77.1-68.1
			c4-0.7,8.8-1.1,13.6-1.1c7.4,0,14.3,0.8,21,2.3c3.2,0.7,6.7,1.7,10.9,3.2c14.6,5.2,28,14.1,38.4,25.9c5,5.7,4.5,14.4-1.1,19.4
			c-5.7,5-14.4,4.6-19.4-1.1c-7.4-8.3-16.8-14.6-27.2-18.3c-2.5-0.9-4.9-1.7-7.4-2.3c-8.6-2-17.3-2.1-24.4-0.9
			c-26.8,3.8-48.2,22.8-55,48.6c-0.7,2.3-1.1,4-1.3,5.8l-0.2,1.1c-0.6,3.1-0.9,6.5-0.9,10.4c0,2.3,0.1,4.6,0.3,6.8
			c0.1,1.7,0.3,2.9,0.5,4c0.1,0.7,0.3,1.6,0.5,2.5l0.4,1.9c0.5,1.9,1,3.8,1.6,5.6c8.9,27.4,34.4,45.8,63.3,45.8
			c16.4,0,32.1-6,44.3-16.9c5.7-5.1,14.3-4.6,19.4,1.1c5.1,5.7,4.6,14.4-1.1,19.4C395,416.3,372.7,424.8,349.6,424.8z"/>
	</g>
	<g>
		<path class="st1" d="M350.8,331.2H246.5c-7.6,0-13.8-6.2-13.8-13.8s6.2-13.8,13.8-13.8h104.3c7.6,0,13.8,6.2,13.8,13.8
			S358.4,331.2,350.8,331.2z"/>
	</g>
	<g>
		<path class="st1" d="M350.9,369.6H246.6c-7.6,0-13.8-6.2-13.8-13.8s6.2-13.8,13.8-13.8h104.3c7.6,0,13.8,6.2,13.8,13.8
			S358.5,369.6,350.9,369.6z"/>
	</g>
</g>
</svg>
