<?xml version="1.0" encoding="utf-8"?>
<!-- Generator: Adobe Illustrator 23.1.1, SVG Export Plug-In . SVG Version: 6.00 Build 0)  -->
<svg version="1.1" id="Layer_1" xmlns="http://www.w3.org/2000/svg" xmlns:xlink="http://www.w3.org/1999/xlink" x="0px" y="0px"
	 viewBox="0 0 500 500" style="enable-background:new 0 0 500 500;" xml:space="preserve">
<style type="text/css">
	.st0{fill:#37A17D;}
	.st1{fill-rule:evenodd;clip-rule:evenodd;fill:#FFFFFF;}
</style>
<g>
	<g>
		<path class="st0" d="M275.39,464.77c-53.41,0-114.11-2.36-125.11-3.34c-13.38-1.19-31.7-2.84-39.53-307.25
			c-0.09-3.71,1.31-7.29,3.9-9.95c2.59-2.65,6.14-4.15,9.85-4.15l254.76-0.04c3.72,0,7.27,1.5,9.86,4.17c2.59,2.66,4,6.27,3.88,9.98
			c-8.7,294.07-25.48,301.42-34.5,305.36C349.42,463.51,314.35,464.77,275.39,464.77z M343.21,437.76L343.21,437.76L343.21,437.76z
			 M158.81,434.5c40.64,2.69,159.9,4.37,185.59,0.42c8.44-24.8,16.83-149.9,20.67-267.38l-226.46,0.04
			C141.98,283.98,150.07,407.92,158.81,434.5z"/>
	</g>
	<g>
		<path class="st0" d="M309.51,96.82c-0.37,0-0.73-0.02-1.1-0.04c-7.55-0.6-13.19-7.19-12.62-14.73c0.31-4.67-0.69-13.2-3.83-16.71
			c-0.78-0.88-1.88-1.7-4.57-1.81c-25.02-1.05-57.96-1.06-76.65-0.01c-3.81,0.21-5.94,12.41-5.65,18.94
			c0.33,7.58-5.54,14.01-13.13,14.35c-7.5,0.46-14.01-5.53-14.35-13.12c-0.99-22.04,8.49-46.34,31.6-47.62
			c19.74-1.1,53.12-1.1,79.31-0.01c9.66,0.4,17.97,4.23,24.03,11.08c12.12,13.67,10.83,34.68,10.65,37.03
			C322.64,91.35,316.61,96.82,309.51,96.82z"/>
	</g>
	<g>
		<path class="st0" d="M214.35,392.65c-7.59,0-13.75-6.16-13.75-13.75V218.65c0-7.59,6.16-13.75,13.75-13.75s13.75,6.16,13.75,13.75
			V378.9C228.1,386.49,221.94,392.65,214.35,392.65z"/>
	</g>
	<g>
		<path class="st0" d="M284.75,394.65c-7.59,0-13.75-6.16-13.75-13.75V220.66c0-7.59,6.16-13.75,13.75-13.75s13.75,6.16,13.75,13.75
			V380.9C298.5,388.5,292.35,394.65,284.75,394.65z"/>
	</g>
	<g>
		<path class="st1" d="M122.38,101.02h256.4c0,0,16.58,1.97,17.98,22.9c1.82,27.34-17.18,31.62-17.18,31.62H129.44
			c0,0-27.36,1.17-26.29-29.75C103.88,104.8,122.38,101.02,122.38,101.02z"/>
		<path class="st0" d="M128.71,169.3c-3.44,0-17.32-0.75-27.9-11.24c-5.53-5.47-11.99-15.6-11.4-32.74
			c0.86-25.16,20.13-35.71,30.21-37.76c0.9-0.19,1.83-0.28,2.75-0.28h256.39c0.54,0,1.08,0.03,1.62,0.1
			c9.66,1.14,28.37,10.07,30.08,35.64c2.06,30.92-17.33,43.57-27.88,45.94c-0.99,0.22-2,0.33-3.02,0.33H129.44
			C129.33,169.29,129.08,169.3,128.71,169.3z M124.32,114.77c-2.76,1.01-7.15,3.82-7.42,11.49c-0.19,5.79,0.9,9.92,3.28,12.27
			c3.17,3.14,8.52,3.27,8.68,3.27l0,0l248.43-0.01c1.92-1.06,6.55-4.91,5.75-16.95c-0.53-7.89-4.25-9.68-5.49-10.07H124.32z"/>
	</g>
</g>
</svg>
