<?xml version="1.0" encoding="utf-8"?>
<!-- Generator: Adobe Illustrator 23.1.1, SVG Export Plug-In . SVG Version: 6.00 Build 0)  -->
<svg version="1.1" id="Layer_1" xmlns="http://www.w3.org/2000/svg" xmlns:xlink="http://www.w3.org/1999/xlink" x="0px" y="0px"
	 viewBox="0 0 500 500" style="enable-background:new 0 0 500 500;" xml:space="preserve">
<style type="text/css">
	.st0{fill:#36A07D;}
</style>
<g>
	<g>
		<path class="st0" d="M275.1,464.7c-53.5,0-114.2-2.3-124.8-3.2c-13.4-1.2-31.7-2.8-39.5-307.2c-0.1-3.7,1.3-7.3,3.9-9.9
			c2.6-2.7,6.1-4.2,9.8-4.2l254.8,0c3.7,0,7.3,1.5,9.9,4.2c2.6,2.7,4,6.3,3.9,10c-8.7,294.1-25.5,301.4-34.5,305.4
			C349.6,463.5,314.3,464.7,275.1,464.7z M343.2,437.8L343.2,437.8L343.2,437.8z M158.8,434.5c40.6,2.7,159.9,4.4,185.6,0.4
			c8.4-24.8,16.8-149.9,20.7-267.4l-226.4,0C142,284,150.1,408,158.8,434.5z"/>
	</g>
	<g>
		<path class="st0" d="M309.5,96.9c-0.4,0-0.7,0-1.1,0c-7.5-0.6-13.2-7.2-12.6-14.7c0.3-4.7-0.7-13.2-3.8-16.7
			c-0.8-0.9-1.9-1.7-4.6-1.8c-25-1-58-1-76.7,0c-3.8,0.2-5.9,12.4-5.6,18.9c0.3,7.6-5.5,14-13.1,14.4c-7.4,0.4-14-5.5-14.3-13.1
			c-1-22,8.5-46.3,31.6-47.6c19.7-1.1,53.1-1.1,79.3,0c9.7,0.4,18,4.2,24,11.1c12.1,13.7,10.8,34.7,10.6,37
			C322.6,91.4,316.6,96.9,309.5,96.9z"/>
	</g>
	<g>
		<path class="st0" d="M214.4,392.7c-7.6,0-13.8-6.2-13.8-13.8V218.7c0-7.6,6.2-13.8,13.8-13.8s13.8,6.2,13.8,13.8v160.2
			C228.1,386.5,221.9,392.7,214.4,392.7z"/>
	</g>
	<g>
		<path class="st0" d="M284.8,394.7c-7.6,0-13.8-6.2-13.8-13.8V220.7c0-7.6,6.2-13.8,13.8-13.8s13.8,6.2,13.8,13.8V381
			C298.5,388.6,292.4,394.7,284.8,394.7z"/>
	</g>
	<g>
		<path class="st0" d="M128.7,169.3c-3.4,0-17.3-0.7-27.9-11.2c-5.5-5.5-12-15.6-11.4-32.8c0.9-25.2,20.1-35.7,30.2-37.8
			c0.9-0.2,1.8-0.3,2.8-0.3h256.4c0.5,0,1.1,0,1.6,0.1c9.7,1.1,28.4,10.1,30.1,35.6c2.1,30.9-17.3,43.6-27.9,45.9
			c-1,0.2-2,0.3-3,0.3H129.4C129.3,169.3,129.1,169.3,128.7,169.3z M124.3,114.8c-2.8,1-7.2,3.8-7.4,11.5c-0.2,5.7,0.9,9.8,3.2,12.2
			c3.2,3.3,8.9,3.4,9,3.4l0,0l248.2,0c1.9-1.1,6.6-4.9,5.8-17c-0.5-7.2-3.5-9.4-5.7-10.1H124.3z"/>
	</g>
</g>
</svg>
