<?xml version="1.0" encoding="utf-8"?>
<!-- Generator: Adobe Illustrator 23.1.1, SVG Export Plug-In . SVG Version: 6.00 Build 0)  -->
<svg version="1.1" id="Layer_1" xmlns="http://www.w3.org/2000/svg" xmlns:xlink="http://www.w3.org/1999/xlink" x="0px" y="0px"
	 viewBox="0 0 500 500" style="enable-background:new 0 0 500 500;" xml:space="preserve">
<style type="text/css">
	.st0{fill:#36A07D;}
	.st1{fill-rule:evenodd;clip-rule:evenodd;fill:#34A07D;}
	.st2{fill:none;}
</style>
<g>
	<g>
		<g>
			<g>
				<path class="st0" d="M276.3,58.4c-0.6,22.4,13.9,26.6,13.5,26.6c6.8,1.5,13.2,3.6,19.6,6c5.7,2.1,11.3,4.7,16.6,7.5
					c54.1,27.7,90.9,83.9,90.9,148.7c0,57.5-27.8,103.7-67.5,134c-2.4,1.9,12.1,5.4,9.3,7.1c9.2,6.2,34.6,0.5,30.1,9.7
					c4.5-2.8,1.5,18.7,5.4,15.4c45.8-38.1,75.9-96.2,75.9-166.2c0-88-51.8-164-126.3-199.3c-10.6-4.9-21.9-9.2-33.4-12.6
					c-2.1-0.6-4.3-1.1-6.4-1.7c0,0-0.6-0.2-1.5-0.2C302.5,33.3,276.9,33.3,276.3,58.4z M263.3,441.7c-1.7-22.4-21.2-27-24.2-28.1
					C152.2,408.1,83,335.5,83,247.1c0-65.6,38-122.4,93.1-149.7c1.5-0.7,6.7-13.6,6.7-13.6c-9-6.9-21.9-17.4-28.4-25.7
					c0,0-20.8,2.1-21.4,2.5c-62,38.9-103.3,108-103.3,186.5c0,86,49.8,160.8,122,197c16.2,8.1,33.6,14.3,52,18.3
					c9.4,1.9,18.7,3.4,28.5,4.3h0.6C232.9,466.7,265,464.1,263.3,441.7z"/>
			</g>
		</g>
		<g>
			<polygon class="st1" points="175.8,70.5 125.2,170.1 64.3,76.4 			"/>
			<path class="st0" d="M125.2,183.8c-4.6,0-9-2.3-11.5-6.3L52.8,83.9c-2.7-4.1-3-9.4-0.7-13.7c2.2-4.4,6.6-7.2,11.5-7.5l111.6-5.9
				c4.9-0.2,9.6,2.1,12.2,6.2c2.7,4.1,3,9.4,0.7,13.7l-50.7,99.6c-2.2,4.4-6.6,7.2-11.5,7.5C125.6,183.8,125.4,183.8,125.2,183.8z
				 M88.8,88.9l34.9,53.7l29.1-57.1L88.8,88.9z"/>
		</g>
		<g>
			<polygon class="st1" points="351.3,410.1 385.8,308.6 456.5,389.2 			"/>
			<path class="st0" d="M351.3,423.9c-3.9,0-7.7-1.7-10.3-4.7c-3.2-3.7-4.3-8.8-2.7-13.5l34.5-101.6c1.6-4.7,5.5-8.1,10.3-9.1
				c4.8-1,9.8,0.7,13,4.4l70.7,80.6c3.2,3.7,4.3,8.8,2.7,13.5s-5.5,8.1-10.3,9.1L354,423.6C353.1,423.8,352.2,423.9,351.3,423.9z
				 M391.2,335.5L372,392l58.5-11.6L391.2,335.5z"/>
		</g>
	</g>
</g>
<line class="st2" x1="599.4" y1="105.7" x2="600.8" y2="105.7"/>
</svg>
