<?xml version="1.0" encoding="utf-8"?>
<!-- Generator: Adobe Illustrator 23.1.1, SVG Export Plug-In . SVG Version: 6.00 Build 0)  -->
<svg version="1.1" id="Layer_1" xmlns="http://www.w3.org/2000/svg" xmlns:xlink="http://www.w3.org/1999/xlink" x="0px" y="0px"
	 viewBox="0 0 500 500" style="enable-background:new 0 0 500 500;" xml:space="preserve">
<style type="text/css">
	.st0{fill:#36A07D;}
	.st1{fill-rule:evenodd;clip-rule:evenodd;fill:#FFFFFF;}
</style>
<g>
	<g>
		<path class="st0" d="M453.4,435.6H46.6c-8.5,0-15.4-6.9-15.4-15.4V168.5c0-8.5,6.9-15.4,15.4-15.4S62,159.9,62,168.5v236.4H438
			V304.2c0-8.5,6.9-15.4,15.4-15.4s15.4,6.9,15.4,15.4v116.1C468.8,428.8,461.9,435.6,453.4,435.6z"/>
	</g>
	<g>
		<line class="st1" x1="249.6" y1="103.5" x2="249.6" y2="321.8"/>
		<path class="st0" d="M249.6,337.2c-8.5,0-15.4-6.9-15.4-15.4V103.5c0-8.5,6.9-15.4,15.4-15.4S265,95,265,103.5v218.3
			C265,330.3,258.1,337.2,249.6,337.2z"/>
	</g>
	<g>
		<path class="st0" d="M340.7,178.4c-3.7,0-7.4-1.3-10.3-4l-81.5-73.7l-76.5,71.9c-6.2,5.8-16,5.5-21.8-0.7
			c-5.8-6.2-5.5-15.9,0.7-21.8l86.8-81.6C244,63,253.1,63,259,68.3l92,83.2c6.3,5.7,6.8,15.4,1.1,21.8
			C349.1,176.7,344.9,178.4,340.7,178.4z"/>
	</g>
</g>
</svg>
