<?xml version="1.0" encoding="utf-8"?>
<!-- Generator: Adobe Illustrator 23.1.1, SVG Export Plug-In . SVG Version: 6.00 Build 0)  -->
<svg version="1.1" id="Layer_1" xmlns="http://www.w3.org/2000/svg" xmlns:xlink="http://www.w3.org/1999/xlink" x="0px" y="0px"
	 viewBox="0 0 500 500" style="enable-background:new 0 0 500 500;" xml:space="preserve">
<style type="text/css">
	.st0{fill:#36A07D;}
	.st1{fill-rule:evenodd;clip-rule:evenodd;fill:#FFFFFF;}
	.st2{fill-rule:evenodd;clip-rule:evenodd;fill:#34A07D;}
</style>
<g>
	<g>
		<path class="st0" d="M453.4,410.2H46.6c-8.5,0-15.4-6.9-15.4-15.4V143c0-8.5,6.9-15.4,15.4-15.4S62,134.5,62,143v236.4H438V278.7
			c0-8.5,6.9-15.4,15.4-15.4s15.4,6.9,15.4,15.4v116C468.8,403.3,461.9,410.2,453.4,410.2z"/>
	</g>
	<g>
		<g>
			<g>
				<path class="st0" d="M264.3,102.8c-0.3,11.6,7.2,13.8,7,13.8c3.5,0.8,6.8,1.9,10.1,3.1c3,1.1,5.8,2.4,8.6,3.9
					c27.9,14.3,47,43.3,47,76.8c0,29.7-15.1,56-38.1,71.5c-1.3,0.9-2.8,1.8-4.2,2.6c4.7,3.2,22.1,15.2,19.8,19.9
					c2.3-1.4,4.5-3.1,6.6-4.7c26.4-20.9,43.3-53.1,43.3-89.3c0-45.4-26.7-84.7-65.2-103c-5.5-2.5-11.3-4.7-17.3-6.5
					c-1.1-0.3-2.2-0.5-3.3-0.9c0,0-0.3-0.1-0.8-0.1C277.9,89.8,264.7,89.8,264.3,102.8z M257.6,300.8c-0.9-11.6-11-13.9-12.5-14.5
					c-44.9-2.9-80.6-40.4-80.6-86c0-34.8,20.7-64.8,50.4-78.4c2-0.9,4-1.8,5.9-2.4c-2.3-1.7-20.5-14.7-21.5-20.6
					c-37,18.7-62.4,57.2-62.4,101.4c0,44.4,25.7,83,63,101.8c8.4,4.2,17.4,7.4,26.8,9.5c4.8,1,9.7,1.8,14.7,2.2h0.3
					C241.9,313.7,258.5,312.3,257.6,300.8z"/>
			</g>
		</g>
		<g>
			<path class="st1" d="M220.8,119.4c0.7-0.3,1.3-0.6,2-0.7c-1.1,0.5-1.8,0.9-1.8,0.9S220.9,119.5,220.8,119.4z"/>
		</g>
		<g>
			<polygon class="st2" points="212.5,109 186.3,160.5 154.8,112.1 			"/>
			<path class="st0" d="M186.3,174.2c-4.6,0-9-2.3-11.5-6.3l-31.4-48.4c-2.7-4.1-2.9-9.3-0.7-13.7c2.2-4.4,6.6-7.2,11.5-7.5l57.6-3
				c4.9-0.3,9.6,2.1,12.3,6.2c2.7,4.1,2.9,9.4,0.7,13.7l-26.2,51.4c-2.2,4.4-6.6,7.2-11.5,7.5C186.8,174.2,186.5,174.2,186.3,174.2z
				 M179.4,124.6l5.5,8.4l4.6-9L179.4,124.6z"/>
		</g>
		<g>
			<polygon class="st2" points="303.1,284.5 320.9,232 357.4,273.6 			"/>
			<path class="st0" d="M303.1,298.2c-3.9,0-7.7-1.7-10.3-4.7c-3.2-3.7-4.3-8.8-2.7-13.5l17.8-52.5c1.6-4.7,5.5-8.1,10.3-9.1
				c4.8-1,9.8,0.7,13,4.4l36.5,41.6c3.2,3.7,4.3,8.8,2.7,13.5s-5.5,8.1-10.3,9.1l-54.3,10.8C304.9,298.1,304,298.2,303.1,298.2z
				 M326.3,259l-2.5,7.3l7.6-1.5L326.3,259z"/>
		</g>
	</g>
</g>
</svg>
