<?xml version="1.0" encoding="utf-8"?>
<!-- Generator: Adobe Illustrator 23.1.1, SVG Export Plug-In . SVG Version: 6.00 Build 0)  -->
<svg version="1.1" id="Layer_1" xmlns="http://www.w3.org/2000/svg" xmlns:xlink="http://www.w3.org/1999/xlink" x="0px" y="0px"
	 viewBox="0 0 500 500" style="enable-background:new 0 0 500 500;" xml:space="preserve">
<style type="text/css">
	.st0{fill:#37A17D;}
	.st1{fill-rule:evenodd;clip-rule:evenodd;fill:#FFFFFF;}
</style>
<g>
	<g>
		<path class="st0" d="M453.43,433.99H46.57c-7.59,0-13.75-6.16-13.75-13.75V168.47c0-7.59,6.16-13.75,13.75-13.75
			s13.75,6.16,13.75,13.75v238.03h379.37V304.18c0-7.59,6.16-13.75,13.75-13.75s13.75,6.16,13.75,13.75v116.06
			C467.18,427.84,461.03,433.99,453.43,433.99z"/>
	</g>
	<g>
		<line class="st1" x1="249.63" y1="103.53" x2="249.63" y2="321.82"/>
		<path class="st0" d="M249.63,335.57c-7.59,0-13.75-6.16-13.75-13.75V103.53c0-7.59,6.16-13.75,13.75-13.75s13.75,6.16,13.75,13.75
			v218.29C263.38,329.42,257.23,335.57,249.63,335.57z"/>
	</g>
	<g>
		<path class="st0" d="M340.74,176.75c-3.3,0-6.6-1.17-9.23-3.56L248.9,98.46l-77.59,72.96c-5.54,5.2-14.24,4.93-19.44-0.6
			c-5.2-5.53-4.94-14.23,0.6-19.44l86.83-81.64c5.23-4.9,13.34-4.97,18.64-0.17l92.03,83.24c5.63,5.09,6.06,13.78,0.97,19.42
			C348.22,175.22,344.49,176.75,340.74,176.75z"/>
	</g>
</g>
</svg>
