<?xml version="1.0" encoding="utf-8"?>
<!-- Generator: Adobe Illustrator 23.1.1, SVG Export Plug-In . SVG Version: 6.00 Build 0)  -->
<svg version="1.1" id="Layer_1" xmlns="http://www.w3.org/2000/svg" xmlns:xlink="http://www.w3.org/1999/xlink" x="0px" y="0px"
	 viewBox="0 0 500 500" style="enable-background:new 0 0 500 500;" xml:space="preserve">
<style type="text/css">
	.st0{fill:#37A17D;}
	.st1{fill-rule:evenodd;clip-rule:evenodd;fill:none;}
	.st2{fill-rule:evenodd;clip-rule:evenodd;fill:#FFFFFF;}
	.st3{fill-rule:evenodd;clip-rule:evenodd;fill:#35A17D;}
</style>
<g>
	<g>
		<path class="st0" d="M453.43,431.28H46.57c-7.59,0-13.75-6.16-13.75-13.75V165.75c0-7.59,6.16-13.75,13.75-13.75
			s13.75,6.16,13.75,13.75v238.03h379.37V301.47c0-7.59,6.16-13.75,13.75-13.75s13.75,6.16,13.75,13.75v116.06
			C467.18,425.12,461.03,431.28,453.43,431.28z"/>
	</g>
	<g>
		<g>
			<circle class="st1" cx="250.76" cy="222.98" r="99.99"/>
			<path class="st0" d="M250.75,336.73c-62.71,0-113.73-51.03-113.73-113.74s51.02-113.74,113.73-113.74
				c62.71,0,113.73,51.03,113.73,113.74S313.46,336.73,250.75,336.73z M250.75,136.75c-47.55,0-86.23,38.68-86.23,86.24
				s38.68,86.24,86.23,86.24s86.23-38.68,86.23-86.24S298.31,136.75,250.75,136.75z"/>
		</g>
		<g>
			<path class="st2" d="M221,142.36c0,0,17.27-9.3,50.25-3.11c0.3,0.06-5.02-1.37-4.52-4.5c0.89-5.61,5.6-15.28,6.64-19.87
				c0.77-3.41,5.29-2.19,5.29-2.19s-36.74-11.28-78.05,6.47C192.91,122.48,221,142.36,221,142.36z"/>
		</g>
		<g>
			<polygon class="st3" points="212.46,131.79 186.28,183.21 154.84,134.83 			"/>
			<path class="st0" d="M186.29,196.96c-4.64,0-8.99-2.34-11.53-6.26l-31.44-48.38c-2.67-4.11-2.95-9.35-0.72-13.73
				c2.23-4.37,6.62-7.23,11.53-7.49l57.62-3.03c5.04-0.24,9.58,2.13,12.25,6.24s2.95,9.35,0.72,13.73l-26.18,51.41
				c-2.23,4.37-6.62,7.23-11.53,7.49C186.77,196.95,186.53,196.96,186.29,196.96z M179.35,147.31l5.49,8.44l4.57-8.97L179.35,147.31
				z"/>
		</g>
		<g>
			<path class="st2" d="M293.53,296.37c0,0-17.31,14.88-49.49,12.35c-0.28-0.02,5.77,1.11,4.75,5.75
				c-1.12,5.13-2.77,14.77-3.02,19.11c-0.18,3.23-4.49,2.8-4.49,2.8s37.06,5.34,72.5-18.46
				C320.21,313.6,293.53,296.37,293.53,296.37z"/>
		</g>
		<g>
			<polygon class="st3" points="303.1,307.21 320.91,254.75 357.44,296.4 			"/>
			<path class="st0" d="M303.11,320.96c-3.92,0-7.7-1.68-10.33-4.68c-3.24-3.7-4.26-8.83-2.69-13.48l17.8-52.45
				c1.58-4.65,5.52-8.11,10.33-9.07c4.81-0.99,9.79,0.72,13.02,4.42l36.53,41.65c3.24,3.7,4.26,8.83,2.69,13.48
				s-5.52,8.11-10.33,9.07l-54.33,10.81C304.9,320.87,304,320.96,303.11,320.96z M326.28,281.73l-2.5,7.35l7.62-1.51L326.28,281.73z
				"/>
		</g>
	</g>
</g>
</svg>
