<?xml version="1.0" encoding="utf-8"?>
<!-- Generator: Adobe Illustrator 23.1.1, SVG Export Plug-In . SVG Version: 6.00 Build 0)  -->
<svg version="1.1" id="Layer_1" xmlns="http://www.w3.org/2000/svg" xmlns:xlink="http://www.w3.org/1999/xlink" x="0px" y="0px"
	 viewBox="0 0 500 500" style="enable-background:new 0 0 500 500;" xml:space="preserve">
<style type="text/css">
	.st0{fill:#36A07D;}
</style>
<g>
	<g>
		<path class="st0" d="M374.8,60.4H123.2c-34.7,0-62.9,28.2-62.9,62.9v251.5c0,34.7,28.2,62.9,62.9,62.9h251.5
			c34.7,0,62.9-28.2,62.9-62.9V123.2C437.6,88.5,409.5,60.4,374.8,60.4z M406.2,374.8c0,17.4-14.1,31.4-31.4,31.4H123.2
			c-17.4,0-31.4-14.1-31.4-31.4V123.2c0-17.4,14.1-31.4,31.4-31.4h251.5c17.4,0,31.4,14.1,31.4,31.4V374.8z"/>
	</g>
	<g>
		<path class="st0" d="M182.8,335.4c-2.6,0-5.1-0.7-7.3-2.1c-4-2.5-6.4-6.9-6.4-11.6V176.4c0-4.7,2.4-9.1,6.4-11.6
			c4-2.5,9-2.8,13.3-0.8l151.1,72.6c4.8,2.3,7.8,7.1,7.8,12.4s-3,10.1-7.8,12.4L188.7,334C186.8,334.9,184.8,335.4,182.8,335.4z
			 M196.5,198.3v101.5L302.1,249L196.5,198.3z"/>
	</g>
</g>
</svg>
